<svg width="244" height="229" fill="none" xmlns="http://www.w3.org/2000/svg"><path d="M58.029 125.672l6.432-48.204-55.912-38.6 51.093 17.2 12.073-18.394 44.045-27.202 97.161 53.2 5.03 81.2-43.248 59.799-34.196 5.201 17.704-32.204v-31l-12.875-24.196-13.075-8.6-20.118 20.599v21.797l-15.69 14.602-19.914 2.399-8.852 5.001-14.482-4.598-6.037-21.604 10.866-15.199v-11.197h-.005z" fill="#fff"/><path d="M147.344 38.472c-10.66-2.2-22.332-1.602-22.332-1.602s-3.818 17.602-27.553 22.2c.2 0 31.38 10.601 49.885-20.598zm9.654 159.597c12.875-9.998 22.533-23.798 26.961-39.395.196-.602 2.005-1.603 3.217-2.404 2.009-1.199 4.022-2.2 4.423-3.797.807-4.599 1.208-9.401 1.208-14.203 0-1.802-1.814-3.599-3.622-5.4-1.408-1.2-2.816-2.598-2.816-3.598-2.014-18.205-10.46-35.2-23.936-47.597l-1.407 1.398c13.075 12.198 21.521 28.8 23.334 46.398.201 1.602 1.809 3.2 3.417 4.802 1.408 1.2 3.016 3.001 3.016 3.797a79.86 79.86 0 01-1.207 13.801c-.201.801-2.009 1.602-3.417 2.399-2.014 1-3.822 2-4.223 3.603-4.885 16.987-15.733 31.675-30.579 41.4 2.615-5.603 10.861-23.798 15.289-33l-.806-29.601-25.544-24.604-14.483 2.005-15.891 25.6s7.44 9.401-3.02 20.399c-10.26 10.8-18.305 13.198-18.305 13.198l-7.445-4.001c2.215-2.797 6.638-6.997 10.06-9.799 5.831-4.797 11.667-5.2 11.667-10.396.201-10.804-11.467-7.804-11.467-7.804l-4.223 4.002-1.813 14.8-8.847 10.999-1.007-.199-14.483-3.2s8.852-4.599 10.26-9.799c1.407-5.002-2.816-21.599-3.021-22.6.205.2 4.228 3.599 6.036 9.197 3.217-8.798 7.445-17.199 8.652-18 1.202-.797 17.499-9.396 17.499-9.396l-5.43 14.198 4.022-2.199 9.653-23.6s9.458-4.598 16.497-4.598c12.674-.204 31.38-15.602 22.934-43.203 2.41.996 44.255 21.798 51.494 62.602 5.43 31.398-12.469 60.8-42.647 77.795z" fill="#94A6C3"/><path d="M109.12 42.87c4.629-5.4 2.816-13.402 2.816-13.402L98.46 49.27c-.206 0 4.824.199 10.66-6.4zM63.858 151.073l1.608-8.003s-6.632 11.601-7.238 13.198c-.607 1.802.4 5.002 3.015 4.803 2.615-.199 5.836-4.001 5.836-6.798 0-3.603-3.22-3.2-3.22-3.2z" fill="#0A192B"/><path d="M183.345 23.87s10.059.402 20.519 1.602c-23.53-18.399-45.858-23.799-63.963-23.799-24.948 0-41.845 10.198-42.852 10.8L104.9.07s-31.38-3-42.446 30c-2.816-6.998-5.43-17.2-5.43-17.2s-16.299 14.2-8.654 37.8C29.664 43.872 2.908 34.47 1.905 34.272c-1.412-.2-1.813.398-1.813.398s-.4.602.807 1.602c2.209 1.802 44.455 32.802 53.708 38.799-2.014 7.2-2.014 10.6 0 13.999 2.815 4.599 3.016 7.002 2.615 10.401-.401 3.399-4.023 32.801-4.83 36.4-.801 3.603-9.252 16.403-8.847 20.2.401 3.802 5.631 20.001 10.26 21.803 3.417 1.199 11.863 3.797 17.499 3.797 2.009 0 3.817-.398 4.628-1.2 3.417-3 4.424-3.602 6.839-3.602h.6c1.003 0 2.215.203 3.623.203 3.216 0 7.444-.602 10.46-3.399 4.423-4.399 12.073-10.401 14.483-13.203 3.015-3.797 4.628-8.998 3.817-14.198-.596-4.803 2.019-8.998 5.035-13.198 3.817-5.002 10.86-14 10.86-14 13.882 10.397 22.529 26.197 22.529 43.8 0 31.194-27.358 56.396-61.148 56.396-5.235 0-10.26-.598-15.289-1.802 15.49 5.405 28.565 7.206 39.225 7.206 22.729 0 34.802-8.201 34.802-8.201s-4.228 5.399-11.066 11.6h.2c37.617-5.2 55.927-36.001 55.927-36.001s-1.412 10.003-3.221 16.801c50.086-37.404 41.64-84.2 41.435-85.802.405.602 5.435 6.599 8.05 9.799 8.046-82.394-59.749-109-59.749-109zm-77.038 131.603c-.807.995-4.228 3.996-6.638 6.196-2.415 2.204-5.03 4.404-7.043 6.4-.802.806-2.415 1.204-4.83 1.204H81.76c3.02-4.001 11.872-13.203 14.888-15.204 3.622-2.399 5.431-4.797 3.221-8.998-2.214-4.2-8.045-3.2-8.045-3.2s3.417-1.398 6.433-1.398c-3.818-1-8.647 0-10.861 2.2-2.415 2.199-2.01 9.998-3.016 14.999-1.002 5.201-4.429 7.799-9.659 12.596-2.815 2.603-4.824 3.404-6.437 3.404a69.66 69.66 0 01-10.26-2.602c-2.004-2.598-5.025-11.198-5.83-14.801.605-1.996 3.015-6.196 4.222-8.6 2.415-4.598 3.823-7.196 4.228-9.6.802-3.399 3.417-24.4 4.424-33.199 2.615 3.399 6.237 9.003 5.43 12.601 5.836-8.202 1.608-16.199-.4-19.4-1.814-3.2-4.224-9.6-2.215-16.402 2.014-6.798 9.258-25.6 9.258-25.6s2.41 4.2 5.831 3.403c3.417-.805 30.975-42.002 30.975-42.002s7.444 16.199-.401 27.998c-8.046 11.805-15.89 14.004-15.89 14.004s11.065 1.996 21.32-5.404c4.228 9.804 8.251 20.006 8.447 21.404-.602 1.4-8.647 20.6-9.449 21.799-.405.398-3.221 1.199-5.23 1.602-3.421.995-5.435 1.597-6.237 2.2-1.408 1.199-7.845 18.797-10.86 27.401-3.627.996-7.245 2.996-9.86 6.997 1.408-1 5.832-1.602 9.053-2 2.815-.199 11.467 4.399 13.676 12.999v.403c.406 3.2-.601 6.196-2.209 8.6zm-18.911 2.398c1.813-2.602 1.608-7.002 1.813-8.4.2-1.399.601-4.001 2.21-4.4 1.608-.403 5.43.199 5.43 3.001 0 2.598-2.816 3.2-4.825 4.997-1.407 1.403-4.228 4.399-4.628 4.802zm80.263-38.201c2.009-10.202 2.21-19 1.609-26.202 7.845 10.402 12.674 23.002 14.077 36.002.205 1.602 1.813 3.2 3.421 4.802 1.413 1.199 3.021 2.797 3.021 3.797 0 4.599-.406 9.197-1.207 13.801-.201.602-2.014 1.602-3.422 2.403-2.009.996-3.817 1.996-4.223 3.598-4.451 15.364-13.76 28.898-26.551 38.599 18.706-19.399 27.758-51.399 13.275-76.8zm-12.674 78.602c13.075-10.003 23.135-24.002 27.558-39.803.201-.598 2.014-1.598 3.221-2.399 2.009-.996 4.023-2.2 4.424-3.797.806-4.599 1.207-9.401 1.207-14.204 0-1.801-1.813-3.603-3.622-5.399-1.002-1.2-2.615-2.598-2.615-3.603a77.894 77.894 0 00-16.496-39.794c-4.023-24.002-20.114-31.403-20.52-31.602.406.602 10.866 15.597 3.627 33.2-7.444 17.801-26.556 14.999-28.164 15.198-1.608 0-7.845 8.003-15.69 22.803-1.002-.403-5.23-1.403-10.06-.602 3.623-10.003 9.053-24.201 10.06-25.401.401-.398 3.417-1.199 5.43-1.801 3.823-.996 5.631-1.598 6.237-2.399.401-.597 2.415-5.196 4.424-9.998 1.813 0 6.442-.399 6.838-.602.406-.398 4.228-10.198 4.228-11.397 0-1-7.845-20.4-10.866-27.8 1.413-1.602 2.816-3.603 4.228-5.802 41.234 4.399 73.421 39.2 73.421 81.398 0 32.403-19.111 60.601-46.87 73.804z" fill="#0A192B"/><path d="M101.476 90.266c3.818-4.399 1.813-12.596-5.23-13.999 1.813-4.2 4.424-12.596 4.424-12.596s-20.52 32-22.328 32.597c-1.814.602-3.622-6.4-3.622-6.4-3.818 14.602 6.442 16.602 7.644 11.999 5.631-1.398 15.29-7.395 19.112-11.6z" fill="#0A192B"/><path d="M83.975 98.07l10.46-17.801s6.031 3 3.016 7.803c-3.818 5.594-13.476 9.998-13.476 9.998z" fill="#FFD923"/><path d="M213.322 180.471c-3.02 4.001-6.442 8.201-10.46 12.202 25.95-49.602 1.208-95.004.201-96.806 1.813 1.802 3.622 3.802 5.23 5.604 19.913 21.997 22.328 55.002 5.029 79zm24.137-63.801c-9.053-24.197-21.927-44.8-50.287-63.398-27.357-18-56.728-16.602-58.337-16.403h-.405c1.007-.398 2.014-.597 3.02-.797 6.237-2 14.283-3.603 22.328-4.598 21.321-3.001 42.847 4.195 57.531 19.598l.401.398c16.701 17.603 25.348 39.6 25.749 65.2zm-56.724-99.001c-29.973-5.594-49.285-2.797-63.166 2.403-.401-1.602-1.813-4.802-3.016-7.4-4.223 5.002-8.651 10.999-11.467 14.8-7.645 5.201-10.86 10.198-10.86 10.198 4.423-15 17.297-26.197 32.988-29 4.423-.8 9.257-1.199 14.482-1.199 13.882.2 27.759 3.603 41.039 10.203v-.005zm-110.838 38.4c-23.54-.797-15.695-27.999-15.289-29.597 0 .2 1.608 21.4 15.29 29.602v-.005zm23.13-48.996c-18.105 10.8-14.483 36.599-14.483 36.599C61.246 17.47 91.619 7.67 93.027 7.073z" fill="#D82122"/><path d="M63.257 63.278c1.207.995 2.414 2.797 1.007 5.395-.802 1.403-2.01 1.199-3.818.403-2.42-1.2-16.902-9.6-29.977-18.205 14.888 5.205 29.972 10.804 32.387 12.004l.405.398-.004.005z" fill="#fff"/></svg>