<svg width="256" height="256" fill="none" xmlns="http://www.w3.org/2000/svg"><g clip-path="url(#prefix__prefix__clip0_2147_2118)"><circle cx="127.821" cy="127.778" r="128.136" fill="url(#prefix__prefix__paint0_linear_2147_2118)"/><path fill-rule="evenodd" clip-rule="evenodd" d="M202.449 83.754a169.02 169.02 0 01-60.547 72.8 168.646 168.646 0 01-90.14 28.752 91.026 91.026 0 01-13.664-32.744 91.094 91.094 0 01-.115-35.488 91.038 91.038 0 0113.454-32.831A90.884 90.884 0 0176.41 59.068 90.732 90.732 0 01109.1 45.38a90.673 90.673 0 0168.211 13.36 90.881 90.881 0 0125.137 25.013zm5.914-.567V71.91a.676.676 0 01.09-.332.638.638 0 01.238-.239l9.711-5.71a.613.613 0 01.86.242c.055.1.084.214.084.33v11.277a.708.708 0 01-.086.328.66.66 0 01-.229.243l-9.723 5.71a.614.614 0 01-.861-.242.685.685 0 01-.084-.33zm-7.811 103.593a91.117 91.117 0 0016.964-52.952 90.595 90.595 0 00-9.461-40.332 258.928 258.928 0 00-52.056 126.469 90.885 90.885 0 0044.553-33.185z" fill="url(#prefix__prefix__paint1_linear_2147_2118)"/></g><defs><linearGradient id="prefix__prefix__paint0_linear_2147_2118" x1="-.314" y1="99.406" x2="245.889" y2="184.524" gradientUnits="userSpaceOnUse"><stop stop-color="#A13FFD"/><stop offset="1" stop-color="#583CFF"/></linearGradient><linearGradient id="prefix__prefix__paint1_linear_2147_2118" x1="-36.797" y1="96.955" x2="219.18" y2="219.619" gradientUnits="userSpaceOnUse"><stop stop-color="#fff"/><stop offset="1" stop-color="#fff"/></linearGradient><clipPath id="prefix__prefix__clip0_2147_2118"><path fill="#fff" d="M0 0h256v256H0z"/></clipPath></defs></svg>