<svg width="255" height="256" fill="none" xmlns="http://www.w3.org/2000/svg"><path d="M190.22 125.77c2.038-.532 4.106.752 4.607 2.821l3.322 13.727c.502 2.038-.752 4.138-2.788 4.639-2.038.533-4.107-.752-4.608-2.821l-3.322-13.727c-.501-2.038.752-4.138 2.789-4.639zM87.264 25.384a3.912 3.912 0 011.065-5.329l11.722-7.74c1.786-1.16 4.137-.628 5.296 1.096a3.91 3.91 0 01-1.065 5.328L92.56 26.48c-1.755 1.191-4.105.659-5.296-1.096z" fill="#fff"/><path d="M232.494 190.07c-32.616 60.284-107.437 82.307-167.01 49.415-59.594-32.903-81.563-108.5-48.928-168.819C38.029 30.978 77.793 7.846 119.461 6.067c5.528-.236 9.812 2.677 12.789 7.843 3.05 5.292 4.408 12.557 3.682 19.429a77.092 77.092 0 00-.425 8.095c0 12.827 3.168 24.915 8.765 35.522-25.908-9.783-55.72.946-69.331 26.078-14.914 27.536-4.879 62.228 22.463 77.338 27.377 15.129 61.779 4.888 76.704-22.668 8.352-15.456 8.867-33.173 2.87-48.412 10.421 5.347 22.234 8.365 34.751 8.365 7.017 0 13.82-.95 20.284-2.73 3.693-1.017 7.654-.582 10.613.933 2.86 1.465 4.561 3.767 4.749 6.737 1.429 22.691-3.276 46.043-14.881 67.473z" fill="#CEDEFF" stroke="#428EF1" stroke-width="1.11"/><path d="M141.208 30.017c2.124-13.312-4.58-28.92-18.06-28.811a127.166 127.166 0 00-49.046 10.259c-29.555 14.01-11.66 81.581 40.963 67.603 16.078-2.852 33.159 1.975 45.571 14.48 19.211 19.432 20.353 50.153 2.927 70.651 3.416.626 9.421-.823 18.823-6.715 7.429-4.638 15.797-.031 18.524 7.773 2.506 7.136-.75 13.385-4.009 19.639-1.793 3.442-3.588 6.887-4.422 10.48-2.414 10.437.25 21.25 11.502 24.228 4.921 1.284 10.875-.878 16.924-4.733 22.533-26.367 32.806-59.698 30.829-92.403-.599-9.915-11.778-14.674-21.367-12.083a71.526 71.526 0 01-18.664 2.463c-39.437 0-71.408-31.97-71.408-71.408 0-3.844.315-7.675.913-11.423z" fill="#428EF1"/><mask id="prefix__a" style="mask-type:luminance" maskUnits="userSpaceOnUse" x="59" y="1" width="193" height="219"><path d="M141.208 30.017c2.124-13.312-4.58-28.92-18.06-28.811a127.166 127.166 0 00-49.046 10.259c-29.555 14.01-11.66 81.581 40.963 67.603 16.078-2.852 33.159 1.975 45.571 14.48 19.211 19.432 20.353 50.153 2.927 70.651 3.416.626 9.421-.823 18.823-6.715 7.429-4.638 15.797-.031 18.524 7.773 2.506 7.136-.75 13.385-4.009 19.639-1.793 3.442-3.588 6.887-4.422 10.48-2.414 10.437.25 21.25 11.502 24.228 4.921 1.284 10.875-.878 16.924-4.733 22.533-26.367 32.806-59.698 30.829-92.403-.599-9.915-11.778-14.674-21.367-12.083a71.526 71.526 0 01-18.664 2.463c-39.437 0-71.408-31.97-71.408-71.408 0-3.844.315-7.675.913-11.423z" fill="#428EF1"/></mask><g mask="url(#prefix__a)"><path d="M74.101 11.465l-3.79-8.85-.169.072-.164.078 4.123 8.7zm40.964 67.603l-1.682-9.48-.398.07-.392.105 2.472 9.305zm45.57 14.48l6.846-6.77-.012-.012-6.834 6.783zm2.928 70.651l-7.336-6.237-10.796 12.698 16.394 3.008 1.738-9.469zm18.823-6.715l-5.099-8.166-.013.009 5.112 8.157zm18.523 7.773l-9.089 3.177.005.014 9.084-3.191zm-8.431 30.12l-9.378-2.178-.003.008 9.381 2.17zm11.503 24.227l-2.464 9.307.031.009 2.433-9.316zm16.923-4.733l5.175 8.119 1.212-.772.933-1.092-7.32-6.255zM123.069-8.422A136.794 136.794 0 0070.311 2.615l7.581 17.7a117.537 117.537 0 0145.332-9.481l-.155-19.256zM69.978 2.765C59.245 7.852 53.316 17.648 51.2 27.972c-2.095 10.23-.645 21.567 3.738 31.634 4.408 10.122 12.023 19.503 22.843 25.265 10.964 5.839 24.478 7.56 39.755 3.503l-4.944-18.611c-11.035 2.932-19.492 1.45-25.76-1.888-6.411-3.415-11.289-9.182-14.239-15.957-2.974-6.83-3.745-14.14-2.528-20.082 1.198-5.85 4.114-9.753 8.16-11.67L69.977 2.764zm46.769 85.784c13.082-2.321 26.948 1.598 37.055 11.782l13.667-13.565c-14.716-14.827-35.012-20.561-54.086-17.178l3.364 18.961zm37.042 11.769c15.731 15.91 16.6 40.986 2.438 57.644l14.671 12.473c20.69-24.337 19.277-60.704-3.417-83.656l-13.692 13.539zm8.036 73.35c3.866.71 7.95.067 11.911-1.235 4.057-1.334 8.625-3.57 13.763-6.79l-10.225-16.316c-4.265 2.672-7.401 4.106-9.551 4.813-2.246.738-2.873.506-2.423.589l-3.475 18.939zm25.661-8.017c.525-.328.868-.382 1.05-.391.204-.011.482.022.848.191.797.367 1.862 1.341 2.436 2.983l18.179-6.352c-2.154-6.163-6.637-11.395-12.562-14.122-6.162-2.837-13.553-2.761-20.15 1.358l10.199 16.333zm4.339 2.797c.911 2.592.168 5.03-3.463 11.999l17.078 8.899c2.885-5.54 8.655-15.6 4.553-27.279l-18.168 6.381zm-3.463 11.999c-1.674 3.213-4.102 7.755-5.262 12.752l18.756 4.356c.51-2.192 1.67-4.538 3.584-8.209l-17.078-8.899zm-5.265 12.76c-1.507 6.523-1.638 13.961 1.082 20.689 2.885 7.136 8.723 12.735 17.338 15.015l4.926-18.615c-2.636-.698-3.755-1.993-4.412-3.617-.821-2.032-1.078-5.218-.172-9.133l-18.762-4.339zm18.451 35.713c9.069 2.368 18.087-1.822 24.531-5.93l-10.349-16.238c-5.652 3.602-8.545 3.737-9.317 3.536l-4.865 18.632zm26.676-7.794c24.22-28.34 35.24-64.149 33.12-99.239l-19.22 1.162c1.831 30.32-7.693 61.174-28.539 85.567l14.639 12.51zm-.367-120.036a61.902 61.902 0 01-16.154 2.13v19.256c7.312 0 14.414-.97 21.174-2.796l-5.02-18.59zm-16.154 2.13c-34.121 0-61.78-27.66-61.78-61.78h-19.256c0 44.755 36.281 81.036 81.036 81.036V103.22zm-61.78-61.78c0-3.32.272-6.645.793-9.906L131.7 28.5a82.18 82.18 0 00-1.033 12.94h19.256zm111.421 80.447c-.539-8.939-5.99-15.334-12.497-18.701-6.312-3.266-13.991-3.987-20.99-2.096l5.02 18.59c2.589-.699 5.295-.336 7.12.608 1.63.843 2.068 1.785 2.127 2.761l19.22-1.162zM123.224 10.834c2.377-.02 4.558 1.139 6.395 4.433 1.951 3.498 2.834 8.512 2.081 13.233l19.016 3.034c1.37-8.59-.037-18.037-4.278-25.644-4.354-7.81-12.265-14.401-23.369-14.312l.155 19.256z" fill="#428EF1"/></g><path d="M31.16 108.034a6.419 6.419 0 100-12.838 6.419 6.419 0 000 12.838zm93.101 112.329a6.419 6.419 0 10-.002-12.838 6.419 6.419 0 00.002 12.838zm-39.313 9.624c5.76 0 10.43-4.67 10.43-10.431 0-5.76-4.67-10.43-10.43-10.43s-10.43 4.67-10.43 10.43c0 5.761 4.67 10.431 10.43 10.431z" fill="#428EF1"/></svg>