<svg width="256" height="256" fill="none" xmlns="http://www.w3.org/2000/svg"><path d="M188.309 151.686C228.597 159.199 256 173.988 256 191.008c0 24.63-57.312 44.571-128 44.571S0 215.627 0 191.008c0-17.02 27.413-31.809 67.69-39.322 17.505 4.592 38.177 7.233 60.31 7.233 22.133 0 42.805-2.641 60.309-7.222v-.011zM172.885 79.5c34.219 5.756 57.792 17.86 57.792 31.884 0 19.564-45.973 35.43-102.677 35.43-56.704 0-102.677-15.866-102.677-35.43 0-14.013 23.573-26.128 57.792-31.884 13.152 3.374 28.49 5.303 44.885 5.303s31.733-1.94 44.885-5.303zM128.469 20c42.464 0 76.896 12.008 76.896 26.829 0 14.81-34.432 26.818-76.896 26.818S51.573 61.639 51.573 46.829C51.573 32.008 86.005 20 128.47 20z" fill="#fff"/></svg>