<svg width="256" height="256" fill="none" xmlns="http://www.w3.org/2000/svg"><path d="M78.093 150.686l45.37 45.36a6.412 6.412 0 009.071 0l45.37-45.36a6.412 6.412 0 019.071 0l19.965 19.953a6.419 6.419 0 010 9.072l-74.406 74.411a6.419 6.419 0 01-9.071 0L49.07 179.711a6.414 6.414 0 010-9.072l19.965-19.953a6.414 6.414 0 019.07 0h-.012zm155.175-47.926l.886.745 19.964 19.953a6.413 6.413 0 01.745 8.186l-.745.898-19.964 19.953a6.418 6.418 0 01-8.186.745l-.886-.745-19.964-19.965a6.42 6.42 0 01-.732-8.174l.732-.898 19.964-19.953a6.416 6.416 0 017.211-1.296l.975.551zm-202.34.745l19.964 19.953a6.414 6.414 0 010 9.072l-19.965 19.978a6.415 6.415 0 01-9.071 0L1.878 132.53a6.418 6.418 0 010-9.072l19.965-19.953a6.415 6.415 0 014.536-1.879c1.7 0 3.345.676 4.548 1.879zm100.721-.745l.898.745 19.952 19.953a6.417 6.417 0 01.744 8.186l-.744.898-19.952 19.953a6.415 6.415 0 01-8.186.745l-.898-.745-19.952-19.965a6.416 6.416 0 01-.744-8.174l.744-.898 19.952-19.953a6.413 6.413 0 017.211-1.296l.975.551zm.898-100.882l74.393 74.398a6.419 6.419 0 010 9.072l-19.965 19.966a6.415 6.415 0 01-9.071 0l-45.357-45.36a6.418 6.418 0 00-7.001-1.395 6.418 6.418 0 00-2.083 1.395l-45.357 45.36a6.414 6.414 0 01-9.071 0L49.07 85.348a6.416 6.416 0 010-9.072l74.393-74.398A6.414 6.414 0 01127.998 0c1.701 0 3.346.676 4.549 1.878z" fill="#F3BA2F"/></svg>