<svg width="256" height="256" fill="none" xmlns="http://www.w3.org/2000/svg"><path d="M225.535 49c-2.867 31.64-33.856 27.669-33.856 27.669V49h-31.067v27.669H93.545V49H63.124v27.582c-30.56 1.88-32.565-26.998-32.565-26.998H0v1.271c-.001 14.639 5.644 28.7 15.733 39.193 10.09 10.492 23.828 16.588 38.292 16.989l8.815.244v39.409a60.918 60.918 0 004.535 23.081 60.354 60.354 0 0012.922 19.567 59.547 59.547 0 0019.34 13.073A59 59 0 00122.453 207h9.684c15.795-.048 30.93-6.418 42.099-17.718 11.169-11.3 17.465-26.612 17.513-42.592v-39.627h9.184c14.591 0 28.585-5.864 38.902-16.302 10.317-10.438 16.113-24.595 16.113-39.357V49h-30.412zm-64.777 94.311a34.226 34.226 0 01-2.391 13.123 33.912 33.912 0 01-7.218 11.17 33.459 33.459 0 01-10.924 7.481 33.125 33.125 0 01-25.863 0 33.444 33.444 0 01-10.923-7.481 33.892 33.892 0 01-7.218-11.17 34.207 34.207 0 01-2.392-13.123V106.41h66.929v36.901z" fill="#2660AD"/></svg>