<svg width="256" height="256" fill="none" xmlns="http://www.w3.org/2000/svg"><path d="M.183 167.404c-2.048-35.943 13.282-77.025 43.93-107.838C112.557-9.246 253.531 1.024 254.555 1.024c0 1.024-104.202 152.003-226.795 165.346-8.172 1.034-18.381 1.034-27.577 1.034z" fill="#03CA9B"/><path d="M15.502 213.617c3.062 5.13 7.147 11.294 12.257 15.401 41.882 42.106 117.484 33.894 169.585-17.46C264.774 143.78 255.579 0 255.579 0c0 1.024-74.578 168.428-193.086 204.37-15.319 6.164-31.662 8.223-46.991 9.247z" fill="#03CA9B"/></svg>