<svg width="256" height="256" fill="none" xmlns="http://www.w3.org/2000/svg"><g clip-path="url(#prefix__clip0_1431_755)"><path d="M128 256c70.692 0 128-57.308 128-128C256 57.308 198.692 0 128 0 57.308 0 0 57.307 0 128c0 70.692 57.307 128 128 128z" fill="#1DA2B4"/><path fill-rule="evenodd" clip-rule="evenodd" d="M94.72 42.498c2.253-2.458 5.53-3.789 8.807-3.789h21.708c2.765 0 4.199 3.277 2.253 5.222L84.583 89.704h23.654l24.064 25.498H84.583l47.718 51.097h-28.877c-3.379 0-6.553-1.433-8.806-3.788l-48.435-51.815c-4.301-4.608-4.301-11.776 0-16.384l48.435-51.814h.102z" fill="#fff"/><path fill-rule="evenodd" clip-rule="evenodd" d="M161.28 213.506c-2.253 2.457-5.53 3.788-8.806 3.788h-21.709c-2.765 0-4.199-3.276-2.253-5.222l42.906-45.773h-23.655l-24.064-25.497h47.719l-47.719-51.098h28.877c3.379 0 6.554 1.434 8.806 3.789l48.436 51.814c4.3 4.608 4.3 11.776 0 16.384l-48.436 51.815h-.102z" fill="#fff"/></g><defs><clipPath id="prefix__clip0_1431_755"><path fill="#fff" d="M0 0h256v256H0z"/></clipPath></defs></svg>