<svg width="196" height="256" fill="none" xmlns="http://www.w3.org/2000/svg"><path d="M2.022 103.209c-4.311 9.943.358 21.566 10.301 25.764 2.755 1.198 5.755 1.679 8.868 1.557h6.953l19.773-69.151H14.125l-12.103 41.83z" fill="#D62817"/><path d="M188.736 88.116c-9.103-18.217-25.047-26.962-47.575-26.962H99.218l-19.65 69.509h29.839c4.792-.717 9.472 1.802 11.387 6.236 2.161 6.707 1.915 14.019-.594 20.736a49.598 49.598 0 01-11.51 21.934c-4.198 4.434-9.943 6.953-16.056 6.83-5.038.594-9.83-2.273-11.745-6.953-1.915-7.188-1.434-14.858 1.32-21.811l36.557-128.952c2.397-6.83 1.444-14.264-2.631-20.255-4.076-5.632-10.783-8.745-17.736-8.386H57.777L9.577 169.84c-26.368 92.877 66.99 86.047 66.99 86.047s84.972 1.915 113.009-96.594c8.151-29 7.905-52.971-.84-71.178z" fill="#EC7000"/><path d="M189.576 158.936c8.274-28.765 8.028-52.614-.84-70.708-9.103-18.094-25.047-26.726-47.575-26.726H109.52l-19.65 69.151h19.414c4.792-.717 9.462 1.802 11.387 6.113 2.161 6.707 1.915 13.906-.594 20.49" fill="url(#prefix__paint0_linear_1431_740)"/><defs><linearGradient id="prefix__paint0_linear_1431_740" x1="160.089" y1="143.227" x2="136.622" y2="104.878" gradientUnits="userSpaceOnUse"><stop stop-color="#D62616" stop-opacity="0"/><stop offset="1" stop-color="#D62616"/></linearGradient></defs></svg>