<svg width="226" height="256" fill="none" xmlns="http://www.w3.org/2000/svg"><g clip-path="url(#prefix__clip0_1432_811)"><path fill-rule="evenodd" clip-rule="evenodd" d="M145.124 239.933l-24.115 13.927c-5.13 2.959-11.213 2.764-16.005.01l-.01.02-48.487-27.996a17.678 17.678 0 01-.86-.532L7.99 197.847a15.989 15.989 0 01-7.977-13.875h-.03v-55.993c0-.327.01-.655.03-.973v-8.396l32.03-18.494v26.89c.021.338.032.676.032 1.014v46.736l113.049 65.177z" fill="url(#prefix__paint0_linear_1432_811)"/><path fill-rule="evenodd" clip-rule="evenodd" d="M193.766 44.155l24.248 14.009a15.989 15.989 0 017.977 13.875h.031v55.992c0 .328-.011.645-.031.973v54.958c.01 5.939-3.216 11.131-8.008 13.906l-56.596 32.676-32.041-18.504 64.614-37.304-.194-130.58z" fill="url(#prefix__paint1_linear_1432_811)"/><path fill-rule="evenodd" clip-rule="evenodd" d="M121.008 2.12l48.486 27.986c.297.174.584.348.86.532l7.137 4.116v36.987l-23.152-13.363a17.198 17.198 0 01-.86-.46l-40.51-23.389L.012 99.82V72.05c-.01-5.94 3.215-11.131 8.007-13.906L104.992 2.15c5.13-2.959 11.213-2.764 16.005-.01l.011-.02z" fill="url(#prefix__paint2_linear_1432_811)"/><path d="M112.817 193.977c-13.025 0-24.822-5.284-33.362-13.824-8.54-8.54-13.824-20.337-13.824-33.362 0-21.453.102-42.834.02-64.553l27.996-16.159-.297 37.427-.01.297a47.048 47.048 0 0119.477-4.198c13.025 0 24.822 5.284 33.362 13.824 8.54 8.54 13.824 20.337 13.824 33.362 0 13.025-5.284 24.822-13.824 33.362-8.54 8.54-20.337 13.824-33.362 13.824zm-13.814-33.372a19.482 19.482 0 0013.814 5.724 19.438 19.438 0 0013.814-5.724 19.484 19.484 0 005.724-13.814 19.482 19.482 0 00-5.724-13.814 19.48 19.48 0 00-13.814-5.724 19.478 19.478 0 00-13.814 5.724 19.479 19.479 0 00-5.724 13.814 19.438 19.438 0 005.724 13.814z" fill="url(#prefix__paint3_linear_1432_811)"/></g><defs><linearGradient id="prefix__paint0_linear_1432_811" x1="72.552" y1="256.007" x2="72.552" y2="100.12" gradientUnits="userSpaceOnUse"><stop stop-color="#E9AF21"/><stop offset="1" stop-color="#F8C42F"/></linearGradient><linearGradient id="prefix__paint1_linear_1432_811" x1="177.688" y1="230.562" x2="177.688" y2="44.178" gradientUnits="userSpaceOnUse"><stop stop-color="#E9AF21"/><stop offset="1" stop-color="#F8C42F"/></linearGradient><linearGradient id="prefix__paint2_linear_1432_811" x1="88.736" y1="99.815" x2="88.736" y2="-.008" gradientUnits="userSpaceOnUse"><stop stop-color="#E9AF21"/><stop offset="1" stop-color="#F8C42F"/></linearGradient><linearGradient id="prefix__paint3_linear_1432_811" x1="112.817" y1="193.979" x2="112.817" y2="66.084" gradientUnits="userSpaceOnUse"><stop stop-color="#E9AF21"/><stop offset="1" stop-color="#F8C42F"/></linearGradient><clipPath id="prefix__clip0_1432_811"><path fill="#fff" d="M0 0h226v256H0z"/></clipPath></defs></svg>