<svg width="256" height="256" fill="none" xmlns="http://www.w3.org/2000/svg"><path d="M236.669 184.874c0-29.133-16.433-52.55-42.929-62.016 20.065-9.465 34.117-29.133 34.117-54.517 0-39.644-32.391-67.363-78.059-67.363l-130.872.061v33.743c20.601 0 37.213 17.148 37.213 38.414 0 21.266-16.612 38.415-37.213 38.415v30.362c20.601 0 37.213 17.148 37.213 38.414 0 21.267-16.612 38.415-37.213 38.415v36.816h136.529c46.918 0 80.976-28.765 80.976-70.375l.238-.369zM89.185 37.671h53.825c21.971 0 37.75 14.812 37.75 35.525s-15.779 35.219-37.75 35.219H89.185V37.671zm0 180.946v-76.828h58.648c24.234 0 40.667 15.55 40.667 38.23 0 22.679-16.433 38.598-40.667 38.598H89.185z" fill="#34BCA0"/></svg>