<svg width="256" height="256" fill="none" xmlns="http://www.w3.org/2000/svg"><path d="M158.128 223.898c-14.916 10.547-23.74 23.739-19.609 29.457 4.13 5.717 19.404 1.826 34.321-8.704 14.916-10.53 23.705-23.723 19.609-29.457-1.263-1.707-3.635-2.646-6.741-2.646-6.827 0-17.323 4.113-27.58 11.35zm-81.92-22.528c-28.825 11.963-48.81 29.696-44.663 39.765 4.147 10.069 30.873 8.619 59.733-3.277 28.86-11.895 48.759-29.645 44.612-39.782-1.86-4.506-8.192-6.69-17.203-6.69-11.196 0-26.522 3.413-42.479 9.984zm132.164-11.947c-5.12 9.711-6.69 18.91-3.567 20.48 3.124 1.57 9.746-4.915 14.831-14.626 5.086-9.711 6.691-18.91 3.567-20.48a2.145 2.145 0 00-1.058-.239c-3.413 0-9.216 6.161-13.773 14.865zm-41.625-26.897c-9.882 5.7-15.036 15.257-11.537 21.333 3.498 6.076 14.336 6.366 24.217.666 9.882-5.7 15.036-15.258 11.537-21.334-1.826-3.157-5.632-4.761-10.24-4.761a28.688 28.688 0 00-13.96 4.096m36.523-12.954c-2.868 4.967-2.68 10.462.426 12.254 3.106 1.792 7.953-.768 10.82-5.751 2.868-4.984 2.68-10.462-.443-12.254a4.276 4.276 0 00-2.202-.58c-2.901 0-6.349 2.423-8.533 6.331m-36.864-21.316c0 5.939 5.461 10.769 12.202 10.769 6.742 0 12.203-4.83 12.203-10.769s-5.461-10.769-12.203-10.769c-6.741 0-12.202 4.813-12.202 10.769zm-81.46 0c0 13.329 15.036 24.132 33.588 24.132 18.551 0 33.553-10.735 33.553-24.132 0-13.397-15.002-24.149-33.553-24.149-18.552 0-33.587 10.82-33.587 24.149zm119.024-34.133c-3.107 1.706-3.294 7.287-.427 12.254 2.867 4.966 7.697 7.56 10.82 5.751 3.123-1.809 3.294-7.27.427-12.254-2.253-3.891-5.718-6.332-8.534-6.332a4.488 4.488 0 00-2.218.58m-48.538-21.981c-3.413 6.075 1.707 15.633 11.537 21.333 9.831 5.7 20.719 5.41 24.218-.666 3.499-6.075-1.707-15.616-11.537-21.333a28.704 28.704 0 00-13.978-4.079c-4.625 0-8.431 1.588-10.24 4.745zm49.152-26.061c-3.106 1.707-1.519 10.837 3.567 20.48s11.725 16.264 14.848 14.626c3.123-1.638 1.502-10.837-3.584-20.48-4.557-8.704-10.376-14.865-13.773-14.865-.366 0-.727.081-1.058.239zM31.545 14.933C27.397 25.003 47.4 42.82 76.208 54.716c28.809 11.895 55.484 13.363 59.682 3.31 4.199-10.052-15.855-27.903-44.663-39.799-15.958-6.588-31.215-9.984-42.48-9.984-9.01 0-15.36 2.202-17.202 6.69zm106.82-12.288c-4.045 5.735 4.779 18.91 19.695 29.457 14.916 10.548 30.293 14.439 34.321 8.704 4.028-5.734-4.779-18.91-19.729-29.457C162.412 4.113 151.967 0 145.106 0c-3.106 0-5.478.853-6.826 2.645" fill="url(#prefix__paint0_linear_1433_941)"/><defs><linearGradient id="prefix__paint0_linear_1433_941" x1="30.998" y1="128" x2="224.791" y2="128" gradientUnits="userSpaceOnUse"><stop stop-color="#003AFF"/><stop offset=".25" stop-color="#0067FF"/><stop offset=".8" stop-color="#02D6FF"/><stop offset="1" stop-color="#02FFFF"/></linearGradient></defs></svg>