<svg width="256" height="256" fill="none" xmlns="http://www.w3.org/2000/svg"><path d="M177.758 143.229V82.645h12.084v60.584h-12.084z" fill="#F7A600"/><path d="M36.956 161.218h-25.9v-60.573h24.86c12.075 0 19.123 6.641 19.123 17.018 0 6.726-4.52 11.056-7.656 12.509 3.734 1.698 8.517 5.528 8.517 13.613 0 11.301-7.909 17.433-18.944 17.433zm-1.994-50.017H23.131v13.952h11.831c5.13 0 8.003-2.811 8.003-6.981 0-4.169-2.874-6.971-8.003-6.971zm.777 24.584H23.131v14.886H35.73c5.485 0 8.087-3.405 8.087-7.49 0-4.085-2.612-7.396-8.078-7.396zM92.75 136.37v24.848h-12V136.37l-18.598-35.725h13.132l11.55 24.414 11.392-24.414h13.122L92.75 136.37zM145.596 161.218h-25.899v-60.573h24.86c12.075 0 19.123 6.641 19.123 17.018 0 6.726-4.521 11.056-7.657 12.509 3.735 1.698 8.518 5.528 8.518 13.613 0 11.301-7.9 17.433-18.945 17.433zm-1.993-50.017h-11.822v13.952h11.822c5.129 0 8.002-2.811 8.002-6.981-.009-4.169-2.882-6.971-8.002-6.971zm.777 24.584h-12.599v14.886h12.599c5.485 0 8.087-3.405 8.087-7.49 0-4.085-2.612-7.396-8.087-7.396zM228.78 111.201v50.027h-12.084v-50.027h-16.165v-10.556h44.413v10.556H228.78z" fill="#fff"/></svg>