<svg width="256" height="148" viewBox="0 0 256 148" fill="none" xmlns="http://www.w3.org/2000/svg">
<g clip-path="url(#clip0_2147_5446)">
<path d="M45.1882 148.101C70.1115 148.101 90.3158 128.01 90.3158 103.225C90.3158 78.4412 70.1115 58.3496 45.1882 58.3496C20.2649 58.3496 0.0605469 78.4412 0.0605469 103.225C0.0605469 128.01 20.2649 148.101 45.1882 148.101Z" fill="#444444"/>
<path d="M210.452 148.101C235.375 148.101 255.579 128.01 255.579 103.225C255.579 78.4412 235.375 58.3496 210.452 58.3496C185.529 58.3496 165.324 78.4412 165.324 103.225C165.324 128.01 185.529 148.101 210.452 148.101Z" fill="#DDDDDD"/>
<mask id="mask0_2147_5446" style="mask-type:alpha" maskUnits="userSpaceOnUse" x="16" y="-2" width="223" height="111">
<path d="M238.502 -1.69043H16.5234V108.074H238.502V-1.69043Z" fill="#C4C4C4"/>
</mask>
<g mask="url(#mask0_2147_5446)">
<mask id="mask1_2147_5446" style="mask-type:alpha" maskUnits="userSpaceOnUse" x="17" y="-1" width="221" height="305">
<path fill-rule="evenodd" clip-rule="evenodd" d="M127.551 -0.0205078C66.6359 -0.0205078 17.2539 47.6422 17.2539 106.437V303.421H72.5645V111.524C72.5645 82.213 97.1825 58.452 127.55 58.452C157.918 58.452 182.537 82.213 182.537 111.524V303.421H237.849V106.437C237.849 47.6422 188.467 -0.0205078 127.551 -0.0205078Z" fill="#E9BCFF"/>
</mask>
<g mask="url(#mask1_2147_5446)">
<path d="M17.2559 109.662C17.2559 49.086 66.6379 -0.0205078 127.553 -0.0205078C188.469 -0.0205078 237.851 49.086 237.851 109.662V303.421H17.2559V109.662Z" fill="#E9BCFF"/>
<path d="M29.7676 111.345C29.7676 57.5597 73.6136 13.958 127.701 13.958C181.789 13.958 225.635 57.5597 225.635 111.345V322.844H29.7676V111.345Z" fill="#2C98F3"/>
<path d="M42.6309 111.093C42.6309 65.1705 80.0679 27.9424 126.249 27.9424C172.429 27.9424 209.866 65.1705 209.866 111.093V353.989H42.6309V111.093Z" fill="#58C971"/>
<path d="M58.25 112.748C58.25 74.6874 89.2771 43.833 127.552 43.833C165.826 43.833 196.854 74.6874 196.854 112.748V392.76H58.25V112.748Z" fill="#FFCA42"/>
</g>
</g>
</g>
<defs>
<clipPath id="clip0_2147_5446">
<rect width="256" height="148" fill="white"/>
</clipPath>
</defs>
</svg>
