<svg width="256" height="256" fill="none" xmlns="http://www.w3.org/2000/svg"><circle cx="128" cy="128" r="127.475" fill="url(#prefix__paint0_linear_2152_524)" stroke="url(#prefix__paint1_linear_2152_524)" stroke-width="1.049"/><circle cx="128.002" cy="128" r="115.41" fill="#D8E3F9"/><path d="M128 12.59c63.739 0 115.41 51.67 115.41 115.41H128V12.59z" fill="url(#prefix__paint2_linear_2152_524)"/><mask id="prefix__a" style="mask-type:alpha" maskUnits="userSpaceOnUse" x="12" y="12" width="232" height="232"><circle cx="128" cy="128" r="115.41" fill="#D8E3F9"/></mask><g mask="url(#prefix__a)"><path d="M242.471 141.547c-2.751 45.742-34.011 84.793-78.041 97.491l-25.264 7.286-24.106-.001-21.81-3.565-16.07-4.409-12.627-5.695 63.129-91.239 114.789.132z" fill="url(#prefix__paint3_linear_2152_524)"/></g><path d="M118.559 14.69c-22.147 0-43.737 7.35-61.738 21.02-18 13.67-31.505 32.97-38.617 55.19-7.112 22.221-7.474 46.243-1.034 68.692 6.44 22.449 19.356 42.197 36.935 56.468l64.454-89.108V14.689z" fill="url(#prefix__paint4_angular_2152_524)"/><defs><linearGradient id="prefix__paint0_linear_2152_524" x1="128" y1="0" x2="128" y2="256" gradientUnits="userSpaceOnUse"><stop stop-color="#FDFDFD"/><stop offset="1" stop-color="#121518"/></linearGradient><linearGradient id="prefix__paint1_linear_2152_524" x1="128" y1="0" x2="128" y2="256" gradientUnits="userSpaceOnUse"><stop stop-color="#575454"/><stop offset="1" stop-color="#575454" stop-opacity="0"/></linearGradient><linearGradient id="prefix__paint2_linear_2152_524" x1="212.984" y1="50.36" x2="128" y2="128" gradientUnits="userSpaceOnUse"><stop stop-color="#6CBCFE"/><stop offset="1" stop-color="#215188"/></linearGradient><linearGradient id="prefix__paint3_linear_2152_524" x1="182.409" y1="227.069" x2="128.386" y2="117.272" gradientUnits="userSpaceOnUse"><stop stop-color="#020B9D"/><stop offset="1" stop-color="#3469FD"/></linearGradient><radialGradient id="prefix__paint4_angular_2152_524" cx="0" cy="0" r="1" gradientUnits="userSpaceOnUse" gradientTransform="rotate(93.945 .03 118.808) scale(30.4985 28.7883)"><stop stop-color="#D2DAFE"/><stop offset=".087" stop-color="#D8E3F9" stop-opacity=".24"/><stop offset="1" stop-color="#8894AA"/></radialGradient></defs></svg>