<svg width="256" height="256" fill="none" xmlns="http://www.w3.org/2000/svg"><g clip-path="url(#prefix__clip0_1433_827)" fill-rule="evenodd" clip-rule="evenodd" fill="#7650FF"><path d="M196.453 75.684l15.339 15.299-31.437 31.119-45.742-45.138-45.742 45.138-66.713-66.058C-11.83 105.78-6.72 174.388 37.498 218.512 62.543 243.508 95.25 256 128.212 256c29.389 0 59.034-10.199 82.801-30.095l-28.621-28.57c-34.498 26.778-84.593 24.484-116.285-7.137-16.354-16.322-25.047-37.744-25.56-59.167l48.559 47.944 45.486-45.394 45.742 45.138 60.058-59.167 15.585 15.565V75.684h-59.525z"/><path d="M210.77 30.035C161.7-11.284 88.617-10.004 40.816 34.12l28.621 28.314c16.62-14.797 37.571-22.446 58.522-22.446 19.169 0 38.082 6.123 53.924 18.36l28.887-28.313z"/></g><defs><clipPath id="prefix__clip0_1433_827"><path fill="#fff" d="M0 0h256v256H0z"/></clipPath></defs></svg>