<svg width="257" height="256" fill="none" xmlns="http://www.w3.org/2000/svg"><g clip-path="url(#prefix__clip0_1433_880)"><path d="M128.89 255.987c70.466 0 127.59-57.124 127.59-127.591C256.48 57.93 199.356.806 128.89.806 58.423.806 1.299 57.93 1.299 128.396c0 70.467 57.124 127.591 127.591 127.591z" fill="#9C7C4D"/><path d="M65.132 238.913A127.62 127.62 0 0116.376 65.139a127.622 127.622 0 01173.775-48.756c1.299.754 2.702 1.495 3.962 2.287" fill="#B39262"/><path d="M128.891 227.662a99.27 99.27 0 01-70.525-169.32 99.266 99.266 0 01169.596 69.859v.429a99.383 99.383 0 01-99.071 99.032zm0-180.693a81.442 81.442 0 00-79.874 97.333 81.44 81.44 0 00161.313-15.906 81.425 81.425 0 00-81.439-81.427z" fill="#FFDFAE"/><path d="M120.691 82.558h17.827v89.391h-17.827V82.558z" fill="#FFDFAE"/></g><defs><clipPath id="prefix__clip0_1433_880"><path fill="#fff" d="M0 0h256.494v256H0z"/></clipPath></defs></svg>