<svg width="256" height="256" fill="none" xmlns="http://www.w3.org/2000/svg"><g clip-path="url(#prefix__clip0_1431_762)"><path d="M136.141 5.181c0-2.222.737-4.433 1.474-5.181L256 118.385c-.737.737-1.475 1.474-2.959 1.474h-42.916c-6.656-.737-14.797-4.444-19.241-8.878l-45.875-45.875c-5.182-5.181-8.878-14.797-8.878-21.453l.01-38.472zm76.206 131.697c-6.656 0-17.019 3.697-21.453 8.878l-45.875 45.875c-5.182 5.182-8.878 14.797-8.878 21.453v38.472c0 2.222.737 2.959 1.474 4.444L256 137.615c-.737-.737-2.959-.737-4.444-.737h-39.209zM42.916 119.859c6.656 0 17.019-3.696 21.453-8.878l46.612-45.875c5.182-5.181 8.878-14.797 8.878-21.453V5.181c0-2.222-.737-4.433-1.474-5.181L0 118.385c.737.737 2.96 1.474 5.181 1.474h37.735zm76.206 93.225c0-6.656-3.697-17.019-8.878-21.453l-45.875-45.875c-5.182-5.181-14.797-8.878-21.453-8.878H4.444c-2.222 0-3.696 0-4.444.737L118.385 256c.737-.737.737-2.222.737-4.444v-38.472zm59.935-90.265l-45.876-45.876c-2.959-2.959-7.393-2.959-10.362 0L76.943 122.82c-2.959 2.959-2.959 7.393 0 10.362l45.876 45.876c2.959 2.959 7.393 2.959 10.362 0l45.876-45.876c2.959-2.222 2.959-7.403 0-10.362z" fill="url(#prefix__paint0_linear_1431_762)"/></g><defs><linearGradient id="prefix__paint0_linear_1431_762" x1="209.146" y1="61.608" x2="46.372" y2="194.787" gradientUnits="userSpaceOnUse"><stop stop-color="#50FEBE"/><stop offset="1" stop-color="#0ADCDC"/></linearGradient><clipPath id="prefix__clip0_1431_762"><path fill="#fff" d="M0 0h256v256H0z"/></clipPath></defs></svg>