<svg width="250" height="256" fill="none" xmlns="http://www.w3.org/2000/svg"><path d="M220.059 128.379s-17.305 25.539-30.433 41.954c-16.466 19.753-34.55 32.102-61.706 32.102-39.506 0-72.438-32.102-72.438-71.608v-2.448c-.84-39.505 30.433-73.267 69.939-74.055h2.448c27.146 0 44.451 11.52 61.706 32.102 14.059 16.415 30.484 41.114 30.484 41.953l29.655-41.164c-22.21-66.663-94.648-102.882-162.13-80.681-67.491 22.2-102.87 94.689-80.67 162.181 22.2 67.492 94.638 102.871 162.119 80.671 37.837-12.35 68.322-42.783 80.671-80.671l-29.645-40.336z" fill="url(#prefix__paint0_angular_1433_899)"/><defs><radialGradient id="prefix__paint0_angular_1433_899" cx="0" cy="0" r="1" gradientUnits="userSpaceOnUse" gradientTransform="matrix(139.49382 37.99978 -37.0223 135.90558 125.007 128)"><stop offset="0" stop-color="#003FFF"/><stop offset=".307" stop-color="#0047FF"/><stop offset=".933" stop-color="#00B3FF"/></radialGradient></defs></svg>