<svg width="256" height="256" fill="none" xmlns="http://www.w3.org/2000/svg"><g clip-path="url(#prefix__clip0_1431_765)"><path d="M128 0L17.111 64v128L128 256l110.889-64V64L128 0zm0 0L17.111 64v128L128 256l110.889-64V64L128 0z" fill="#fff"/><path d="M171.776 205.998h-15.78l-18.882-17.336v-8.889l19.558-18.667v-29.553l25.559-16.67 29.113 21.995-39.568 69.12zm-65.331-46.664l2.888-27.781-9.554-24.893h56.443l-9.339 24.893 2.672 27.781h-43.11zm12.892 29.328l-18.893 17.551H84.439l-39.782-69.335 29.338-21.78 25.774 16.445v29.553l19.558 18.667.01 8.899zM84.224 55.337h87.337l10.445 44.442H74.005l10.22-44.442zM128 0L17.111 64v128L128 256l110.889-64V64L128 0z" fill="#03316C"/></g><defs><clipPath id="prefix__clip0_1431_765"><path fill="#fff" d="M0 0h256v256H0z"/></clipPath></defs></svg>