<svg width="256" height="256" fill="none" xmlns="http://www.w3.org/2000/svg"><circle cx="128" cy="128" r="128" fill="#EA34B0"/><path d="M191.271 91.139H74.051v-42.76H85.11V38.06h10.321V27h74.46v11.058h11.058v11.059h10.322v42.022zM95.431 102.197h-31.7v31.701h10.32V229h53.081v-20.642h42.759v-10.322h11.058v-11.058h10.322v-63.401h-21.38v-10.322H159.57v-11.058h-21.38v11.058h-10.321v10.322h-22.117v-10.322h-10.32v-11.058z" fill="#fff"/><path d="M191.271 91.139H74.051v-42.76H85.11V38.06h10.321V27h74.46v11.058h11.058v11.059h10.322v42.022zM95.431 102.197h-31.7v31.701h10.32V229h53.081v-20.642h42.759v-10.322h11.058v-11.058h10.322v-63.401h-21.38v-10.322H159.57v-11.058h-21.38v11.058h-10.321v10.322h-22.117v-10.322h-10.32v-11.058z" stroke="#fff"/></svg>