<svg width="256" height="256" fill="none" xmlns="http://www.w3.org/2000/svg"><g clip-path="url(#prefix__clip0_1433_949)"><path d="M67.174 15.35L82.78 53.954C57.856 69.233 41.267 96.665 41.267 128.02c0 47.924 38.83 86.743 86.764 86.743 6.471 0 12.8-.727 18.893-2.068l15.605 38.605a128.099 128.099 0 01-34.468 4.71C57.313 256 0 198.697 0 128.02 0 79.34 27.177 36.997 67.174 15.35z" fill="#FE4040"/><path d="M67.174 15.35L82.78 53.954C57.856 69.233 41.267 96.665 41.267 128.02c0 47.924 38.83 86.743 86.764 86.743 6.471 0 12.8-.727 18.893-2.068l15.605 38.605a128.099 128.099 0 01-34.468 4.71C57.313 256 0 198.697 0 128.02 0 79.34 27.177 36.997 67.174 15.35z" fill="#FE4040"/><path d="M128 173.527c-25.118 0-45.496-20.367-45.496-45.507 0-25.139 20.378-45.506 45.496-45.506 17.726 0 33.055 10.107 40.571 24.893h43.704c-9.267-37.98-43.479-66.14-84.306-66.14-6.471 0-12.8.717-18.892 2.069L93.522 4.71C104.745 1.567 116.337 0 128 0c70.687 0 128 57.303 128 128.02 0 48.681-27.177 90.983-67.143 112.64l-15.606-38.604c19.241-11.797 33.556-30.884 39.055-53.412h-43.694c-2.744 5.396-6.574 10.199-11.182 14.121A45.613 45.613 0 01128 173.527z" fill="#00C46B"/></g><defs><clipPath id="prefix__clip0_1433_949"><path fill="#fff" d="M0 0h256v256H0z"/></clipPath></defs></svg>