<svg width="256" height="254" fill="none" xmlns="http://www.w3.org/2000/svg"><g clip-path="url(#prefix__clip0_2147_4743)"><path d="M156.016 221.712V30.065c41.17 12.306 71.274 50.593 71.274 95.86 0 45.267-30.104 83.553-71.274 95.859v-.072zM127.492-2.68v108.382l-16.31-16.336-2.083-40.733 17.028-51.24a129.205 129.205 0 00-31.47 4.317l-8.19 24.757-23.28-11.73C53.99 20.133 45.44 26.538 37.824 33.95l43.182 21.662 1.293 24.757-24.716-1.296-21.627-43.252c-7.4 7.629-13.867 16.121-19.183 25.405l11.711 23.317-24.716 8.204C1.11 102.823-.472 113.403-.543 124.27l51.157-17.057L91.28 109.3l16.31 16.337-16.31 16.336-40.666 2.087-51.157-17.056a129.821 129.821 0 004.311 31.522l24.716 8.204-11.711 23.317c5.388 9.212 11.783 17.776 19.183 25.404l21.627-43.252 24.716-1.295-1.293 24.756-43.182 21.662c7.616 7.413 16.095 13.89 25.363 19.216l23.28-11.731 8.19 24.756c10.059 2.663 20.621 4.247 31.47 4.319l-17.028-51.241 2.083-40.733 16.31-16.336v108.381c70.915 0 128.322-57.573 128.322-128.532 0-70.96-57.479-128.1-128.322-128.1z" fill="#FF00AF"/></g><defs><clipPath id="prefix__clip0_2147_4743"><path fill="#fff" d="M0 0h256v254H0z"/></clipPath></defs></svg>