<svg width="256" height="256" fill="none" xmlns="http://www.w3.org/2000/svg"><g clip-path="url(#prefix__clip0_1432_797)"><path d="M128 256c70.692 0 128-57.308 128-128C256 57.308 198.692 0 128 0 57.308 0 0 57.308 0 128c0 70.692 57.308 128 128 128z" fill="#1141F3"/><path d="M53.27 71.424h29.696v-30.13H53.27v30.13z" fill="#fff"/><path d="M141.114 41.347h-37.121v51.482h35.658a35.225 35.225 0 010 70.448h-35.658V92.829H53.27v121.93h87.844a86.004 86.004 0 0082.858-86.706 86.055 86.055 0 00-82.858-86.706z" fill="#fff"/></g><defs><clipPath id="prefix__clip0_1432_797"><path fill="#fff" d="M0 0h256v256H0z"/></clipPath></defs></svg>