<svg width="256" height="256" fill="none" xmlns="http://www.w3.org/2000/svg"><g clip-path="url(#prefix__clip0_2147_557)"><path d="M128.14 255.928c70.778 0 128.155-57.377 128.155-128.155 0-70.778-57.377-128.155-128.155-128.155C57.361-.382-.016 56.995-.016 127.773c0 70.778 57.377 128.155 128.156 128.155z" fill="#FFE804"/><path fill-rule="evenodd" clip-rule="evenodd" d="M146.904 61.681c.824-2.014 1.282-3.936 1.374-5.767.457-3.844-.458-6.865-2.747-7.78-2.197-.916-5.034.549-7.506 3.386v-.549c0-7.872-3.661-14.371-8.238-14.371s-8.239 6.407-8.239 14.371c0 .55 0 1.099.092 1.648-2.747-3.662-6.408-5.584-8.971-4.394-3.204 1.556-3.662 7.323-.916 12.999.458.915 1.465 2.563 2.106 3.387-35.243 5.492-55.29 33.32-57.853 79.09h19.68c2.106-37.715 21.604-59.135 54.101-59.135 29.109 0 50.896 20.505 50.621 59.135h19.681c.366-45.587-25.448-75.063-55.015-78.907.732-.916 1.281-1.923 1.83-3.113z" fill="#000"/><path fill-rule="evenodd" clip-rule="evenodd" d="M105.07 110.838v12.724c0 2.838 2.93 5.126 6.5 5.126s6.499-2.288 6.499-5.126v-12.724c0-2.838-2.929-5.126-6.499-5.126s-6.5 2.288-6.5 5.126zm40.095-5.126c-3.296 0-6.042 2.288-6.042 5.126v12.724c0 2.838 2.655 5.126 6.042 5.126 3.295 0 6.041-2.288 6.041-5.126v-12.724c0-2.838-2.746-5.126-6.041-5.126zM115.322 177.846c-.549 1.465-1.19 2.655-2.105 3.662-.915 1.007-1.922 1.831-3.204 2.38-1.19.549-2.563.915-3.936.915-1.373 0-2.746-.274-3.936-.915-1.19-.549-2.289-1.373-3.204-2.38-.915-1.099-1.648-2.289-2.105-3.662-.55-1.464-.733-3.02-.733-4.577 0-1.647.275-3.112.733-4.577.549-1.464 1.19-2.654 2.105-3.661.915-1.007 1.922-1.831 3.204-2.38 1.281-.549 2.563-.916 3.936-.916 1.373 0 2.746.275 3.936.916 1.19.549 2.289 1.373 3.204 2.38s1.556 2.197 2.105 3.661c.458 1.465.733 2.93.733 4.577a10.707 10.707 0 01-.733 4.577zm9.338-12.174c-.916-2.289-2.381-4.394-4.12-6.225-3.661-3.662-8.696-5.676-13.822-5.676-5.218 0-10.161 2.014-13.914 5.676-1.74 1.739-3.204 3.936-4.12 6.225a19.892 19.892 0 00-1.556 7.689c0 2.746.55 5.218 1.556 7.689 1.007 2.38 2.38 4.486 4.12 6.225 3.661 3.661 8.696 5.675 13.914 5.675s10.161-2.014 13.822-5.675c1.739-1.739 3.113-3.845 4.12-6.225a19.572 19.572 0 001.556-7.689c0-2.746-.55-5.309-1.556-7.689zm-53.276 12.174c-.458 1.282-1.099 2.563-1.923 3.662-.824 1.007-1.739 1.831-2.929 2.38-1.099.549-2.288.915-3.57.915h-5.95v-23.068h5.95c1.281 0 2.471.275 3.57.916a10.802 10.802 0 012.93 2.471c.823 1.007 1.464 2.289 1.922 3.662.457 1.465.732 2.929.732 4.577 0 1.648-.275 3.112-.732 4.485zm10.16-12.174c-.915-2.289-2.38-4.394-4.119-6.225-1.74-1.739-3.844-3.204-6.133-4.119a19.443 19.443 0 00-7.598-1.557H48.041v39.088h15.653c2.655 0 5.218-.458 7.598-1.465a19.034 19.034 0 006.133-4.119c1.74-1.739 3.112-3.845 4.12-6.225 1.006-2.38 1.464-4.943 1.464-7.598.092-2.837-.458-5.4-1.465-7.78zm115.889 12.174c-.549 1.465-1.19 2.655-2.105 3.662-.915 1.007-1.922 1.831-3.204 2.38-1.19.549-2.563.915-3.936.915-1.373 0-2.746-.274-3.936-.915-1.19-.549-2.289-1.373-3.204-2.38-.916-1.099-1.648-2.289-2.106-3.662-.549-1.464-.732-3.02-.732-4.577 0-1.647.275-3.112.732-4.577.55-1.464 1.19-2.654 2.106-3.661.915-1.007 2.014-1.831 3.204-2.38 1.19-.549 2.563-.916 3.936-.916 1.464 0 2.746.275 3.936.916 1.282.549 2.289 1.373 3.204 2.38s1.556 2.197 2.105 3.661c.55 1.465.733 2.93.733 4.577a10.707 10.707 0 01-.733 4.577zm9.246-12.174c-.916-2.289-2.38-4.394-4.119-6.225-3.662-3.662-8.697-5.676-13.823-5.676-5.218 0-10.161 2.014-13.914 5.676-1.739 1.739-3.204 3.936-4.119 6.225-1.007 2.38-1.556 5.034-1.465 7.689 0 2.746.458 5.218 1.465 7.689 1.007 2.38 2.38 4.486 4.119 6.225 3.662 3.661 8.696 5.675 13.914 5.675s10.161-2.014 13.823-5.675c1.739-1.739 3.112-3.845 4.119-6.225a19.555 19.555 0 001.556-7.689c0-2.746-.458-5.309-1.556-7.689zm-53.185 12.174c-.457 1.282-1.098 2.563-1.922 3.662-.824 1.007-1.739 1.831-2.929 2.38-1.099.549-2.289.915-3.57.915h-5.95v-23.068h5.95c1.281 0 2.471.275 3.57.916a10.81 10.81 0 012.929 2.471c.824 1.007 1.465 2.289 1.922 3.662.458 1.465.733 2.929.733 4.577-.092 1.648-.275 3.112-.733 4.485zm10.161-12.174c-.915-2.289-2.38-4.394-4.119-6.225-1.739-1.739-3.845-3.204-6.133-4.119a19.443 19.443 0 00-7.598-1.557h-15.653v39.088h15.653c2.655 0 5.218-.458 7.598-1.465a19.03 19.03 0 006.133-4.119c1.739-1.739 3.112-3.845 4.119-6.225 1.007-2.38 1.465-4.943 1.465-7.598.091-2.837-.458-5.4-1.465-7.78z" fill="#000"/></g><defs><clipPath id="prefix__clip0_2147_557"><path fill="#fff" d="M0 0h256v256H0z"/></clipPath></defs></svg>