<svg width="256" height="256" fill="none" xmlns="http://www.w3.org/2000/svg"><g clip-path="url(#prefix__clip0_2147_551)"><path d="M52.289.206h151.423c28.926 0 52.361 23.41 52.361 52.305v151.261c0 28.895-23.435 52.306-52.361 52.306H52.289c-28.926 0-52.361-23.411-52.361-52.306V52.512C-.072 23.615 23.363.205 52.288.205z" fill="url(#prefix__paint0_linear_2147_551)"/><path d="M161.71 59.58L62.195 199.532h30.54L192.759 59.58H161.71z" fill="#fff"/><path d="M95.93 59.58l29.266 41.222-15.284 22.506L64.74 59.58h31.19z" fill="url(#prefix__paint1_linear_2147_551)"/><path d="M164.681 199.53l-32.464-45.605 15.284-21.855 47.719 67.46h-30.539z" fill="url(#prefix__paint2_linear_2147_551)"/></g><defs><linearGradient id="prefix__paint0_linear_2147_551" x1="169.662" y1="-44.874" x2="106.814" y2="216.683" gradientUnits="userSpaceOnUse"><stop stop-color="#2C2C3D"/><stop offset="1" stop-color="#1A1A27"/></linearGradient><linearGradient id="prefix__paint1_linear_2147_551" x1="86.018" y1="70.692" x2="127.012" y2="121.107" gradientUnits="userSpaceOnUse"><stop stop-color="#fff"/><stop offset="1" stop-color="#fff" stop-opacity=".55"/></linearGradient><linearGradient id="prefix__paint2_linear_2147_551" x1="172.502" y1="188.303" x2="122.233" y2="119.265" gradientUnits="userSpaceOnUse"><stop stop-color="#6966FF"/><stop offset="1" stop-color="#6966FF" stop-opacity=".36"/></linearGradient><clipPath id="prefix__clip0_2147_551"><path fill="#fff" d="M0 0h256v256H0z"/></clipPath></defs></svg>