<svg width="256" height="255" fill="none" xmlns="http://www.w3.org/2000/svg"><path fill-rule="evenodd" clip-rule="evenodd" d="M201.487 70.302a6.404 6.404 0 006.4 6.41c3.534 0 6.4-2.87 6.4-6.41V39.54a6.405 6.405 0 00-6.4-6.41c-3.535 0-6.4 2.87-6.4 6.41v30.763zm-56.32 33.327a6.404 6.404 0 006.4 6.409c3.534 0 6.4-2.869 6.4-6.409V80.557a6.405 6.405 0 00-6.4-6.41c-3.535 0-6.4 2.87-6.4 6.41v23.072zm-71.68 94.854a6.405 6.405 0 006.4 6.409c3.534 0 6.4-2.87 6.4-6.409V167.72a6.404 6.404 0 00-6.4-6.409 6.404 6.404 0 00-6.4 6.409v30.763zm-55.04 19.227c-3.535 0-6.4-2.87-6.4-6.409v-17.945a6.404 6.404 0 016.4-6.409c3.535 0 6.4 2.869 6.4 6.409v17.945a6.405 6.405 0 01-6.4 6.409zm33.28 5.127a6.404 6.404 0 01-6.4-6.409v-23.072a6.404 6.404 0 016.4-6.409c3.535 0 6.4 2.869 6.4 6.409v23.072a6.404 6.404 0 01-6.4 6.409zm49.92-47.427a6.404 6.404 0 006.4 6.409c3.534 0 6.4-2.869 6.4-6.409v-17.945a6.405 6.405 0 00-6.4-6.409c-3.535 0-6.4 2.87-6.4 6.409v17.945zm78.08-85.88c-3.535 0-6.4-2.87-6.4-6.41V60.048a6.404 6.404 0 016.4-6.41c3.534 0 6.4 2.87 6.4 6.41V83.12c0 3.54-2.866 6.41-6.4 6.41zm49.92-34.61a6.404 6.404 0 006.4 6.41c3.534 0 6.4-2.87 6.4-6.41V39.54a6.405 6.405 0 00-6.4-6.41c-3.535 0-6.4 2.87-6.4 6.41V54.92z" fill="url(#prefix__paint0_linear_2147_2181)"/><path fill-rule="evenodd" clip-rule="evenodd" d="M.028 51.443c.462 7.064 6.556 12.415 13.61 11.952 22.111-1.452 76.09 9.822 104.052 69.559l.233.496.274.475c12.513 21.69 26.612 41.303 46.213 55.947 19.827 14.811 44.36 23.864 76.644 26.056 7.054.479 13.159-4.858 13.637-11.921.479-7.063-4.852-13.177-11.905-13.656-28.131-1.909-47.758-9.591-63.068-21.028-15.417-11.517-27.366-27.512-39.088-47.761-33.549-71.08-98.796-85.71-128.667-83.748-7.054.463-12.398 6.565-11.935 13.63z" fill="#5BB1E9"/><defs><linearGradient id="prefix__paint0_linear_2147_2181" x1="-12.267" y1="-1.479" x2="229.856" y2="98.297" gradientUnits="userSpaceOnUse"><stop offset=".016" stop-color="#6EE5B3"/><stop offset=".43" stop-color="#68D8E2"/><stop offset="1" stop-color="#4475F6"/></linearGradient></defs></svg>