<svg width="256" height="256" fill="none" xmlns="http://www.w3.org/2000/svg"><g clip-path="url(#prefix__clip0_1432_819)" fill-rule="evenodd" clip-rule="evenodd" fill="#F4BF7F"><path d="M0 137.758c0-43.427 34.57-78.643 77.21-78.643V177.5h21.473v-39.742h59.085c0 42.947-35.932 77.845-80.569 78.623 0 .041-.655.01-.737.01C33.874 216.944 0 179.23 0 137.758z"/><path d="M256 118.241c0 43.438-34.57 78.643-77.209 78.643V78.499h-21.474v39.742H98.232c0-42.947 35.933-77.845 80.569-78.623 0-.041.655-.01.737-.01C222.126 39.055 256 76.768 256 118.24z"/></g><defs><clipPath id="prefix__clip0_1432_819"><path fill="#fff" d="M0 0h256v256H0z"/></clipPath></defs></svg>