<svg width="256" height="256" fill="none" xmlns="http://www.w3.org/2000/svg"><g clip-path="url(#prefix__clip0_1419_368)"><path d="M95.724 200.981c.656-60.969 65.475-73.851 58.215-140.462-2.089-19.18-11.346-41.912-30.126-60.098-.983-.953-2.612-.154-2.489 1.198 5.663 61.194-37.509 90.204-56.914 115.701-43.049 56.556-11.407 129.065 52.398 138.66 1.414.215 2.274-1.505 1.26-2.509-13.097-12.974-22.344-29.46-22.344-52.49z" fill="#1F1F78"/><path d="M179.211 103.394a1.47 1.47 0 00-2.396.84c-1.546 7.905-6.472 20.961-22.262 43.837-40.898 59.249-21.135 85.576-3.276 105.38 3.932 4.69 1.976-1.044 10.342-6.84 11.243-7.783 16.005-8.766 26.665-18.248 12.155-12.175 22.016-31.344 22.968-50.77 2.069-42.189-22.753-66.314-32.041-74.199z" fill="#0173E5"/></g><defs><clipPath id="prefix__clip0_1419_368"><path fill="#fff" d="M0 0h256v256H0z"/></clipPath></defs></svg>