<svg width="256" height="255" fill="none" xmlns="http://www.w3.org/2000/svg"><g clip-path="url(#prefix__clip0_2147_4651)"><mask id="prefix__a" style="mask-type:luminance" maskUnits="userSpaceOnUse" x="0" y="0" width="255" height="255"><path d="M254.399 0H0v254.996h254.399V0z" fill="#fff"/></mask><g filter="url(#prefix__filter0_d_2147_4651)" mask="url(#prefix__a)"><path d="M24.354 200.544a130.02 130.02 0 0040.098 36.793 128.5 128.5 0 0051.469 16.994c-9.337-14.209-22.91-27.282-39.854-37.235-16.945-9.952-34.889-15.389-51.713-16.552z" fill="url(#prefix__paint0_linear_2147_4651)"/><path d="M98.834 177.465c-32.645-19.179-67.978-24.067-93.26-15.433a132.375 132.375 0 009.611 23.584c21.966-.514 45.948 5.519 68.264 18.626 22.316 13.108 39.385 31.198 49.829 50.754a129.259 129.259 0 0025.034-3.242c-5.111-26.483-26.841-55.105-59.478-74.289z" fill="url(#prefix__paint1_linear_2147_4651)"/><path d="M254.399 99.615a131.497 131.497 0 00-22.081-47.197 129.89 129.89 0 00-38.572-34.709 128.42 128.42 0 00-48.92-16.695 128.005 128.005 0 00-51.48 3.978c27.935 3.457 58.943 14.063 89.353 31.929 30.41 17.865 54.901 39.85 71.7 62.694z" fill="url(#prefix__paint2_linear_2147_4651)"/><path d="M213.754 162.227c-14.3-24.015-38.795-47.011-68.97-64.738-30.175-17.728-62.055-27.854-89.742-28.523-24.36-.584-42.641 6.577-50.145 19.642-.043.077-.103.15-.15.229a132.748 132.748 0 00-1.786 7.368c10.479-4.183 22.62-6.512 36.12-6.772 30.02-.57 63.618 9.14 94.622 27.356 31.004 18.216 56.008 42.932 70.384 69.579 6.445 12.005 10.466 23.825 12.06 35.118a124.072 124.072 0 005.44-5.212c.047-.082.077-.169.124-.255 7.504-13.077 4.602-32.681-7.957-53.792z" fill="url(#prefix__paint3_linear_2147_4651)"/><path d="M121.828 137.448C75.618 110.299 24.555 106.046 0 124.993c.048 5.93.497 11.85 1.342 17.719a100.684 100.684 0 0122.196-4.158c27.44-2.087 57.692 5.645 85.145 21.781 27.452 16.137 49.093 38.896 60.896 64.017a102.71 102.71 0 017.419 21.557 129.158 129.158 0 0015.893-7.594c4.111-30.96-24.841-73.714-71.063-100.867z" fill="url(#prefix__paint4_linear_2147_4651)"/><path d="M237.523 122.033c-14.461-23.99-39.171-47.05-69.56-64.894-30.388-17.845-62.392-28.13-90.17-28.956-21.174-.618-37.576 4.573-46.08 14.379 35.312-6.05 81.888 4.118 127.033 30.64 45.145 26.523 76.965 62.409 89.247 96.425 4.209-12.321.547-29.301-10.47-47.594z" fill="url(#prefix__paint5_linear_2147_4651)"/></g></g><defs><linearGradient id="prefix__paint0_linear_2147_4651" x1="169.414" y1="51.797" x2="50.561" y2="253.838" gradientUnits="userSpaceOnUse"><stop offset="0" stop-color="#C7F284"/><stop offset="1" stop-color="#00BEF0"/></linearGradient><linearGradient id="prefix__paint1_linear_2147_4651" x1="169.412" y1="51.796" x2="50.56" y2="253.837" gradientUnits="userSpaceOnUse"><stop offset="0" stop-color="#C7F284"/><stop offset="1" stop-color="#00BEF0"/></linearGradient><linearGradient id="prefix__paint2_linear_2147_4651" x1="169.414" y1="51.796" x2="50.562" y2="253.837" gradientUnits="userSpaceOnUse"><stop offset="0" stop-color="#C7F284"/><stop offset="1" stop-color="#00BEF0"/></linearGradient><linearGradient id="prefix__paint3_linear_2147_4651" x1="169.414" y1="51.795" x2="50.561" y2="253.836" gradientUnits="userSpaceOnUse"><stop offset="0" stop-color="#C7F284"/><stop offset="1" stop-color="#00BEF0"/></linearGradient><linearGradient id="prefix__paint4_linear_2147_4651" x1="169.414" y1="51.797" x2="50.562" y2="253.838" gradientUnits="userSpaceOnUse"><stop offset="0" stop-color="#C7F284"/><stop offset="1" stop-color="#00BEF0"/></linearGradient><linearGradient id="prefix__paint5_linear_2147_4651" x1="169.415" y1="51.796" x2="50.562" y2="253.837" gradientUnits="userSpaceOnUse"><stop offset="0" stop-color="#C7F284"/><stop offset="1" stop-color="#00BEF0"/></linearGradient><clipPath id="prefix__clip0_2147_4651"><path fill="#fff" d="M0 0h256v254.996H0z"/></clipPath><filter id="prefix__filter0_d_2147_4651" x="-22.745" y="-20.47" width="299.888" height="300.486" filterUnits="userSpaceOnUse" color-interpolation-filters="sRGB"><feFlood flood-opacity="0" result="BackgroundImageFix"/><feColorMatrix in="SourceAlpha" values="0 0 0 0 0 0 0 0 0 0 0 0 0 0 0 0 0 0 127 0" result="hardAlpha"/><feOffset dy="2.274"/><feGaussianBlur stdDeviation="11.372"/><feComposite in2="hardAlpha" operator="out"/><feColorMatrix values="0 0 0 0 0 0 0 0 0 0 0 0 0 0 0 0 0 0 0.1 0"/><feBlend in2="BackgroundImageFix" result="effect1_dropShadow_2147_4651"/><feBlend in="SourceGraphic" in2="effect1_dropShadow_2147_4651" result="shape"/></filter></defs></svg>