<svg width="256" height="256" fill="none" xmlns="http://www.w3.org/2000/svg"><g clip-path="url(#prefix__clip0_1433_836)"><path fill-rule="evenodd" clip-rule="evenodd" d="M51.2 0h153.6C232.96 0 256 23.04 256 51.2v153.6c0 28.16-23.04 51.2-51.2 51.2H51.2C23.04 256 0 232.96 0 204.8V51.2C0 23.04 23.04 0 51.2 0z" fill="#000"/><path d="M86.017 117.249c-11.469 0-19.763 8.09-19.763 19.149 0 11.161 8.294 19.149 19.763 19.149 11.469 0 19.763-8.09 19.763-19.149 0-11.059-8.294-19.149-19.763-19.149zm10.138 19.149c0 6.553-4.301 11.264-10.138 11.264s-10.138-4.711-10.138-11.264c0-6.656 4.199-11.264 10.138-11.264 5.94 0 10.138 4.608 10.138 11.264zM49.767 134.555l15.565-16.487H53.044L39.63 133.019v-31.54h-9.421v53.044h9.42v-18.228l14.03 18.228h12.595l-16.487-19.968zM174.693 122.574c-1.638-1.741-3.584-3.175-5.734-4.096a17.641 17.641 0 00-6.964-1.434c-2.764 0-5.427.615-7.884 1.946-.922.512-1.741 1.126-2.56 1.843-.512.512-1.024 1.024-1.536 1.638v-20.992h-9.421v53.044h9.011v-5.018c1.229 1.843 2.97 3.379 4.915 4.403 2.253 1.127 4.711 1.639 7.168 1.639 2.458.102 4.915-.41 7.168-1.434a17.302 17.302 0 005.837-4.301c1.536-1.843 2.765-3.891 3.584-6.144a23.963 23.963 0 001.229-7.577c0-2.56-.41-5.12-1.331-7.476a18.926 18.926 0 00-3.584-6.041h.102zm-14.643 24.985c-6.656 0-10.24-6.144-10.24-11.264 0-5.222 3.584-11.468 10.24-11.468 7.27 0 10.035 6.553 10.035 11.264 0 5.632-3.482 11.468-10.035 11.468zM191.181 100.353c-1.126 0-2.355.409-3.277 1.024-1.024.716-1.74 1.638-2.15 2.764-.41 1.127-.614 2.356-.307 3.584a5.935 5.935 0 001.638 3.175 6.545 6.545 0 003.072 1.741c1.127.204 2.355.102 3.379-.308 1.127-.512 2.048-1.228 2.663-2.252.614-1.024 1.024-2.253 1.024-3.482 0-1.638-.615-3.174-1.741-4.403-1.126-1.127-2.662-1.843-4.198-1.843h-.103zM195.892 118.375h-9.523v36.147h9.523v-36.147zM135.065 117.454v9.113c-.922-.204-1.946-.204-2.97-.204-6.349 0-9.523 5.222-9.523 9.216v18.841h-9.523v-36.147h9.113v5.53c.922-1.844 2.253-3.38 3.892-4.608 1.843-1.332 4.198-2.048 6.451-1.946.819 0 1.638.102 2.457.205h.103zM225.793 125.748v-7.68h-9.113v-10.342h-9.523v10.342h-6.247v7.68h6.247v16.384c0 1.638.204 3.277.512 4.915a9.92 9.92 0 001.843 4.096c.921 1.229 2.253 2.253 3.686 2.867 1.536.717 3.584 1.024 6.042 1.024 1.126 0 2.15-.102 3.277-.307 1.126-.205 3.276-1.024 3.276-1.229v-7.27a35.487 35.487 0 01-4.608.614c-1.843 0-3.072-.512-3.686-1.433-.512-.819-.819-2.253-.819-3.789v-15.872h9.113z" fill="#fff"/></g><defs><clipPath id="prefix__clip0_1433_836"><path fill="#fff" d="M0 0h256v256H0z"/></clipPath></defs></svg>