<svg width="256" height="204" fill="none" xmlns="http://www.w3.org/2000/svg"><path d="M119.768 1.102c22.241-1.499 44.913 2.999 64.799 13.082 29.511 14.581 53.043 40.745 63.948 71.633 4.916 13.728 7.486 28.094 7.486 42.675v53.827c0 2.146 0 4.508-.43 6.654-1.28 5.36-5.13 10.289-10.261 12.651-3.635 1.714-7.7 1.93-11.335 1.283-8.131-1.499-14.541-9.221-14.541-17.59v-50.181c.215-4.714.215-9.868-2.355-13.945-4.066-7.722-14.326-11.367-22.242-8.153-6.84 2.362-11.765 9.437-11.98 16.727v50.829c0 3.214.215 6.438-.861 9.437-1.71 6.007-6.625 10.72-12.615 12.435-7.916 2.146-16.896-1.284-20.746-8.575-2.786-4.292-2.571-9.652-2.356-14.581v-50.613c-.215-8.574-7.27-16.296-15.616-17.374-5.56-.862-11.335 1.068-15.401 4.929-3.635 3.43-5.56 8.359-5.56 13.298v49.113c0 4.077.43 8.359-1.065 12.23-2.355 7.075-9.41 12.23-16.896 12.014-7.7.431-15.186-4.929-17.541-12.014-1.28-3.645-1.065-7.29-1.065-11.151v-50.829c0-8.358-6.636-16.08-14.756-17.59-7.485-1.499-15.616 2.146-19.466 9.006-1.495 2.782-2.355 6.007-2.355 9.221v55.12c0 5.361-2.355 10.721-6.42 14.161-6.206 5.36-16.252 5.791-22.672.862-4.71-3.214-7.486-8.79-7.486-14.581v-55.757c0-21.02 5.346-42.04 15.401-60.697 8.141-15.228 19.477-28.741 32.953-39.461C68.23 12.469 93.677 2.6 119.768 1.102z" fill="#5741D9"/></svg>