<svg width="234" height="256" fill="none" xmlns="http://www.w3.org/2000/svg"><path fill-rule="evenodd" clip-rule="evenodd" d="M74.02 128.03l75.828 75.838 47.862-47.862c8.56-7.7 21.647-7.363 29.788.778 8.141 8.141 8.489 21.238.778 29.788l-63.16 63.171c-8.489 8.346-22.088 8.346-30.577 0l-91.115-91.146v54.169c0 11.961-9.687 21.648-21.648 21.648-11.96 0-21.647-9.687-21.647-21.648V43.212c0-11.95 9.687-21.647 21.647-21.647 11.96 0 21.648 9.697 21.648 21.647v54.17l91.105-91.126c8.479-8.345 22.098-8.345 30.577 0l63.201 63.16c7.7 8.561 7.362 21.648-.778 29.789-8.141 8.141-21.238 8.489-29.789.778l-47.861-47.862-75.858 75.909zm75.859-21.678a21.68 21.68 0 00-20.03 13.374 21.679 21.679 0 0028.314 28.334 21.679 21.679 0 0013.384-20.03 21.698 21.698 0 00-6.339-15.329 21.646 21.646 0 00-15.319-6.349h-.01z" fill="#23AF91"/></svg>