<svg width="256" height="256" fill="none" xmlns="http://www.w3.org/2000/svg"><path d="M114.928 127.946l95.543 54.825a5.052 5.052 0 005.008-.014 5.06 5.06 0 002.546-4.314l.016-100.961a5.05 5.05 0 00-7.552-4.33l-95.561 54.794zM204.92 49.527l-63.425-48.51a5.074 5.074 0 00-6.856.707 5.082 5.082 0 00-1.138 2.227l-23.19 108.002 94.094-54.06a4.978 4.978 0 002.079-6.462 4.985 4.985 0 00-1.564-1.904zM141.449 254.959l63.588-48.562a5.054 5.054 0 001.234-6.653 5.046 5.046 0 00-1.746-1.712l-94.224-54.018 23.229 108.009a4.986 4.986 0 003.145 3.667 4.978 4.978 0 004.774-.731z" fill="#31CB9E"/><path d="M90.432 127.945l25.025-116.366a5.007 5.007 0 00-7.992-4.99l-64.028 48.93a13.269 13.269 0 00-5.208 10.564l-.02 123.927a13.282 13.282 0 005.205 10.567l64.011 48.877a5.046 5.046 0 007.66-2.017c.408-.934.525-1.97.335-2.972l-24.988-116.52z" fill="#31CB9E"/></svg>