<svg width="256" height="256" fill="none" xmlns="http://www.w3.org/2000/svg"><g clip-path="url(#prefix__clip0_1433_850)"><path d="M128 256c70.692 0 128-57.308 128-128C256 57.308 198.692 0 128 0 57.308 0 0 57.308 0 128c0 70.692 57.308 128 128 128z" fill="#0096AC"/><path d="M167.647 66.832h-27.186l-35.115 96.283H81.558l33.983-96.283H88.355L45.31 188.036h79.293l7.929-24.921h43.044l7.929 24.921h27.186L167.647 66.832zm-26.053 71.363l12.46-35.115 12.46 35.115h-24.92z" fill="#fff"/></g><defs><clipPath id="prefix__clip0_1433_850"><path fill="#fff" d="M0 0h256v256H0z"/></clipPath></defs></svg>