<svg width="256" height="255" fill="none" xmlns="http://www.w3.org/2000/svg"><path d="M127.843.626c-9.522 0-18.888 2.034-27.785 5.632-8.742 3.754-16.703 9.073-23.415 15.957-6.712 6.883-12.02 14.862-15.61 23.78-3.59 8.916-5.463 18.46-5.307 28.002v24.249h58.536v-35.2c0-1.72.313-3.285.937-4.85a12.227 12.227 0 012.654-4.067 12.196 12.196 0 014.058-2.66 12.697 12.697 0 014.839-.938h2.186c1.561 0 3.278.313 4.839.938a12.207 12.207 0 014.058 2.66 12.242 12.242 0 012.654 4.068 12.78 12.78 0 01.936 4.85v94.177c7.649 0 15.298-1.564 22.478-4.537 7.181-2.972 13.581-7.352 19.044-12.828 5.464-5.475 9.834-12.046 12.644-19.086 2.966-7.196 4.527-14.862 4.527-22.527V73.997c0-19.399-7.493-38.172-21.073-51.939-6.712-6.883-14.673-12.202-23.415-15.957-8.897-3.598-18.263-5.475-27.785-5.475z" fill="#fff"/><path d="M128.935 204.938h-2.185a13.31 13.31 0 01-4.839-.938c-1.561-.626-2.81-1.565-4.058-2.66a12.228 12.228 0 01-2.654-4.067 12.765 12.765 0 01-.937-4.85V98.245c-7.649 0-15.297 1.565-22.478 4.537-7.18 2.972-13.58 7.353-19.044 12.828-5.463 5.476-9.834 12.046-12.644 19.086-2.965 7.196-4.526 14.862-4.526 22.528v23.935c-.157 9.543 1.717 19.086 5.307 28.003 3.59 8.918 8.898 17.052 15.61 23.779 6.712 6.884 14.673 12.203 23.414 15.958 8.742 3.754 18.264 5.631 27.786 5.631 9.522 0 19.044-1.877 27.785-5.631 8.741-3.755 16.859-9.074 23.415-15.958 6.712-6.883 12.019-14.861 15.609-23.779 3.591-8.917 5.308-18.46 5.308-28.003v-23.935h-58.537v35.199c0 1.721-.312 3.285-.936 4.85a12.244 12.244 0 01-2.654 4.067 12.217 12.217 0 01-4.059 2.66c-1.405.625-2.965.938-4.683.938z" fill="#fff"/></svg>