<svg width="256" height="256" fill="none" xmlns="http://www.w3.org/2000/svg"><g clip-path="url(#prefix__clip0_1431_784)"><path d="M128 256c70.692 0 128-57.308 128-128C256 57.308 198.692 0 128 0 57.308 0 0 57.307 0 128c0 70.692 57.307 128 128 128z" fill="#F8E19A"/><path d="M161.863 144.813c9.852 0 17.839-8.082 17.839-18.053 0-9.97-7.987-18.053-17.839-18.053-9.851 0-17.838 8.083-17.838 18.053 0 9.971 7.987 18.053 17.838 18.053z" fill="#fff"/><path d="M210.635 153.425l-.522-.819-.143-.225c-1.956-3.072-2.55-3.717-3.492-5.14-13.056-20.091-5.591-33.004.277-39.599.716-.798 1.382-1.751 1.996-2.478a17.275 17.275 0 002.284-3.389l.102-.174a16.574 16.574 0 001.751-7.404v-.235c-.809-9.011-8.356-15.913-17.408-15.913-9.042 0-16.599 6.902-17.408 15.913 0 2.898.738 5.744 2.13 8.284.205.42 1.209 1.751 1.311 1.976.215.338.461.645.737.922a22.77 22.77 0 001.956 2.13 34.662 34.662 0 014.506 6.308 31.161 31.161 0 013.143 13.609c0 6.707-2.181 13.24-6.205 18.616l-4.332 6.226c-.133.174-.266.368-.389.553l-.102.143a16.912 16.912 0 00-2.611 9.011v.308c.809 9.011 8.355 15.913 17.408 15.913 9.042 0 16.599-6.902 17.408-15.913 0-3.031-.82-6.011-2.356-8.612l-.041-.011zM142.397 152.38c-1.955-3.072-2.549-3.717-3.491-5.14-13.056-20.091-5.591-33.004.276-39.598.717-.799 1.383-1.751 1.987-2.478a17.204 17.204 0 002.283-3.39l.103-.174a17.093 17.093 0 001.751-7.516v-.123-.328c0-9.646-7.824-17.469-17.47-17.469-9.646 0-17.479 7.823-17.479 17.48 0 3.02.778 5.99 2.263 8.612.215.419 1.208 1.751 1.31 1.976.215.338.461.645.738.922a22.623 22.623 0 001.955 2.129 34.963 34.963 0 014.557 6.308 31.042 31.042 0 013.175 13.681 31.106 31.106 0 01-6.144 18.545c-2.857 4.024-5.817 6.645-10.148 9.072-18.207 8.684-32.942-3.318-32.942-3.318l-1.485-1.218a11.433 11.433 0 01-2.775-3.093c-13.056-20.101-5.591-33.013.276-39.598.717-.798 1.383-1.751 1.987-2.478a17.26 17.26 0 002.283-3.389l.103-.174a16.758 16.758 0 001.833-7.63c-.81-9.01-8.356-15.912-17.408-15.912-9.042 0-16.6 6.902-17.408 15.913 0 2.898.737 5.745 2.13 8.284.205.42 1.208 1.751 1.31 1.976.215.338.461.646.738.922.604.748 1.26 1.464 1.956 2.13a34.848 34.848 0 014.474 6.308 31.016 31.016 0 013.144 13.609c0 6.707-2.181 13.24-6.205 18.616l-2.222 3.144a17.466 17.466 0 00-5.397 12.626v.399c.174 9.523 7.946 17.162 17.47 17.162 4.628 0 9.062-1.833 12.339-5.099.86-.594 1.413-1.014 2.201-1.516 20.101-13.056 33.014-5.591 39.619.277.522.471 1.085.921 1.638 1.341a17.47 17.47 0 0012.237 4.997c9.554 0 17.336-7.68 17.47-17.234 0-3.676-.984-6.543-3.032-9.554z" fill="#fff"/></g><defs><clipPath id="prefix__clip0_1431_784"><path fill="#fff" d="M0 0h256v256H0z"/></clipPath></defs></svg>