<svg width="256" height="256" fill="none" xmlns="http://www.w3.org/2000/svg"><path d="M116.923 173.558L41.061 191.12c-2.767.693-4.842 3.466-4.842 6.238v52.224c0 4.392 3.459 7.164 7.84 6.24l105.836-24.495c4.382-.924 6.227-5.083 4.382-9.012l-19.138-39.514c-2.998-6.239 0-12.71 6.686-14.096L211 152.067c4.843-1.155 8.993-6.239 8.993-11.323V92.449c0-4.39-3.459-7.395-7.84-6.24l-99.842 23.802c-6.226 1.387-8.993 7.395-6.226 13.171l17.524 36.28c2.998 6.239 0 12.478-6.686 14.096z" fill="#fff"/><path d="M66.898 42.998l19.83 40.67c2.537 5.315 0 10.86-5.765 12.017l-36.662 8.549C39.689 105.39 36 110.011 36 114.633v43.674c0 7.395 5.995 12.016 13.143 10.399l34.127-7.857c4.61-.924 8.3-5.777 8.3-10.399l.23-44.829c0-6.24 5.074-12.479 11.069-13.865l111.832-26.805c2.767-.693 4.842-3.466 4.842-6.24V6.489c0-4.39-3.458-7.395-7.84-6.24L71.279 33.987c-4.381.925-6.226 5.084-4.381 9.012z" fill="#fff"/></svg>