<svg width="256" height="256" fill="none" xmlns="http://www.w3.org/2000/svg"><path d="M189.779 33.8a1.938 1.938 0 01-2.529.901c-14.117-6.424-31.276-8.594-42.553-8.594-40.549 0-81.107 19.776-81.107 52.283 0 17.431 13.07 32.179 32.177 32.179 21.112 0 36.867-15.416 49.598-29.495 11.394-12.731 24.804-26.81 43.9-26.81 20.783 0 35.859 15.416 35.859 36.2 0 32.846-39.55 69.714-94.177 69.714-54.626 0-94.166-29.165-94.166-69.715 0-37.875 44.908-72.06 94.177-72.06 25.142 0 44.075 5.272 58.007 12.83a1.937 1.937 0 01.814 2.567zM130.958 5.333C63.59 5.333 8.625 60.301 8.625 127.67c0 67.37 54.965 123.006 122.333 123.006 67.366 0 123-54.968 123-123.006s-54.975-122.337-123-122.337z" fill="#fff"/></svg>