<svg width="250" height="246" fill="none" xmlns="http://www.w3.org/2000/svg"><path d="M161.196 81.81H89.061c-3.063 0-5.573 2.47-5.573 5.484v71c0 3.014 2.51 5.485 5.573 5.485h72.135c3.062 0 5.572-2.471 5.572-5.485v-71c0-3.014-2.51-5.484-5.572-5.484zM77.933.121H5.797C2.735.121.225 2.591.225 5.606v71c0 3.014 2.51 5.484 5.572 5.484h72.136c3.062 0 5.572-2.47 5.572-5.484v-71C83.487 2.592 80.995.12 77.933.12zM244.19.121h-72.135c-3.062 0-5.573 2.47-5.573 5.485v71c0 3.014 2.511 5.484 5.573 5.484h72.135c3.062 0 5.573-2.47 5.573-5.484v-71c0-3.014-2.511-5.485-5.573-5.485zM77.933 163.499H5.797c-3.062 0-5.572 2.471-5.572 5.484v71.001c0 3.013 2.51 5.484 5.572 5.484h72.136c3.062 0 5.572-2.471 5.572-5.484v-71.001c-.018-3.013-2.51-5.484-5.572-5.484zM244.19 163.499h-72.135c-3.062 0-5.573 2.471-5.573 5.484v71.001c0 3.013 2.511 5.484 5.573 5.484h72.135c3.062 0 5.573-2.471 5.573-5.484v-71.001c0-3.013-2.511-5.484-5.573-5.484z" fill="#fff"/></svg>