<svg width="256" height="234" fill="none" xmlns="http://www.w3.org/2000/svg"><g clip-path="url(#prefix__clip0_2147_2143)"><path fill-rule="evenodd" clip-rule="evenodd" d="M200.445 121.901c.005-.133.009-.267.015-.4l.058-1.069c.065-1.158.132-2.318.132-3.494 0-.568-.018-1.132-.034-1.697l-.019-.618-.004-.208c-.004-.138-.007-.277-.013-.415-.12-.739-.567-1.365-1.22-1.657-.044-.02-.091-.028-.138-.037a85.939 85.939 0 01-7.699-2.183l-1.101-.38c-23.883-8.445-46.766-4.539-57.349-1.83-.622.156-1.201.31-1.734.46a.584.584 0 00-.084.01.664.664 0 01-.1.01c-2.078 0-3.815-1.509-4.21-3.511V83.158a4.346 4.346 0 012.25-3.006c.281-.117.57-.23.911-.36 7.098-2.642 26.34-7.43 58.779.998.061.029.126.04.191.053.039.007.078.015.116.026l.114.032c.144.042.288.085.445.085 1.19 0 2.15-.983 2.15-2.193 0-.149-.036-.282-.073-.415l-.034-.129a2.197 2.197 0 00-.351-.754c-14.164-28.618-43.212-48.26-76.787-48.26-47.491 0-85.993 39.264-85.993 87.703s38.502 87.704 85.993 87.704c34.282 0 63.83-20.485 77.64-50.085l.074-.155c.15-.316.3-.631.445-.95.008-.047.021-.092.032-.138a.95.95 0 00.042-.253c0-.872-.507-1.612-1.229-1.965l-.092-.029-.045-.015-.164-.055-.937-.325c-24.6-8.701-48.15-4.295-58.278-1.591l-.106.028-.049.013a4.06 4.06 0 01-.834.088c-2.078 0-3.815-1.509-4.21-3.511V124.121a4.364 4.364 0 012.484-3.134c.03-.015.063-.026.096-.038a.858.858 0 00.071-.026c6.727-2.628 26.561-8.052 60.826 1.181 2.424.654 4.749 1.21 7.031 1.722.335.076.671.152 1.003.222.958-.032 1.723-.705 1.966-1.614.01-.175.017-.354.023-.533zm48.114-38.65c.276-.055.559-.085.845-.085 2.351 0 4.254 1.915 4.306 4.295v19.522a4.38 4.38 0 01-2.405 3.555 84.9 84.9 0 01-1.338.398c-3.784 1.088-10.237 2.629-18.32 3.424l-.799.07a2.138 2.138 0 00-1.54 1.897l.001.186.002.186.001.121.001.118c0 2.663-.114 5.294-.283 7.911l-.004.071-.008.122a2.148 2.148 0 001.967 2.093l.029-.001c.134-.005.273-.011.407-.02 7.278-.411 12.724-1.59 16.407-2.707.261-.078.536-.16.777-.236a4.52 4.52 0 01.831-.085c2.147 0 3.918 1.59 4.274 3.675v20.002a4.383 4.383 0 01-2.517 3.739l-.123.037c-.305.092-.624.188-.98.29-4.813 1.392-14.106 3.561-25.655 3.906a7.726 7.726 0 00-.152.007l-.143.005a2.12 2.12 0 00-1.714 1.157 2.393 2.393 0 00-.141.379l-.006.017c-16.117 44.69-58.209 76.577-107.622 76.577-66.1 0-119.138-57.049-114.357-125.504C4.327 50.693 50.164 4.148 106.736.272 162.5-3.55 210.435 33.333 224.868 84.657c.031.155.06.307.126.447a2.133 2.133 0 001.76 1.22c.117-.004.232-.004.347-.006 9.379-.103 16.23-1.489 20.615-2.8.298-.091.571-.18.843-.267z" fill="#fff"/></g><defs><clipPath id="prefix__clip0_2147_2143"><path fill="#fff" d="M0 0h256v233.877H0z"/></clipPath></defs></svg>