<svg width="256" height="256" fill="none" xmlns="http://www.w3.org/2000/svg"><g clip-path="url(#prefix__clip0_2163_541)"><path d="M129.033.282C57.82-.234-.233 57.819.283 129.032c.516 69.406 57.28 125.911 126.685 126.685 71.471.516 129.524-57.537 128.75-128.75C255.202 57.561 198.439.797 129.033.282z" fill="#2081E2"/><path d="M90.844 65.818c7.998 10.063 12.643 22.706 12.643 36.639 0 11.868-3.613 22.963-9.547 32.252H51.11l39.734-68.89z" fill="#fff"/><path d="M221.659 149.931c0 .516-.258 1.032-.774 1.291-2.838 1.29-12.385 5.676-16.513 11.352-10.321 14.191-18.061 36.896-35.606 36.896H95.231c-26.06 0-47.733-20.641-47.475-47.99 0-.775.516-1.291 1.29-1.291H83.62c1.29 0 2.064 1.033 2.064 2.065v6.708c0 3.612 2.839 6.45 6.45 6.45h26.318v-15.223h-18.061c10.321-13.158 16.513-29.671 16.513-47.732 0-20.126-7.74-38.445-20.383-52.12 7.741.774 14.965 2.322 21.673 4.387v-4.387c0-4.386 3.613-7.998 7.999-7.998 4.386 0 7.998 3.612 7.998 7.998v10.321c24.512 11.353 40.767 30.446 40.767 52.119 0 12.643-5.418 24.512-14.965 34.316-1.806 1.806-4.386 2.838-6.966 2.838h-18.578v15.223h23.222c4.902 0 13.933-9.546 18.319-15.223 0 0 .258-.258.774-.516s42.831-9.804 42.831-9.804c.774-.258 1.806.516 1.806 1.29l.258 9.03z" fill="#fff"/></g><defs><clipPath id="prefix__clip0_2163_541"><path fill="#fff" d="M0 0h256v256H0z"/></clipPath></defs></svg>