<svg width="436" height="436" fill="none" xmlns="http://www.w3.org/2000/svg"><g clip-path="url(#prefix__clip0_2157_512)"><g clip-path="url(#prefix__clip1_2157_512)"><path d="M436 218c0 120.399-97.601 218-218 218C97.602 436 0 338.399 0 218 0 97.602 97.602 0 218 0c120.399 0 218 97.602 218 218z" fill="#FFD15C"/><path d="M112.41 307.332c1.881-1.277 3.637-3.192 4.511-5.908.971-3.019.398-5.676-.056-7.147a8.335 8.335 0 00-.047-.147l.362-2.116c1.001.563 2.154 1.319 3.467 2.243.317.223.76.538 1.221.867.605.432 1.243.887 1.668 1.183.73.508 1.766 1.216 2.865 1.799 29.071 18.068 53.112 25.517 72.208 24.594 19.742-.954 33.587-10.886 40.729-25.379 6.902-14.01 7.143-31.369 2.305-47.45-4.868-16.186-15.107-31.916-30.369-42.802-25.717-18.342-49.282-46.232-61.198-69.947-6.051-12.044-8.459-21.757-7.823-28.099.295-2.952 1.2-4.738 2.281-5.887 1.083-1.15 3.055-2.418 6.855-3.044 8.049-1.326 17.358-4.225 26.805-7.166 3.667-1.142 7.355-2.29 10.999-3.356 13.616-3.982 28.031-7.327 43.183-7.298 29.388.055 63.876 12.814 100.189 65.891 46.648 68.184 21.039 144.376-32.701 184.403-26.8 19.961-60.238 30.556-94.599 26.528-30.939-3.627-63.343-19.197-92.855-51.762zm5.411-17.647c0 .002-.01.021-.034.056.021-.041.034-.056.034-.056zm-2.921 1.331a.356.356 0 01.093.017.378.378 0 01-.093-.017z" fill="#fff" stroke="#000" stroke-width="17.675"/><path d="M139.115 103.574s83.335-22.19 101.58-22.19c18.246 0 91.152 35.403 112.43 100.101 30.162 91.718-51.881 151.856-61.147 145.961 88.267-72.981-56.214-207.88-127.221-197.738-8.876 1.269-3.945 8.876-3.945 8.876l-1.972 19.725-14.794-24.656-4.931-30.079z" fill="#000"/><path d="M340.982 153.896c26.316 46.327 20.847 19.803 15.005 72.761 10.811-17.489 27.715-4.394 34.696 2.293 1.252 1.199 3.317.456 3.258-1.276-.266-7.855-2.517-24.829-15.52-43.039-17.831-24.971-37.439-30.739-37.439-30.739z" fill="#000"/><path d="M355.987 226.657c5.842-52.958 11.311-26.434-15.005-72.761 0 0 19.608 5.768 37.439 30.739 13.003 18.21 15.254 35.184 15.52 43.039.059 1.732-2.006 2.475-3.258 1.276-6.981-6.687-23.885-19.782-34.696-2.293zm0 0l2.577-6.366" stroke="#000" stroke-width=".993"/><path d="M129.255 219.592c-11.103 18.799-33.884 17.388-33.448 39.809 20.348 45.208 20.468 41.965 20.468 41.965 37.691-21.173 22.202-67.925 16.609-81.677-.632-1.554-2.775-1.542-3.629-.097z" fill="#000"/><path d="M43.817 261.156c21.649 2.824 34.563-15.996 51.962-1.849 23.098 43.868 20.468 41.966 20.468 41.966-39.89 16.665-67.195-24.324-74.588-37.197-.835-1.455.494-3.137 2.158-2.92zM225.408 233.264s21.698 22.192 10.356 25.642c-14.143-8.705-39.484-1.94-51.907 2.249-3.058 1.032-6.056-1.682-4.954-4.716 4.224-11.623 14.654-33.137 34.671-35.996 11.834-2.96 11.834 12.821 11.834 12.821z" fill="#000"/><path d="M238.723 124.777c-2.466-3.451-7.396-12.821 7.89-12.821 15.287 0 38.644 17.309 43.393 23.712-1.479 3.902-11.341 4.775-16.272 4.396-4.931-.38-13.314-1.191-19.724-4.396-6.411-3.205-12.821-7.439-15.287-10.891z" fill="#fff"/></g></g><defs><clipPath id="prefix__clip0_2157_512"><path fill="#fff" d="M0 0h436v436H0z"/></clipPath><clipPath id="prefix__clip1_2157_512"><path fill="#fff" d="M0 0h436v436H0z"/></clipPath></defs></svg>