<svg width="253" height="256" fill="none" xmlns="http://www.w3.org/2000/svg"><g clip-path="url(#prefix__clip0_1431_780)"><path d="M34.647 1.694h88.385a129.445 129.445 0 0191.634 37.958 129.494 129.494 0 0137.958 91.634v88.385c0 4.575-.853 9.073-2.637 13.252a33.189 33.189 0 01-7.522 11.229 34.34 34.34 0 01-11.228 7.521c-4.18 1.706-8.677 2.637-13.245 2.637h-87.818c-17.122 0-34.003-3.334-49.822-9.918-15.796-6.506-30.134-16.114-42.223-28.195-12.09-12.081-21.69-26.404-28.188-42.223a128.692 128.692 0 01-9.917-49.721V36.318c0-9.228 3.644-17.975 10.142-24.48A34.562 34.562 0 0134.647 1.693z" fill="#1C8D57"/><path d="M183.996 69.089c-13.865-14.408-33.46-21.682-58.251-21.682-23.395 0-42.447 7.514-56.7 22.302-14.167 14.788-21.379 35.407-21.379 61.438v93.689a128.974 128.974 0 0040.052 22.356V200.79h32.064c10.236 0 20.224-1.319 29.668-3.955a94.075 94.075 0 0026.877-12.314c8.763-5.738 15.726-13.943 20.844-24.403 5.04-10.306 7.592-22.473 7.592-36.175 0-21.999-6.979-40.431-20.767-54.839v-.015zm-31.452 82.429h-.077c-7.041 7.444-16.657 11.073-29.273 11.073H87.718v-32.685c0-13.477 3.411-24.48 10.228-32.537 6.653-7.91 15.648-11.771 27.497-11.771s21.534 3.412 27.962 10.383c6.584 7.126 9.771 16.044 9.771 27.342 0 11.298-3.49 20.689-10.616 28.195h-.016z" fill="#fff"/></g><defs><clipPath id="prefix__clip0_1431_780"><path fill="#fff" d="M0 0h252.526v256H0z"/></clipPath></defs></svg>