<svg width="255" height="256" fill="none" xmlns="http://www.w3.org/2000/svg"><path fill-rule="evenodd" clip-rule="evenodd" d="M47.062 40.05C43.207 19.254 59.025 0 79.96 0c18.476 0 33.497 15.161 33.497 33.811v41.66c4.652-.335 9.304-.469 14.09-.469 4.586 0 9.105.134 13.558.47v-41.66C141.106 15.161 156.127 0 174.603 0c20.936 0 36.754 19.187 32.899 40.05l-9.039 48.973c31.105 13.686 54.632 37.501 54.632 67.421v18.114c0 24.62-16.15 45.216-38.681 59.102-22.73 14.021-53.436 22.34-86.866 22.34s-64.137-8.252-86.867-22.273C18.151 219.841 2 199.245 2 174.625v-18.113c0-29.787 23.262-53.468 54.167-67.22L47.062 40.05zm139.837 55.48l10.634-57.358c2.658-14.424-8.308-27.774-22.863-27.774-12.828 0-23.262 10.533-23.262 23.48v53.065c-3.39-.402-6.779-.805-10.235-1.006-4.453-.335-8.973-.47-13.559-.47-4.785 0-9.504.202-14.09.537-3.456.268-6.912.604-10.235 1.074V33.945c0-12.947-10.435-23.48-23.262-23.48-14.555 0-25.522 13.35-22.863 27.774l10.634 57.56c-33.298 12.478-55.496 35.019-55.496 60.847v18.113c0 39.312 51.641 71.111 115.312 71.111s115.313-31.866 115.313-71.111v-18.113c-.067-26.03-22.465-48.705-56.028-61.116z" fill="#61320F"/><path d="M242.857 174.625c0 39.312-51.641 71.111-115.312 71.111S12.232 213.87 12.232 174.625v-18.113h230.625v18.113z" fill="#FEDC90"/><path fill-rule="evenodd" clip-rule="evenodd" d="M57.165 38.172c-2.659-14.423 8.308-27.774 22.863-27.774 12.827 0 23.262 10.533 23.262 23.48v53.133c7.843-1.074 16.017-1.61 24.325-1.61 8.175 0 16.151.536 23.794 1.543V33.877c0-12.947 10.434-23.48 23.262-23.48 14.555 0 25.521 13.35 22.863 27.774L186.9 95.531c33.563 12.41 56.028 35.085 56.028 60.981 0 39.312-51.642 71.111-115.313 71.111-63.67 0-115.312-31.866-115.312-71.111 0-25.761 22.198-48.369 55.496-60.847L57.165 38.172z" fill="#D1884F"/><path d="M95.578 151.347c0 10.734-5.715 19.388-12.827 19.388-7.045 0-12.827-8.654-12.827-19.388 0-10.734 5.716-19.388 12.827-19.388 7.045 0 12.827 8.654 12.827 19.388zM183.975 151.347c0 10.734-5.716 19.388-12.827 19.388-7.045 0-12.828-8.654-12.828-19.388 0-10.734 5.716-19.388 12.828-19.388 7.045 0 12.827 8.654 12.827 19.388z" fill="#61320F"/></svg>