<svg width="256" height="256" fill="none" xmlns="http://www.w3.org/2000/svg"><g clip-path="url(#prefix__clip0_2147_2104)"><circle cx="127.932" cy="127.864" r="127.797" fill="#000"/><mask id="prefix__a" style="mask-type:luminance" maskUnits="userSpaceOnUse" x="-5" y="-3" width="270" height="270"><path d="M264.393-2.099H-4.197v268.591h268.59V-2.098z" fill="#fff"/></mask><g mask="url(#prefix__a)"><path fill-rule="evenodd" clip-rule="evenodd" d="M85.792 53.401c11.127-10.9 28.929-10.9 40.057 0l26.344 25.807c11.457 11.223 11.457 29.668 0 40.891l-45.911 44.975 32.926 32.255c6.274 6.145 6.378 16.212.232 22.485-6.145 6.274-16.212 6.378-22.486.232l-79.767-78.14c-11.457-11.223-11.457-29.669 0-40.892l48.605-47.613zm-2.233 89.414l44.061-43.162-21.8-21.354-44.06 43.161 21.8 21.355z" fill="#3CEAAA"/><path fill-rule="evenodd" clip-rule="evenodd" d="M152.574 75.208c11.128-10.901 28.93-10.901 40.057 0l26.345 25.806c11.457 11.223 11.457 29.669 0 40.892l-79.769 78.14c-6.273 6.146-16.34 6.042-22.485-.232-6.146-6.273-6.042-16.34.231-22.486l32.927-32.254-23.65-23.168c-11.457-11.223-11.457-29.669 0-40.892l26.344-25.806zm20.029 67.607l21.799-21.355-21.799-21.354-21.8 21.354 21.8 21.355z" fill="#03BCE4"/><path opacity=".95" d="M150.794 121.514l-23.157-21.995-22.211 21.813 22.607 22.492 22.761-22.31z" fill="#00A5E1"/></g></g><defs><clipPath id="prefix__clip0_2147_2104"><path fill="#fff" d="M0 0h256v256H0z"/></clipPath></defs></svg>