<svg width="256" height="256" fill="none" xmlns="http://www.w3.org/2000/svg"><g clip-path="url(#prefix__clip0_1433_900)"><path d="M48.334 192c0 35.348 28.539 64 63.734 64V128c0 35.348-28.529 64-63.734 64z" fill="#38D102"/><path d="M143.935 128c0 35.348 28.539 64 63.733 64V64c0 35.349-28.528 64-63.733 64zM48.334 64v128c35.205 0 63.734-28.652 63.734-64 0-35.349-28.529-64-63.734-64z" fill="#0B5BE0"/><path d="M143.936 0v128c35.205 0 63.733-28.651 63.733-64 0-35.349-28.528-64-63.733-64z" fill="#3CEAF3"/></g><defs><clipPath id="prefix__clip0_1433_900"><path fill="#fff" d="M0 0h256v256H0z"/></clipPath></defs></svg>