<svg width="256" height="256" fill="none" xmlns="http://www.w3.org/2000/svg"><g clip-path="url(#prefix__clip0_1433_861)"><path d="M238.08 64.264l-.071 63.986L183 96.221l-54.938-32.09 55.07-31.896L238.141.277l-.061 63.987z" fill="#fff"/><path d="M127.999 128.116l-.071 63.987-54.938-32.029-54.937-32.091L73.06 96.087 128.07 64.13l-.071 63.986z" fill="#92BE8D"/><path d="M18.118 63.996L18.18.01 73.117 32.1l54.947 32.03-55.008 31.957-55.01 31.896.072-63.987z" fill="#119E5F"/><path d="M17.922 191.969l.133-63.987 54.947 32.091 54.938 32.029-55.009 31.968-55.07 31.885.061-63.986z" fill="#fff"/><path d="M183.01 96.22l-54.948-32.09-.061 63.986-.071 63.987 54.947 32.09 54.938 32.029.061-63.986.132-63.986-54.998-32.03z" fill="#119E5F"/></g><defs><clipPath id="prefix__clip0_1433_861"><path fill="#fff" d="M0 0h256v256H0z"/></clipPath></defs></svg>