<svg width="254" height="256" fill="none" xmlns="http://www.w3.org/2000/svg"><g clip-path="url(#prefix__clip0_1432_802)"><path fill="#fff" d="M51 41.355h144v150.646H51z"/><path d="M153.034 74.331l-21.112-12.185a14.747 14.747 0 00-12.792 0L98.018 74.33c-4.576 2.663-4.576 6.963 0 9.523l21.112 12.288c3.952 2.049 8.736 2.049 12.792 0l21.112-12.287c2.704-.922 4.16-3.79 3.224-6.35-.52-1.433-1.664-2.662-3.224-3.071v-.103z" fill="#4231C8"/><path d="M190.057 86.108l-58.146 33.7c-3.952 2.048-8.736 2.048-12.792 0l-36.93-21.299c-4.577-2.765-8.425-.614-8.425 4.608v64.522a5.229 5.229 0 01-4.472 5.939c-1.352.205-2.808-.102-3.952-1.024l-6.24-3.174c-3.848-2.253-6.344-6.349-6.552-10.752V88.566c.312-4.403 2.6-8.5 6.344-10.855l60.019-34.416a14.747 14.747 0 0112.792 0l58.146 33.085c2.704.717 4.368 3.38 3.744 6.144-.416 1.741-1.872 3.175-3.64 3.584h.104zm45.459-26.829L133.367 1.413a14.747 14.747 0 00-12.792 0L18.426 59.28c-3.744 2.457-6.136 6.45-6.344 10.854v115.63c.312 4.403 2.6 8.499 6.344 10.854l102.149 57.867a14.751 14.751 0 0012.792 0l102.149-57.867c3.744-2.457 6.136-6.451 6.344-10.854V70.134c-.312-4.403-2.6-8.5-6.344-10.855z" fill="#4231C8"/></g><defs><clipPath id="prefix__clip0_1432_802"><path fill="#fff" d="M0 0h254v256H0z"/></clipPath></defs></svg>