<svg width="255" height="256" fill="none" xmlns="http://www.w3.org/2000/svg"><path d="M120.046 1.215c62.738-3.626 118.731 39.008 131.895 100.421a128.205 128.205 0 01.435 51.225c-8.232 41.763-36.736 76.639-76.011 93.061-26.763 11.239-57.37 12.798-85.186 4.532-38.114-11.347-68.794-39.806-82.937-76.965-10.154-26.646-10.952-56.7-2.248-83.853C22.023 39.389 67.39 4.224 120.046 1.215z" fill="#fff"/><path d="M49.004 119.109c.508 2.32.798 4.677 1.305 7.033.327 1.414.762 1.088 1.487.471 1.415-1.16 2.756-2.429 4.316-3.371.435.072.689.435.906.761 4.135 5.402 9.61 8.701 16.102 10.477 2.974.834 6.056 1.378 9.139 1.704a14.293 14.293 0 01-2.394-3.625c-1.052-2.32-.689-4.387 1.088-6.236 2.14-2.247 4.932-3.19 7.797-3.915 5.984-1.559 12.076-1.704 18.205-1.269a71.278 71.278 0 0114.578 2.502c3.989 1.123 7.87 2.429 11.387 4.676.508.399.835.943 1.306 1.342 4.533 4.857 7.18 10.585 7.362 17.22.109 4.568-1.161 8.954-3.445 12.978-4.135 7.251-10.191 12.544-17.407 16.568-7.326 4.096-15.413 6.634-23.79 7.504-14.941 1.632-28.83-1.631-41.56-9.571-10.589-6.598-18.748-15.625-25.385-26.065a123.954 123.954 0 01-8.16-15.517c-.29-.652-.362-1.377-.652-1.921.181.652.544 1.341-.145 2.03-.218-2.719.036-5.402.18-8.084a103.925 103.925 0 013.446-21.933 106.275 106.275 0 0163.282-70.984c9.356-3.734 19.184-6.054 29.193-6.96 15.812-1.45 31.115.616 46.057 5.909-2.285 4.314-15.232 15.843-25.313 22.55a34.56 34.56 0 00-1.959-8.52c-.036-.725.617-.943 1.016-1.305 2.103-1.813 4.207-3.59 6.31-5.366a9.19 9.19 0 00.616-.544c.254-.253.653-.47.544-.87-.072-.398-.544-.398-.906-.47a16.256 16.256 0 00-2.974-.363c-1.378-.145-2.756-.472-4.134-.508-1.088-.072-2.14-.326-3.191-.254a12.34 12.34 0 01-1.632-.108c-.907-.29-1.85-.146-2.756-.146-.544 0-1.088-.036-1.669 0-1.595.073-3.155-.18-4.75.11a6.293 6.293 0 01-1.161.108c-.471 0-.906.036-1.378 0a4.26 4.26 0 00-1.777.181c-1.668.145-3.336.29-4.968.58-1.995.435-4.025.508-5.984 1.015-1.813.472-3.663.725-5.439 1.342a121.059 121.059 0 00-7.036 2.175c-3.373 1.341-6.818 2.574-10.045 4.314-7.29 3.553-14.107 8.048-20.2 13.378A97.164 97.164 0 0049.294 74.59c-2.176 3.045-4.207 6.2-5.984 9.499a109.428 109.428 0 00-3.264 6.525c-.725 1.704-1.595 3.372-2.175 5.148-.726 1.776-1.306 3.59-1.886 5.438-.69 1.849-1.088 3.77-1.596 5.619-.218.725-.363 1.487-.544 2.248-.218.906-.363 1.813-.544 2.719a94.944 94.944 0 00-.761 4.64 42.646 42.646 0 00-.58 4.822c-.255 1.051-.073 2.175-.255 3.263-.29 1.341-.108 2.719-.18 4.06-.037.943-.073 1.885-.037 2.828 0 .398-.181.942.218 1.124.47.217.797-.29 1.16-.544 1.16-.943 2.285-1.922 3.409-2.9 3.808-3.263 7.652-6.49 11.46-9.753.326-.217.688-.942 1.269-.217z" fill="#4189C9"/><path d="M132.885 128.608c-4.497-2.683-9.393-4.205-14.434-5.402-6.6-1.559-13.418-2.211-20.2-1.849-4.786.254-9.537.907-13.961 3.009-.544.254-1.052.544-1.523.87-3.59 2.393-4.134 5.583-1.523 9.027.544.725 1.124 1.378 1.85 2.248-2.322 0-4.389-.435-6.42-.834-5.476-1.087-10.625-2.972-15.05-6.525-2.14-1.704-4.061-3.589-5.476-5.982.58-.943 1.56-1.378 2.466-1.921 1.741-.725 3.337-1.777 5.078-2.574 7.724-3.553 15.992-5.728 24.442-6.526 3.373-.326 6.745-.652 10.154-.507a113.03 113.03 0 0129.483 5.147c2.466.762 4.896 1.632 7.471 2.466 0-.725-.399-1.16-.689-1.632a36.24 36.24 0 00-3.518-4.966c-.471-.58-1.16-1.052-1.124-1.922 1.342.327 2.72.617 4.062.943.362.072.798.29 1.015 0 .326-.399-.145-.725-.363-1.015-1.994-2.973-4.46-5.511-7.144-7.867 1.415-.834 2.865-.145 4.243.036 14.107 1.813 26.945 6.816 38.151 15.589 14.832 11.637 24.406 26.646 28.468 45.135 1.305 6.163 1.704 12.507 1.233 18.779-.798 10.912-4.243 20.99-10.698 29.945-.436.58-1.016 1.051-1.306 1.74-1.451 2.175-3.626 3.661-5.585 5.257-10.698 8.7-23.209 13.232-36.663 15.335a112.968 112.968 0 01-31.66.543 104.305 104.305 0 01-46.2-17.437c-3.374-2.284-6.674-4.641-9.611-7.468-.109-.073-.109-.218-.036-.327l.036-.036c.616-.254 1.015.218 1.45.508 7.036 5.293 15.05 9.172 23.573 11.456a87.291 87.291 0 008.667 1.74c.653.254 1.378.109 2.03.254.146 0 .29.036.4.072 6.6.798 13.2.326 19.728-.834 14.324-2.538 27.089-8.519 37.969-18.199 7.434-6.562 13.309-14.32 16.428-23.891 3.119-9.57 2.683-18.887-1.705-28.096-.906 4.133-3.046 7.541-5.766 10.659a37.964 37.964 0 01-9.465 7.685c-.399.254-.87.689-1.342.327-.399-.327-.181-.87-.036-1.269a48.26 48.26 0 001.777-8.773c1.269-12.508-3.554-22.26-13.527-29.619a45.765 45.765 0 00-5.149-3.299z" fill="#262F71"/><path d="M91.542 223.844c-3.663-.362-7.29-1.124-10.844-2.211a72.51 72.51 0 01-18.82-8.81c-1.379-.906-2.576-2.139-4.063-2.864-.87-.108-1.232-.979-1.922-1.341-14.65-13.015-24.66-29.002-30.39-47.673-2.792-9.063-4.315-18.489-4.46-27.987.036-.725.073-1.414.145-2.538.725 1.595 1.27 2.828 1.85 4.097 5.258 11.565 12.003 22.078 21.287 30.851 9.864 9.317 21.36 15.553 34.887 17.728 15.847 2.574 30.68-.181 44.315-8.737 6.818-4.278 12.367-9.752 15.594-17.257 3.88-9.099 2.43-17.546-3.518-25.34-.507-.689-1.088-1.342-1.595-1.994.689-.617 1.088.109 1.487.435a30.162 30.162 0 018.195 10.839c1.814 4.024 2.793 8.339 2.829 12.761.073 4.496-.943 8.955-2.901 13.015a1.71 1.71 0 001.16-.435 36.247 36.247 0 005.331-3.77c.508-.435.98-1.124 1.814-1.015-.436 3.408-1.197 6.779-2.213 10.078a50.768 50.768 0 006.274-4.169c1.56-1.233 2.829-2.755 4.388-4.024.653.29.653.943.798 1.486 2.502 9.064.689 17.511-3.771 25.486-5.44 9.68-13.418 16.894-22.702 22.731a76.368 76.368 0 01-24.406 9.969 50.928 50.928 0 01-16.573.979c-.726-.399-1.487.037-2.176-.29z" fill="#161F42"/><path d="M228.624 156.632a77.021 77.021 0 00-7.543-29.872 78.961 78.961 0 00-11.025-16.93c-3.953-4.677-8.486-8.665-13.273-12.471.435-.435 1.016-.363 1.523-.29a84.059 84.059 0 0119.511 4.64 30.225 30.225 0 014.533 2.103c.508.253 1.015.543 1.523.87.109.072.181.253.363.217a.51.51 0 01-.073-.507c-4.279-5.583-9.501-10.26-14.941-14.683a107.59 107.59 0 00-21.106-13.377c-10.444-5.148-21.65-8.52-33.219-9.933-1.015-.145-2.103 0-3.082-.363-.073-.689.507-.906.906-1.233 6.782-5.655 12.222-12.326 16.066-20.265a54.66 54.66 0 002.937-7.432c.218-.725.363-1.523 1.088-1.958a104.568 104.568 0 0132.094 23.927 105.85 105.85 0 0124.153 97.883c-.254.109-.29-.145-.435-.326z" fill="#4189C9"/><path d="M187.534 214.02c0-1.052.834-1.668 1.378-2.429 4.968-7.069 7.978-14.9 9.538-23.383.979-5.257 1.051-10.55.725-15.807-.544-8.084-2.611-15.878-5.875-23.347a78.949 78.949 0 00-8.957-15.443 79.204 79.204 0 00-13.128-13.631c-7.543-6.236-16.247-10.913-25.603-13.813a73.62 73.62 0 00-15.304-3.154c-.943-.072-1.849-.326-2.829-.254-3.3-2.429-6.672-4.785-10.444-6.489l.036-.362c1.342 0 2.72.036 4.062 0 19.003-.327 36.555 4.314 51.859 15.878 15.847 12 25.784 27.843 29.483 47.419 3.155 16.677.725 32.447-8.559 46.912-1.813 2.936-3.807 5.655-6.382 7.903zM172.883 35.148c-1.886 5.837-4.279 11.42-7.725 16.531a62.06 62.06 0 01-12.475 13.668c-.29.217-.544.471-.797.725-1.669.834-3.047 2.139-4.57 3.154a95.202 95.202 0 01-17.915 9.244c-.145.037-.326.073-.471.109-.29-.399.036-.544.217-.725 3.554-3.408 5.767-7.577 7.253-12.217.146-.617.581-1.124 1.161-1.305 11.061-4.387 19.909-11.638 27.126-20.99.653-.835 1.306-1.705 2.103-2.792-2.248-.037-3.953 1.087-5.838 1.377-.363.037-.834.327-.907-.362 6.854-8.012 12.04-17.365 15.159-27.407.181-.653 0-1.523.906-1.85.073.037.109.11.073.182 0 .072-.036.109-.036.109a85.876 85.876 0 01-3.01 21.244c-.109.399-.182.834-.254 1.305z" fill="#161F42"/><path d="M129.874 110.771a43.407 43.407 0 015.838 8.157c.146.29.544.617.182.943-.29.254-.58-.073-.871-.181a125.735 125.735 0 00-22.701-6.163c-3.917-.689-7.87-.979-11.823-1.269a70.116 70.116 0 00-10.698.145c-8.123.652-16.029 2.392-23.572 5.655-2.32 1.015-4.678 1.922-6.854 3.263-.254.145-.544.399-.834.036a71.577 71.577 0 0121.469-10.296c10.59-3.154 21.36-3.915 32.348-3.081 5.585.435 11.133 1.305 16.573 2.538.363.036.653.145.943.253z" fill="#161F42"/><path d="M127.155 34.568h1.631c.871.363 1.85-.108 2.72.254h1.632c.145.798-.507 1.124-.943 1.486-7.543 6.381-15.013 12.798-22.556 19.142-2.503 2.103-4.969 4.205-7.435 6.308a2.34 2.34 0 00-.87 1.015c-3.264 1.233-6.31 2.755-8.704 5.402-1.124 1.269-1.885 2.719-2.683 4.169-2.249 1.45-4.134 3.372-6.165 5.075-5.367 4.496-10.662 9.1-16.03 13.559-.434.363-.76.906-1.268 1.196-.907-1.377-.726-2.9-.508-4.386.689-1.124 1.74-1.813 2.683-2.647 5.223-4.423 10.408-8.846 15.594-13.268 5.077-4.314 10.118-8.629 15.195-12.906 5.839-4.93 11.641-9.898 17.48-14.864 3.227-2.755 6.455-5.547 9.755-8.23.508-.326.834-.652.472-1.305z" fill="#5C94CE"/><path d="M222.603 104.21c-6.383-3.081-13.165-5.003-20.127-6.127-1.886-.29-3.736-.689-5.621-.689-2.43-1.522-4.824-3.154-7.326-4.604-8.087-4.676-16.936-7.867-26.183-9.353a9.83 9.83 0 01-.58-.217c2.756-.508 12.221.906 18.749 2.719a88.135 88.135 0 0117.588 6.888c-.58-1.777-1.668-2.937-2.321-4.35-.073-.363-.58-.69-.254-1.088.327-.4.762.036 1.088.181.943.435 1.85.943 2.792 1.378a127.794 127.794 0 0122.267 14.682c.363.471.363.471-.072.58z" fill="#161F42"/><path d="M127.155 34.568c.182.399.689.109.943.544-1.523 1.305-3.046 2.646-4.569 3.951l-8.377 7.07c-3.953 3.335-7.906 6.706-11.895 10.042-2.756 2.32-5.44 4.713-8.196 7.069-3.336 2.828-6.71 5.62-10.01 8.447-2.647 2.248-5.258 4.532-7.905 6.78L68.77 85.54l-2.792 2.356.797-3.553c-.435-1.16.508-1.667 1.125-2.211 2.538-2.103 5.04-4.278 7.543-6.417 5.875-4.967 11.713-9.97 17.588-14.936l15.123-12.834c4.678-3.988 9.392-7.94 14.034-12 .363-.326 1.052-.688.036-1.087 1.632-.58 3.3-.145 4.932-.29z" fill="#6497D0"/><path d="M122.259 34.858c.363.073.798-.144 1.197.182-.943 1.414-2.358 2.32-3.627 3.407-3.554 3.118-7.18 6.163-10.771 9.209-3.3 2.791-6.636 5.547-9.936 8.338-3.3 2.791-6.6 5.692-9.937 8.52-3.336 2.827-6.636 5.546-9.936 8.338-3.3 2.791-6.6 5.655-9.937 8.52-.979.87-2.32 1.45-2.575 2.936-1.74.217-2.683 1.667-3.952 2.61-2.031 1.45-3.59 3.444-5.44 5.075-1.886 1.342-3.554 2.937-5.295 4.423-5.222 4.423-10.408 8.882-15.63 13.269-.725.616-1.378 1.341-2.176 1.849-.362.217-.689.652-1.197.29a5.8 5.8 0 01.545-2.719c2.61-1.668 4.786-3.879 7.144-5.837C47.227 97.83 53.646 92.32 60.1 86.845c6.455-5.474 12.802-10.912 19.22-16.35l18.822-15.987a4101.184 4101.184 0 0019.22-16.35c1.269-1.088 2.611-2.103 3.808-3.263l1.088-.037z" fill="#689AD1"/><path d="M136.402 35.11c1.487-.035 2.902.363 4.352.544.399.87-.362 1.197-.798 1.596-1.813 1.595-3.699 3.081-5.476 4.712-.181-.253-.398-.507-.58-.76-.399-.58-.689-.436-.943.108-2.139 4.604-5.802 7.794-9.827 10.622a74.623 74.623 0 01-14.47 7.903c-.29-.507-.29-.544.181-1.015.979-1.015 2.104-1.849 3.155-2.755 7.725-6.562 15.449-13.087 23.137-19.722.435-.362.834-.797 1.269-1.232z" fill="#4E8FCC"/><path d="M136.4 35.112c-.036.435-.29.87-.653 1.124-4.968 4.205-9.936 8.447-14.905 12.652-3.807 3.227-7.579 6.49-11.387 9.752-.326.29-.979.508-.798 1.197-2.393 1.124-4.859 2.139-7.361 2.972-.834-.217-.145-.543 0-.688 1.487-1.305 2.973-2.61 4.497-3.88 2.756-2.356 5.548-4.712 8.34-7.069a1411.228 1411.228 0 0016.428-13.994c.871-.76 1.959-1.34 2.539-2.392 1.124-.073 2.212.29 3.3.326z" fill="#5591CD"/><path d="M117.108 67.811c2.865-1.414 5.875-2.61 8.378-4.676.507-.037.471.29.326.616-2.321 9.57-9.574 15.879-19.402 16.785-1.885.181-3.771.399-5.693.218.254-.69.906-.653 1.45-.798 2.14-.58 4.243-1.196 6.238-2.211 3.699-1.922 6.419-4.75 7.978-8.629.109-.507.363-.978.725-1.305z" fill="#161F42"/><path d="M117.108 67.811c-1.197 4.568-4.098 7.722-8.123 10.006-2.575 1.45-5.44 2.14-8.269 2.937-.689-2.03.073-3.734 1.269-5.293 1.415-1.813 3.373-2.937 5.44-3.88 3.155-1.45 6.383-2.682 9.683-3.77z" fill="#418AC9"/><path d="M33.048 111.787c1.596-.58 2.647-1.957 3.916-3.009 4.098-3.371 8.124-6.815 12.15-10.223a455.524 455.524 0 006.31-5.474c.58-.508 1.087-1.052 1.921-1.124-2.176 2.719-4.243 5.51-5.802 8.664-4.17 3.517-8.341 7.07-12.475 10.623-1.922 1.631-3.88 3.226-5.766 4.93-.29.254-.617.58-1.052.218.072-1.523.326-3.082.798-4.605z" fill="#6497D0"/><path d="M49.005 119.109c-1.27.109-1.85 1.233-2.72 1.922-3.59 2.9-7.035 5.873-10.516 8.882-1.161 1.015-2.285 2.03-3.518 2.973-.798.616-1.124.362-1.088-.581v-3.407c1.27-1.378 2.756-2.429 4.17-3.626 4.062-3.444 8.051-6.924 12.185-10.295.363-.29.653-.834 1.27-.472l.217 4.604z" fill="#468CCA"/><path d="M66.482 92.247c.037-.471.29-.87.69-1.124l9.791-8.265c2.684-2.248 5.33-4.568 8.015-6.852 1.414-1.197 2.792-2.43 4.17-3.626.254-.217.508-.398.761 0-.29 1.233-.652 2.466-.616 3.77-1.45 1.596-3.228 2.865-4.86 4.279a4830.963 4830.963 0 01-15.23 12.978c-.218.181-.363.399-.545.617-.979-.182-1.813-.834-2.176-1.777z" fill="#5591CD"/><path d="M32.213 116.426c1.16-.362 1.85-1.377 2.756-2.102 4.787-3.952 9.465-7.976 14.216-12 .761-.616 1.269-1.559 2.393-1.668a52.954 52.954 0 00-2.176 6.526c-.834-.073-1.269.58-1.813 1.051-4.932 4.242-9.9 8.411-14.832 12.616-.29.254-.58.616-1.052.471a17.031 17.031 0 01.508-4.894z" fill="#5C94CE"/><path d="M68.66 94.023c-.327-.616.217-.798.543-1.051 4.17-3.553 8.341-7.106 12.512-10.622 2.357-1.994 4.714-3.988 7.108-5.982.145-.073.326-.145.507-.181 0 1.123.181 2.211.508 3.262-1.414 1.668-3.228 2.9-4.86 4.314a940.695 940.695 0 01-11.06 9.39c-.254.181-.472.435-.544.725-1.56.58-3.12.797-4.715.145zM48.715 114.542c-1.523.87-2.756 2.139-4.098 3.263a409.875 409.875 0 00-10.48 8.882c-.943.834-1.814 1.74-3.01 2.284.145-1.45-.29-2.937.254-4.351 5.367-4.567 10.734-9.135 16.137-13.703.363-.326.762-.689 1.306-.435l-.109 4.06z" fill="#4E8FCC"/><path d="M48.859 110.445c-1.74.906-3.046 2.357-4.533 3.589-3.518 2.9-6.927 5.873-10.408 8.773-.762.653-1.306 1.668-2.466 1.777.145-1.088-.29-2.212.29-3.263 3.372-2.9 6.781-5.8 10.19-8.664 2.285-1.958 4.606-3.879 6.927-5.837.725-.616.544.072.58.399-.254 1.051-.399 2.139-.58 3.226z" fill="#5591CD"/><path d="M73.373 93.913c-.508-.362-.145-.616.109-.87 3.191-2.683 6.419-5.365 9.61-8.048 1.994-1.668 3.953-3.372 5.947-5.076.218-.253.472-.398.798-.47l.798 1.63c-.617.98-1.632 1.56-2.357 2.466-3.917 4.35-8.341 8.012-13.89 10.114a8.305 8.305 0 01-1.015.254z" fill="#488DCA"/><path d="M134.48 42c.508-1.523 2.104-1.994 3.047-3.082 1.015-1.16 2.647-1.668 3.264-3.263 1.196 0 2.32.327 3.445.508.979.181 1.051.616.362 1.232-1.487 1.305-2.973 2.647-4.46 3.916l-4.243 3.589a71.074 71.074 0 01-1.415-2.9z" fill="#468CCA"/><path d="M67.316 103.993c.254.616-.471.906-.399 1.45-.362-1.668-1.269-2.284-2.937-1.958-1.777.399-3.373 1.305-4.57 2.683-.326.362-.725.689-1.087 1.015-.29-.363 0-.689.108-1.015.726-2.357 2.321-4.024 4.316-5.366.435-.326.943-.544 1.487-.689 2.32-.543 3.59.581 3.264 2.937.036.326-.037.653-.182.943z" fill="#428AC9"/><path d="M67.32 103.993c0-.363.036-.725.036-1.088.036-2.356-1.306-3.262-3.518-2.247-2.539 1.16-4.134 3.226-5.259 5.728-.253.036-.398-.037-.326-.327.798-2.972 2.357-5.401 4.932-7.141.653-.436 1.378-.69 2.103-.834 1.197-.254 2.394.471 2.684 1.667a5.18 5.18 0 01-.653 4.242z" fill="#182144"/><path d="M88.28 83.545c-.472-.362-.037-.507.18-.689.762-.543 1.197-1.486 2.14-1.776 1.233 1.958 3.192 2.828 5.259 3.553.399.145.834.254 1.523.435-3.155.834-5.875.508-8.377-1.196a.913.913 0 00-.726-.327z" fill="#458CCA"/><path d="M200.373 88.911c-1.015-.109-1.74-.798-2.647-1.124-.362-.145-.689-.58-1.052-.29-.29.254.182.616.073.979-.544-.471-.762-1.196-1.052-1.885 1.632.652 3.228 1.305 4.678 2.32z" fill="#63657D"/><path d="M222.604 104.21c.29-.181 0-.399.036-.616l1.559.87.834 1.087c-1.015-.29-1.704-.87-2.429-1.341z" fill="#263154"/><path d="M160.119 82.748c.725-.108 1.487-.036 2.176.145-.87.508-1.451.435-2.176-.145z" fill="#A09AA9"/><path d="M55.893 208.582c.834.145 1.233.979 1.922 1.341l-.037.327a4.646 4.646 0 01-1.885-1.668z" fill="#424A7F"/><path d="M228.623 156.632l.471.29c.073.544-.181 1.015-.471 1.668v-1.958z" fill="#8CB7DE"/><path d="M160.048 41.638c.181.398.617.254.907.362l-1.451.58c-.109-.616.254-.761.544-.942z" fill="#5A5D76"/><path d="M58.287 106.059l.326.326c-.072.254-.18.544-.254.797l-.58.762c.145-.907.182-1.45.508-1.885z" fill="#4F668A"/><path d="M125.813 63.715c-.073-.217-.037-.507-.327-.616.073-.217.327-.507.436-.399.326.327.181.69-.109 1.015z" fill="#555A73"/><path d="M34.135 106.893c.362-1.957.761-3.915 1.632-5.728 3.191-2.247 6.02-4.93 8.993-7.432 5.15-4.35 10.3-8.7 15.413-13.087 4.678-3.988 9.356-7.976 14.07-11.963L89.476 55.74c4.606-3.915 9.247-7.83 13.853-11.782 3.228-2.755 6.528-5.474 9.683-8.302 1.704-.399 3.409-.616 5.149-.544.145-.145.363-.145.544-.072.399.652-.109 1.015-.507 1.377-4.389 3.698-8.74 7.432-13.128 11.166A4085.43 4085.43 0 0091.07 59.474c-4.315 3.662-8.594 7.323-12.91 10.985-5.222 4.46-10.48 8.882-15.739 13.341-6.527 5.51-13.019 11.094-19.546 16.604-2.539 2.139-5.005 4.314-7.58 6.38-.217.254-.653 1.088-1.16.109z" fill="#6D9CD2"/><path d="M113.013 35.655c-.472 1.523-1.922 2.103-2.974 3.045-3.445 3.046-6.999 5.982-10.48 8.955-3.917 3.299-7.87 6.598-11.787 9.933-3.409 2.9-6.745 5.837-10.154 8.737-3.3 2.792-6.636 5.547-9.936 8.375-3.3 2.828-6.564 5.655-9.864 8.447-3.3 2.791-6.6 5.583-9.937 8.374-2.72 2.32-5.403 4.64-8.123 6.96a121.58 121.58 0 01-3.337 2.756c-.253.181-.471.29-.689 0 .4-1.885 1.016-3.734 1.886-5.438 2.502-1.595 4.606-3.662 6.854-5.547 5.15-4.35 10.3-8.7 15.413-13.087a5276.588 5276.588 0 0115.92-13.559c4.388-3.734 8.776-7.431 13.128-11.166 5.693-4.821 11.351-9.715 17.081-14.5.435-.29.761-.69.942-1.125 1.995-.797 4.062-.76 6.057-1.16z" fill="#729FD4"/><path d="M107.027 36.743c.834.218.145.544 0 .689a172.624 172.624 0 01-4.678 4.097l-8.269 6.96c-4.025 3.372-8.05 6.78-12.076 10.187-3.3 2.792-6.564 5.656-9.864 8.447-3.409 2.9-6.818 5.764-10.227 8.628-3.3 2.792-6.563 5.62-9.863 8.447l-9.9 8.375c-1.198 1.015-2.394 2.03-3.627 3.045-.254.181-.508.653-.87.145.362-1.849 1.341-3.48 2.175-5.148 4.46-3.806 8.958-7.613 13.454-11.456 4.606-3.951 9.248-7.867 13.854-11.782 4.424-3.77 8.812-7.504 13.236-11.238 4.642-3.952 9.32-7.94 13.962-11.892 2.394-2.03 4.75-4.169 7.253-6.163 1.705-.797 3.59-1.015 5.44-1.34z" fill="#78A2D5"/><path d="M101.587 38.084c-1.74 2.248-4.062 3.806-6.165 5.655a782.07 782.07 0 01-8.34 7.106c-2.72 2.284-5.44 4.568-8.16 6.888-2.72 2.32-5.404 4.64-8.124 6.924-2.72 2.32-5.512 4.64-8.268 6.961-2.684 2.284-5.331 4.568-8.015 6.852-3.409 2.9-6.817 5.764-10.226 8.628-1.197 1.015-2.43 2.03-3.627 3.045a1.393 1.393 0 01-.834.399 36.564 36.564 0 013.264-6.526c6.201-5.039 12.258-10.295 18.35-15.48C68.514 62.52 75.585 56.574 82.62 50.52c3.952-3.408 8.087-6.67 11.93-10.26a45.265 45.265 0 017.036-2.175z" fill="#7DA5D6"/><path d="M94.517 40.296c.29.471-.217.616-.435.834-3.01 2.646-6.056 5.256-9.102 7.867-2.684 2.284-5.368 4.531-8.051 6.815-3.337 2.828-6.673 5.656-10.01 8.447-2.72 2.32-5.403 4.64-8.123 6.924-3.408 2.9-6.817 5.765-10.19 8.629-1.414 1.196-2.829 2.429-4.207 3.625-.362.362-.834.58-1.305.653a55.891 55.891 0 015.983-9.499c2.104-1.559 4.026-3.335 6.02-5.003a5855.963 5855.963 0 0015.485-13.16c3.99-3.407 7.979-6.815 11.968-10.187.616-.507 1.378-.87 1.85-1.559 3.19-1.993 6.672-3.154 10.117-4.386z" fill="#81A7D8"/><path d="M151.887 161.563c-2.72 2.247-5.44 4.531-9.067 6.09a30.533 30.533 0 002.394-6.598c2.14-9.426.145-18.018-5.404-25.812-1.378-1.921-3.227-3.408-4.859-5.112-.254-.29-.544-.616-1.015-.398-.508-.254-.726-.725-1.088-1.088.217-.29.471-.145.725 0 6.564 3.734 12.04 8.556 15.412 15.48a31.524 31.524 0 012.974 10.876 30.503 30.503 0 01-.072 6.562z" fill="#0E1F66"/><path d="M34.136 106.892c1.088.399 1.45-.689 1.994-1.124 5.513-4.568 10.952-9.208 16.392-13.885 5.15-4.386 10.227-8.81 15.376-13.196 5.73-4.858 11.496-9.68 17.262-14.537 5.15-4.387 10.263-8.81 15.413-13.196 5.548-4.713 11.097-9.462 16.682-14.211.58-.472 1.378-.726 1.487-1.632.326-.29.761.036 1.087-.254h1.379c-.399 1.45-1.814 1.958-2.793 2.828-2.829 2.538-5.766 4.93-8.631 7.36-3.3 2.791-6.636 5.582-9.936 8.374-2.684 2.284-5.331 4.568-8.015 6.852-3.953 3.335-7.942 6.67-11.858 10.042-2.684 2.284-5.331 4.568-8.015 6.852-3.409 2.9-6.818 5.764-10.227 8.628-2.683 2.284-5.33 4.568-8.014 6.852l-8.269 6.96c-2.756 2.32-5.476 4.713-8.232 7.033-.943.798-1.958 1.595-2.937 2.393-.218.181-.435.326-.69 0 0-.689.182-1.45.545-2.139z" fill="#699AD1"/><path d="M84.434 44.61c-.217 1.306-1.486 1.632-2.284 2.357-2.793 2.501-5.658 4.858-8.523 7.287-3.336 2.827-6.672 5.619-10.009 8.447-2.683 2.283-5.33 4.568-8.014 6.851-1.959 1.668-3.88 3.336-5.839 5.003-.217.182-.435.327-.689 0a52.018 52.018 0 014.75-6.199C60.21 60.924 67.5 54.471 75.84 49.287c2.792-1.704 5.548-3.48 8.594-4.677z" fill="#88ABD9"/><path d="M131.507 34.858c-.907-.108-1.85.29-2.72-.253.907.108 1.85-.29 2.72.253z" fill="#5591CD"/><path d="M119.792 34.857c-.29.399-.725.218-1.088.254h-.544c.508-.472 1.088-.182 1.632-.254z" fill="#689AD1"/><path d="M93.682 224.098a66.307 66.307 0 0026.038-4.096 78.113 78.113 0 0022.339-12.58c6.564-5.329 12.221-11.42 15.993-19.069 2.03-4.097 3.3-8.52 3.699-13.051.362-4.097-.327-7.976-1.451-11.819.109-.942.979-1.377 1.487-2.03 1.958-2.574 3.373-5.329 3.989-8.519.109-.435.254-.834.435-1.233a39.354 39.354 0 012.901 7.686c.943 3.734 1.487 7.54 1.197 11.383a44.897 44.897 0 01-5.838 18.961c-3.337 5.873-7.616 10.875-12.548 15.371-4.352 3.879-9.139 7.25-14.288 9.969-6.202 3.372-12.802 5.873-19.692 7.505-4.279 1.015-8.667 1.631-13.056 1.885-2.139.109-4.243.29-6.346.181-1.56-.145-3.227-.036-4.86-.544z" fill="#0E1F66"/></svg>