<svg width="256" height="256" fill="none" xmlns="http://www.w3.org/2000/svg"><g clip-path="url(#prefix__clip0_2147_4666)" fill="#DDB557"><path fill-rule="evenodd" clip-rule="evenodd" d="M43.722 64.125l2.267-6.678 5.175 6.678h-7.442zm23.941 21.292l-6.187-7.985H39.204l-2.71 7.985h31.169zm12.69 21.292l-.542-5.616-1.836-2.369H31.976l-2.71 7.985h51.087zm2.058 21.292l-.772-7.985H24.748l-2.71 7.985H82.41zm2.059 21.291l-.772-7.984H17.52l-2.711 7.984h69.66zm2.058 21.292l-.772-7.984H10.291l-2.71 7.984h78.947zm2.058 21.292l-.772-7.984H3.064l-1.73 5.093 2.948 2.891h84.304zm-70.737 13.308l8.138 7.983h64.657l-.772-7.983H17.849zM213.512 64.125l-2.267-6.678-5.175 6.678h7.442zm-23.941 21.292l6.187-7.985h22.271l2.711 7.985h-31.169zm-12.691 21.292l.543-5.616 1.836-2.369h45.999l2.71 7.985H176.88zm-2.058 21.292l.772-7.985h56.892l2.71 7.985h-60.374zm-2.058 21.291l.772-7.984h66.178l2.711 7.984h-69.661zm-2.058 21.292l.772-7.984h75.465l2.71 7.984h-78.947zm-2.058 21.292l.771-7.984h84.752l1.729 5.093-2.948 2.891h-84.304zm70.737 13.308l-8.139 7.983H166.59l.771-7.983h72.024z"/><path d="M59.67 52.232a139.313 139.313 0 017.875-2.438l32.175 52.692h-9.364L59.67 52.232zM105.493 102.486l-20.73-56.51c2.563-.438 5.253-.845 8.072-1.21l21.174 57.72h-8.516zM117.724 102.484L109.6 43.229c2.594-.144 5.269-.252 8.027-.318l8.168 59.573h-8.071zM129.625 102.484l8.133-59.313c2.733.136 5.4.312 7.999.52l-8.061 58.793h-8.071zM149.742 102.484h-8.515l20.89-56.949c2.786.407 5.466.847 8.035 1.31l-20.41 55.639zM164.53 102.485h-9.364l31.73-51.962c2.908.759 5.572 1.522 7.983 2.261l-30.349 49.701z"/></g><defs><clipPath id="prefix__clip0_2147_4666"><path fill="#fff" d="M0 0h256v256H0z"/></clipPath></defs></svg>