<svg width="255" height="220" fill="none" xmlns="http://www.w3.org/2000/svg"><path d="M254.88 136.848c0-36.241-14.539-70.999-40.418-96.625C188.583 14.596 153.483.199 116.883.199h-14.409v56.138L45.914.33H5.184l69.164 68.542H0v14.28c.003 36.241 14.543 70.996 40.422 96.623 25.878 25.626 60.977 40.023 97.575 40.026h14.42v-56.094l55.844 55.31h40.73l-68.459-67.889h74.348v-14.28zm-123.444-14.28H94.482a14.494 14.494 0 00-10.197 4.183 14.21 14.21 0 00-4.224 10.097c0 3.787 1.52 7.419 4.224 10.098a14.497 14.497 0 0010.197 4.182h29.094v39.176c-23.749-3.171-45.79-13.977-62.734-30.759-16.944-16.78-27.854-38.606-31.054-62.124h130.61a14.542 14.542 0 005.64-.971 14.43 14.43 0 004.813-3.068 14.274 14.274 0 003.23-4.68 14.16 14.16 0 000-11.11 14.27 14.27 0 00-3.23-4.681 14.423 14.423 0 00-4.813-3.067 14.548 14.548 0 00-5.64-.971h-29.094V29.696c23.749 3.17 45.789 13.975 62.736 30.753 16.945 16.779 27.859 38.603 31.063 62.119h-93.667zm16.072-39.906a11.245 11.245 0 011.905-6.303 11.417 11.417 0 015.122-4.19 11.545 11.545 0 016.611-.665 11.474 11.474 0 015.867 3.086 11.287 11.287 0 013.145 5.796 11.22 11.22 0 01-.639 6.548 11.354 11.354 0 01-4.207 5.093 11.52 11.52 0 01-6.356 1.916 11.495 11.495 0 01-8.079-3.297 11.267 11.267 0 01-3.369-7.984z" fill="#fff"/><path d="M164.186 87.849a5.146 5.146 0 00-.878-2.887 5.227 5.227 0 00-2.351-1.916 5.29 5.29 0 00-3.03-.297 5.255 5.255 0 00-2.685 1.42 5.177 5.177 0 00-1.435 2.66 5.14 5.14 0 00.301 3 5.204 5.204 0 001.934 2.328 5.277 5.277 0 006.61-.65 5.16 5.16 0 001.534-3.658z" fill="#fff"/></svg>