<svg width="256" height="255" fill="none" xmlns="http://www.w3.org/2000/svg"><g clip-path="url(#prefix__clip0_2164_546)"><circle cx="128.848" cy="127.152" r="127.152" fill="url(#prefix__paint0_linear_2164_546)"/><path fill-rule="evenodd" clip-rule="evenodd" d="M203.309 101.659c0 14.939-8.688 22.369-18.452 24.95C196.543 130.128 205 139.748 205 155v28h-44.594v-26.592c0-8.134-4.766-11.419-12.916-11.419H94.593V183H50V71h105.947c26.602 0 47.362 5.788 47.362 30.659zm-108.696.633h60.285c.09-.004.181 0 .271 0 4.145 0 7.506 3.418 7.506 7.635s-3.361 7.635-7.506 7.635c-.09 0-.181-.002-.271-.005l-60.285.005v-15.27z" fill="#000"/></g><defs><linearGradient id="prefix__paint0_linear_2164_546" x1="128.848" y1="258.543" x2="128.848" y2="0" gradientUnits="userSpaceOnUse"><stop stop-color="#FD9903"/><stop offset="1" stop-color="#FFE503"/></linearGradient><clipPath id="prefix__clip0_2164_546"><path fill="#fff" d="M0 0h256v254.305H0z"/></clipPath></defs></svg>