<svg width="256" height="256" fill="none" xmlns="http://www.w3.org/2000/svg"><g clip-path="url(#prefix__clip0_2147_4702)"><circle cx="128" cy="128" r="128" fill="#6966FB"/><circle cx="128" cy="128" r="120.396" fill="#000"/><path fill-rule="evenodd" clip-rule="evenodd" d="M200.237 63.113c0-4.06-3.235-7.35-7.224-7.35H84.39c-4.747 0-8.9.7-12.46 2.101-3.56 1.51-6.527 3.503-8.9 5.982-2.472 2.587-4.302 5.497-5.488 8.73a30.69 30.69 0 00-1.78 10.347v16.943c0 8.119 6.468 14.701 14.447 14.701h86.686l-43.343-29.402h79.461c3.989 0 7.224-3.291 7.224-7.35V63.112zM55.762 195.421c0 4.06 3.234 7.352 7.223 7.352H171.61c4.747 0 8.9-.701 12.459-2.102 3.561-1.509 6.527-3.503 8.9-5.982 2.473-2.587 4.302-5.497 5.489-8.73a30.71 30.71 0 001.78-10.347v-16.943c0-8.119-6.468-14.701-14.447-14.701H99.104l43.342 29.402h-79.46c-3.99 0-7.224 3.291-7.224 7.351v14.7z" fill="#6966FB"/></g><defs><clipPath id="prefix__clip0_2147_4702"><path fill="#fff" d="M0 0h256v256H0z"/></clipPath></defs></svg>