<svg width="256" height="256" fill="none" xmlns="http://www.w3.org/2000/svg"><path d="M251.001 27.598s-120.182 30.046-137.942 35.06c-64.352 18.136-61.822 69.811-61.802 70.206v.002c-.492 11.357 12.29 6.218 12.29 6.218L176.07 110.35s39.31-10.046 56.947-27.638c17.637-17.593 22.676-39.05 22.246-48.717-.328-7.404-4.261-6.397-4.261-6.397zM4.286 227.082s120.182-30.046 137.942-35.06c64.609-18.203 61.823-70.19 61.823-70.19.492-11.357-12.291-6.218-12.291-6.218L79.239 144.33s-39.33 10.045-56.968 27.638C4.634 189.561-.405 211.017.025 220.685c.328 7.403 4.26 6.397 4.26 6.397z" fill="#F7F7F8"/></svg>