<svg width="255" height="254" fill="none" xmlns="http://www.w3.org/2000/svg"><mask id="prefix__a" style="mask-type:luminance" maskUnits="userSpaceOnUse" x="0" y="-1" width="255" height="255"><path d="M0-.18h254.217v253.592H0V-.181z" fill="#fff"/></mask><g mask="url(#prefix__a)"><mask id="prefix__b" style="mask-type:luminance" maskUnits="userSpaceOnUse" x="0" y="-1" width="255" height="255"><path d="M0-.18h254.217v253.592H0V-.181z" fill="#fff"/></mask><g mask="url(#prefix__b)"><path d="M152.333 9.91l6.767 15.807c13.28 31.036 38.06 55.757 69.171 69.004l15.845 6.75c4.151 1.766 7.515 4.292 10.116 7.306C246.344 52.331 201.593 7.688 145.01-.181c3.013 2.588 5.554 5.952 7.323 10.092zM10.116 101.472l15.845-6.75C57.074 81.473 81.857 56.753 95.14 25.717l6.759-15.806a27.397 27.397 0 017.324-10.092C52.639 7.69 7.888 52.331 0 108.777c2.594-3.014 5.966-5.54 10.116-7.306zm234.008 50.297l-15.853 6.75c-31.112 13.249-55.893 37.973-69.171 69.011l-6.767 15.799a27.403 27.403 0 01-7.323 10.099c56.583-7.876 101.334-52.519 109.222-108.965a27.362 27.362 0 01-10.108 7.306zm-142.225 91.56l-6.76-15.799c-13.281-31.038-38.064-55.761-69.178-69.011l-15.845-6.75A27.39 27.39 0 010 144.462c7.888 56.446 52.64 101.089 109.223 108.965a27.464 27.464 0 01-7.324-10.099z" fill="#999"/></g><path d="M69.447 114.225l7.804-3.326a64.597 64.597 0 0034.094-34.003l3.326-7.793c4.669-10.906 20.178-10.906 24.847 0l3.326 7.793a64.6 64.6 0 0034.094 34.003l7.812 3.326c10.932 4.658 10.932 20.122 0 24.779l-7.812 3.326a64.587 64.587 0 00-34.094 34.011l-3.326 7.785c-4.669 10.906-20.178 10.906-24.847 0l-3.326-7.785a64.583 64.583 0 00-34.094-34.011l-7.804-3.326c-10.94-4.657-10.94-20.121 0-24.779z" fill="#fff"/></g></svg>