<svg width="256" height="256" fill="none" xmlns="http://www.w3.org/2000/svg"><g clip-path="url(#prefix__clip0_2147_4711)"><mask id="prefix__a" style="mask-type:luminance" maskUnits="userSpaceOnUse" x="-1" y="0" width="257" height="256"><path d="M255.385 0H-.307v255.692h255.692V0z" fill="#fff"/></mask><g mask="url(#prefix__a)"><path d="M53.053 24.675l198.014 135.402-49.041 72.174L4.012 95.923l49.04-71.248z" fill="url(#prefix__paint0_linear_2147_4711)"/><path d="M251.07 159.769c-16.964 24.366-74.641 14.805-128.926-23.441-55.21-37.012-85.127-87.287-69.089-111.653C70.02 0 127.696 9.562 181.98 48.115c55.21 36.088 85.128 87.288 69.09 111.654z" fill="url(#prefix__paint1_linear_2147_4711)"/><path d="M202.027 231.326c-16.964 24.366-74.641 14.805-128.925-23.441-54.284-38.246-85.128-87.287-68.164-112.887C21.902 70.632 79.58 80.193 133.863 118.44c54.285 38.246 84.203 88.212 68.164 112.887z" fill="url(#prefix__paint2_linear_2147_4711)"/><path d="M251.066 159.769l-49.041 72.482c-16.964 24.366-74.641 13.88-128.925-23.441-10.795-7.402-20.357-14.805-29.918-23.441 7.402-.925 16.963-5.243 26.525-16.038 16.964-18.198 25.6-22.516 33.002-21.282 7.403 0 16.039 7.402 29.918 25.6 13.88 18.197 33.003 23.441 44.723 13.879.926-.925 2.159-.925 3.085-2.159 9.561-7.402 12.645-10.795 30.843-44.723 4.318-8.636 19.123-22.515 39.48-16.038 5.86 13.879 5.86 25.6.308 35.161z" fill="#0E0F23"/><path fill-rule="evenodd" clip-rule="evenodd" d="M243.668 155.759c-14.804 21.282-67.238 10.795-117.204-24.367-51.2-35.47-80.81-80.192-66.005-101.474 14.805-21.282 67.238-10.795 117.205 24.366 49.966 35.161 79.884 80.193 66.004 101.475zm-46.881-32.077c-7.403 10.795-33.003 5.243-58.603-11.721-24.366-16.964-39.48-39.48-31.769-49.966 7.711-10.487 33.003-5.243 58.603 11.72 24.366 16.964 39.171 39.171 31.769 49.967z" fill="#fff"/><path d="M48.734 49.04c0-.925-.925-2.159-2.159-.925-.925.925-2.159.925-2.159 2.159.925 3.084 2.159 5.243 2.159 7.402 0 .926.925 2.16 2.16.925.924 0 2.158-.925.924-2.158.309-1.851.309-4.01-.925-7.403zM53.977 66.314c0-.925-.925-2.158-2.16-.925-.924.925-.924.925-.924 2.16 11.72 26.525 36.086 55.517 68.163 76.799.926.926 2.159 0 3.085 0 .925-.925 0-2.159 0-3.084-33.003-21.899-56.444-49.658-68.164-74.95zM182.907 170.563c-.925 0-2.159-.001-2.159.925 0 .925 0 2.159.925 2.159 3.085.925 7.403 2.159 10.796 3.084.925 0 2.159 0 2.159-.925s0-2.159-.926-2.159c-3.392-.925-7.402-2.159-10.795-3.084zM202.026 174.882c-.925 0-2.159.925-2.159 2.159 0 1.234.925 2.159 2.159 2.159 8.636.925 18.198 2.159 25.6.925.926 0 2.159-.925 2.159-2.159 0-1.234-.925-2.159-2.159-2.159-8.327 1.234-16.964 0-25.6-.925z" fill="#fff"/></g></g><defs><linearGradient id="prefix__paint0_linear_2147_4711" x1="91.888" y1="5.368" x2="131.181" y2="140.293" gradientUnits="userSpaceOnUse"><stop stop-color="#03B8FF"/><stop offset="1" stop-color="#FA52A0"/></linearGradient><linearGradient id="prefix__paint1_linear_2147_4711" x1="124.084" y1="-4.008" x2="163.377" y2="130.918" gradientUnits="userSpaceOnUse"><stop stop-color="#03B8FF"/><stop offset="1" stop-color="#FA52A0"/></linearGradient><linearGradient id="prefix__paint2_linear_2147_4711" x1="60.077" y1="14.632" x2="99.37" y2="149.559" gradientUnits="userSpaceOnUse"><stop stop-color="#03B8FF"/><stop offset="1" stop-color="#FA52A0"/></linearGradient><clipPath id="prefix__clip0_2147_4711"><path fill="#fff" d="M0 0h256v256H0z"/></clipPath></defs></svg>