<svg width="256" height="256" fill="none" xmlns="http://www.w3.org/2000/svg"><g clip-path="url(#prefix__clip0_2147_2176)"><circle cx="128" cy="128" r="128" fill="#fff"/><path d="M119.376 113.027c11.186 8.755 23.901 15.296 34.227 25.301 16.54 16.066 24.475 37.711 14.245 60.03-10.708 23.281-37.286 41.463-67.689 34.151-25.814-6.253-43.693-28.475-44.553-55.315-.383-12.218 2.007-23.666 8.317-34.152 1.148-1.828 1.052-2.886-.956-3.944-1.53-.77-4.015-1.443-3.92-3.079.096-1.635 2.678-1.924 4.303-2.789 7.744-4.041 15.488-8.081 23.232-12.026 1.052-.577 2.008-1.346 3.633-1.346-.478 11.64-.956 23.184-1.53 35.017-2.485-.77-4.302-2.213-6.214-3.56-1.625-1.154-2.486-1.25-3.633.674-13.194 23.088-3.442 57.047 26.197 63.493 18.834 4.136 35.757-6.446 43.883-19.144 9.37-14.719 7.649-29.438-4.684-42.714-2.582-2.79-5.354-5.483-8.127-8.177-1.817-6.253-5.737-11.448-8.605-17.22-2.677-5.002-6.119-9.716-8.126-15.2z" fill="#8D8EF9"/><path d="M119.375 113.027c2.007 5.483 5.449 10.197 8.031 15.488 2.868 5.772 6.788 10.967 8.604 17.22-7.553-5.195-15.297-10.293-22.659-15.777-8.509-6.253-15.488-13.949-20.46-23.377-7.17-13.757-8.126-28.187-1.72-42.425 8.987-20.298 24.475-33.574 46.273-37.518 23.424-4.33 46.944 8.465 57.843 29.822 9.943 19.433 9.083 38.673-1.434 57.529-2.008 3.559-1.53 5.194 1.912 6.638 1.434.577 2.581 1.635 4.589 2.886-10.804 5.579-21.225 10.967-32.22 16.739.478-12.218.956-23.858 1.53-36.172 2.103 1.347 3.824 2.309 5.45 3.463 1.625 1.155 2.581.962 3.633-.769 12.046-19.24 6.884-44.927-11.76-57.529-15.201-10.293-34.705-8.177-48.664 5.195-5.354 5.099-9.847 10.775-12.429 17.893-4.971 13.853-.478 25.398 8.605 35.787 1.529 1.732 3.25 3.271 4.876 4.907z" fill="#51559C"/></g><defs><clipPath id="prefix__clip0_2147_2176"><path fill="#fff" d="M0 0h256v256H0z"/></clipPath></defs></svg>