<svg width="256" height="256" fill="none" xmlns="http://www.w3.org/2000/svg"><path d="M188.063 121.374c22.981-12.756 43.408-24.492 43.408-24.492L127.803 39.48v113.401c3.574-1.148 12.894-5.74 24.512-11.863l35.748 20.665v-40.309z" fill="url(#prefix__paint0_linear_2147_2147)"/><path d="M127.803 39.48L24.135 92.673s90.518 51.789 103.668 55.999V39.481z" fill="url(#prefix__paint1_linear_2147_2147)"/><path d="M188.063 161.555l-60.388-34.824-79.155 45.794 79.283 45.795 79.41-45.795v-22.067l-19.15 11.097z" fill="url(#prefix__paint2_linear_2147_2147)"/><path d="M95.246 91.143v82.276l32.684 18.879v-82.277L95.246 91.143z" fill="url(#prefix__paint3_linear_2147_2147)"/><path d="M127.932 110.021v82.149l32.683-18.879V91.143l-32.683 18.878z" fill="url(#prefix__paint4_linear_2147_2147)"/><path d="M78.394 129.283L48.52 146.504v26.022l48.898-28.191-19.023-15.052z" fill="url(#prefix__paint5_linear_2147_2147)"/><path d="M80.055 128.39L48.52 146.504l-31.79-18.241 31.535-18.114 31.79 18.241z" fill="url(#prefix__paint6_linear_2147_2147)"/><path d="M15.965 66.268v37.375l111.839 64.545v-37.375L15.964 66.268z" fill="url(#prefix__paint7_linear_2147_2147)"/><path d="M48.52 146.504l-32.684-18.879v63.525l111.839 64.545V218.32l-79.156-45.666v-26.15z" fill="url(#prefix__paint8_linear_2147_2147)"/><path d="M127.804 1.723L15.964 66.268l32.684 18.879 79.156-45.667 60.26 34.697 32.684-18.88-92.944-53.574z" fill="url(#prefix__paint9_linear_2147_2147)"/><path d="M95.248 91.143l32.684 18.879L160.36 91.27l-32.684-18.878-32.428 18.751z" fill="url(#prefix__paint10_linear_2147_2147)"/><path d="M187.936 74.177v87.378l32.683-18.878v-87.38l-32.683 18.88z" fill="url(#prefix__paint11_linear_2147_2147)"/><path d="M127.676 130.813v37.375l79.155-45.666v50.258l-79.155 45.667v37.375l111.839-64.545V66.267l-111.839 64.546z" fill="url(#prefix__paint12_linear_2147_2147)"/><defs><linearGradient id="prefix__paint0_linear_2147_2147" x1="180.877" y1="-31.368" x2="177.426" y2="166.695" gradientUnits="userSpaceOnUse"><stop stop-color="#0098A6"/><stop offset="1" stop-color="#002D4D"/></linearGradient><linearGradient id="prefix__paint1_linear_2147_2147" x1="75.895" y1="220.67" x2="75.895" y2="-21.8" gradientUnits="userSpaceOnUse"><stop stop-color="#0098A6"/><stop offset="1" stop-color="#002D4D"/></linearGradient><linearGradient id="prefix__paint2_linear_2147_2147" x1="-48.15" y1="49.663" x2="72.162" y2="278.77" gradientUnits="userSpaceOnUse"><stop offset=".27" stop-color="#0098A6"/><stop offset="1" stop-color="#002D4D"/></linearGradient><linearGradient id="prefix__paint3_linear_2147_2147" x1="113.166" y1="59.115" x2="86.769" y2="200.834" gradientUnits="userSpaceOnUse"><stop stop-color="#0098A6"/><stop offset="1" stop-color="#002D4D"/></linearGradient><linearGradient id="prefix__paint4_linear_2147_2147" x1="144.201" y1="1.736" x2="144.201" y2="192.698" gradientUnits="userSpaceOnUse"><stop stop-color="#0098A6"/><stop offset="1" stop-color="#002D4D"/></linearGradient><linearGradient id="prefix__paint5_linear_2147_2147" x1="161.423" y1="96.448" x2="34.146" y2="187.131" gradientUnits="userSpaceOnUse"><stop offset=".27" stop-color="#0098A6"/><stop offset="1" stop-color="#002D4D"/></linearGradient><linearGradient id="prefix__paint6_linear_2147_2147" x1="-47.001" y1="70.596" x2="90.958" y2="321.268" gradientUnits="userSpaceOnUse"><stop offset=".27" stop-color="#0098A6"/><stop offset="1" stop-color="#002D4D"/></linearGradient><linearGradient id="prefix__paint7_linear_2147_2147" x1="-54.954" y1="32.745" x2="304.011" y2="320.767" gradientUnits="userSpaceOnUse"><stop offset=".088" stop-color="#26FFED"/><stop offset=".39" stop-color="#18C4CD"/><stop offset=".631" stop-color="#0B90B1"/><stop offset=".869" stop-color="#0370A0"/><stop offset=".994" stop-color="#006499"/></linearGradient><linearGradient id="prefix__paint8_linear_2147_2147" x1="-74.315" y1="97.887" x2="358.332" y2="317.747" gradientUnits="userSpaceOnUse"><stop offset=".098" stop-color="#26FFED"/><stop offset=".381" stop-color="#18C4CD"/><stop offset=".631" stop-color="#0B90B1"/><stop offset=".869" stop-color="#0370A0"/><stop offset=".993" stop-color="#006499"/></linearGradient><linearGradient id="prefix__paint9_linear_2147_2147" x1="270.157" y1="-38.547" x2="167.56" y2="366.507" gradientUnits="userSpaceOnUse"><stop stop-color="#26FFED"/><stop offset=".315" stop-color="#18C4CD"/><stop offset=".631" stop-color="#0B90B1"/><stop offset=".869" stop-color="#0370A0"/><stop offset="1" stop-color="#006499"/></linearGradient><linearGradient id="prefix__paint10_linear_2147_2147" x1="32.949" y1="151.884" x2="269.828" y2="-303.414" gradientUnits="userSpaceOnUse"><stop stop-color="#26FFED"/><stop offset=".315" stop-color="#18C4CD"/><stop offset=".631" stop-color="#0B90B1"/><stop offset=".869" stop-color="#0370A0"/><stop offset="1" stop-color="#006499"/></linearGradient><linearGradient id="prefix__paint11_linear_2147_2147" x1="204.73" y1="-8.692" x2="198.515" y2="154.572" gradientUnits="userSpaceOnUse"><stop stop-color="#0098A6"/><stop offset="1" stop-color="#002D4D"/></linearGradient><linearGradient id="prefix__paint12_linear_2147_2147" x1="-89.477" y1="299.422" x2="390.638" y2="214.698" gradientUnits="userSpaceOnUse"><stop stop-color="#26FFED"/><stop offset=".315" stop-color="#18C4CD"/><stop offset=".631" stop-color="#0B90B1"/><stop offset=".869" stop-color="#0370A0"/><stop offset="1" stop-color="#006499"/></linearGradient></defs></svg>