<svg width="256" height="256" fill="none" xmlns="http://www.w3.org/2000/svg"><g clip-path="url(#prefix__clip0_1433_886)" fill-rule="evenodd" clip-rule="evenodd"><path d="M128 0c70.451 0 128 57.651 128 128 0 70.451-57.651 128-128 128C57.549 256 0 198.349 0 128 0 57.549 57.651 0 128 0z" fill="#3576EE"/><path d="M87.452 62.362h43.315c4.403 0 7.987 3.584 7.987 7.988v43.622c0 4.403-3.584 7.987-7.987 7.987H87.452c-4.403 0-7.987-3.584-7.987-7.987V70.35c0-4.404 3.584-7.988 7.987-7.988zM141.21 121.447h28.058c2.867 0 5.12 2.355 5.12 5.12v28.263c0 2.867-2.355 5.12-5.12 5.12H141.21c-3.277 0-5.632-.205-5.632 5.017v25.805c0 2.56-2.15 4.71-4.71 4.71h-25.703c-2.56 0-4.71-2.15-4.71-4.71v-25.805c0-2.56 2.15-4.71 4.71-4.71h25.703c3.993 0 5.222-1.434 5.222-5.427v-28.263c0-2.867 2.355-5.12 5.12-5.12z" fill="#fff"/></g><defs><clipPath id="prefix__clip0_1433_886"><path fill="#fff" d="M0 0h256v256H0z"/></clipPath></defs></svg>