<svg width="233" height="233" viewBox="0 0 233 233" fill="none" xmlns="http://www.w3.org/2000/svg">
<rect width="233" height="233" fill="black"/>
<path d="M233 116.5C233 180.841 180.841 233 116.5 233C52.1588 233 -4.85794e-07 180.841 -4.85794e-07 116.5C-4.85794e-07 52.1588 52.1588 2.32425e-05 116.5 2.32425e-05C180.841 2.32425e-05 233 52.1588 233 116.5Z" fill="black"/>
<path fill-rule="evenodd" clip-rule="evenodd" d="M170.544 68.7805L163.71 169.285C163.659 169.336 163.608 169.386 163.556 169.435C163.244 171.819 162.382 173.782 160.927 175.237C154.344 181.819 137.363 176.262 118.012 162.602L122.847 157.767C127.752 161.173 132.447 163.999 136.78 166.177C142.625 169.117 147.461 170.702 151.05 171.141C154.742 171.592 155.91 170.731 156.166 170.475C156.421 170.22 157.282 169.052 156.831 165.36C156.392 161.771 154.807 156.935 151.868 151.09C146.359 140.136 136.716 126.862 124.007 113.753L65.5894 172.171L66.7078 161.53L119.246 108.992C106.138 96.2836 92.8639 86.6408 81.9104 81.1324C76.0653 78.193 71.2292 76.6083 67.6404 76.1693C63.9485 75.7177 62.7802 76.579 62.5246 76.8345C62.2691 77.09 61.4078 78.2583 61.8594 81.9503C62.2984 85.5391 63.8832 90.3752 66.8226 96.2202C69.0013 100.553 71.8269 105.248 75.2332 110.153L70.3983 114.988C56.7385 95.6369 51.1808 78.6556 57.7632 72.0731C59.2192 70.6171 61.184 69.7551 63.5707 69.4433C63.6182 69.3935 63.6663 69.3443 63.7149 69.2957L164.224 62.4611L171.005 62L170.544 68.7805ZM127.57 71.7027L158.648 69.5894L144.006 84.2322C138.097 78.6089 132.327 74.5441 127.57 71.7027ZM114.471 72.5935L84.0227 74.664C95.9392 80.4878 110.159 90.7916 124.008 104.23L139.243 88.995C132.863 82.943 126.678 78.8371 121.954 76.1986C119.333 74.7344 117.165 73.7243 115.67 73.0861C115.202 72.8862 114.8 72.7228 114.471 72.5935ZM143.964 93.7964L128.769 108.991C142.211 122.844 152.518 137.068 158.341 148.987L160.477 117.565C160.333 117.254 160.153 116.877 159.936 116.44C159.224 115.002 158.115 112.911 156.556 110.359C153.829 105.898 149.73 100.038 143.964 93.7964ZM148.729 89.0319C154.299 95.0384 158.414 100.729 161.311 105.301L163.416 74.3444L148.729 89.0319ZM93.8054 107.452L71.3052 129.952L70.1868 140.593L100.219 110.561L93.8054 107.452ZM122.439 132.781L92.4438 162.776L103.085 161.658L125.986 138.757L122.439 132.781Z" fill="url(#paint0_linear_240_2345)"/>
<defs>
<linearGradient id="paint0_linear_240_2345" x1="55" y1="62" x2="171" y2="178.005" gradientUnits="userSpaceOnUse">
<stop stop-color="#FFB0AB"/>
<stop offset="0.463542" stop-color="#FF6D63"/>
<stop offset="1" stop-color="#FF4337"/>
</linearGradient>
</defs>
</svg>
