<svg width="241" height="245" fill="none" xmlns="http://www.w3.org/2000/svg"><g clip-path="url(#prefix__clip0_2147_4684)"><mask id="prefix__a" style="mask-type:luminance" maskUnits="userSpaceOnUse" x="0" y="-1" width="228" height="246"><path fill-rule="evenodd" clip-rule="evenodd" d="M122.343-.08c-4.352 0-8.704.24-13.022.712C48.086 7.15.385 59.16.385 122.355c0 67.578 54.587 122.375 121.958 122.375h.273a120.921 120.921 0 0055.757-13.674c4.924-2.573 2.799-10.036-2.731-9.882h-.23c-48.777 1.244-92.57-19.463-110.404-57.833-10.71-22.972-10.274-44.237-5.291-61.042l.12-.437c2.551-10.354 7.321-19.901 14.37-27.339a18.926 18.926 0 011.758-1.852c.392-.42.819-.807 1.262-1.159.162-.18.333-.352.512-.514.171-.12.29-.249.453-.37a6.377 6.377 0 011.024-.831A66.839 66.839 0 01121.78 54.69c36.378 0 65.894 28.53 65.894 63.744a61.779 61.779 0 01-10.223 34.055c29.082-10.08 49.886-37.023 49.878-68.65 0-18.006-6.759-34.476-17.989-47.223a120.839 120.839 0 00-15.249-13.28l-.042-.042a121.048 121.048 0 00-71.51-23.384l-.196.009z" fill="#fff"/></mask><g mask="url(#prefix__a)"><path fill-rule="evenodd" clip-rule="evenodd" d="M122.343-.08c-4.352 0-8.704.24-13.022.712C48.086 7.15.385 59.16.385 122.355c0 67.578 54.587 122.375 121.958 122.375h.273a120.921 120.921 0 0055.757-13.674c4.924-2.573 2.799-10.036-2.731-9.882h-.23c-48.777 1.244-92.57-19.463-110.404-57.833-10.71-22.972-10.274-44.237-5.291-61.042l.12-.437c2.551-10.354 7.321-19.901 14.37-27.339a18.926 18.926 0 011.758-1.852c.392-.42.819-.807 1.262-1.159.162-.18.333-.352.512-.514.171-.12.29-.249.453-.37a6.377 6.377 0 011.024-.831A66.839 66.839 0 01121.78 54.69c36.378 0 65.894 28.53 65.894 63.744a61.779 61.779 0 01-10.223 34.055c29.082-10.08 49.886-37.023 49.878-68.65 0-18.006-6.759-34.476-17.989-47.223a120.839 120.839 0 00-15.249-13.28l-.042-.042a121.048 121.048 0 00-71.51-23.384l-.196.009z" fill="url(#prefix__paint0_linear_2147_4684)"/></g><mask id="prefix__b" style="mask-type:luminance" maskUnits="userSpaceOnUse" x="64" y="35" width="179" height="171"><path fill-rule="evenodd" clip-rule="evenodd" d="M226.636 83.129c0 31.601-19.806 58.554-47.556 68.641a70.12 70.12 0 01-24.338 4.298c-26.683 0-49.954-14.746-62.37-36.68-3.02-5.344-5.393-14.437-7.014-22.166-1.519-7.325-11.025-9.238-15.215-3.053a22.432 22.432 0 00-3.191 6.948c-.086.36-.188.72-.265 1.072a1.065 1.065 0 00-.043.326 75.209 75.209 0 00-1.664 25.623 73.669 73.669 0 002.048 11.383 81.772 81.772 0 004.898 14.317c15.164 34.209 49.152 55.243 93.91 51.588a110.31 110.31 0 0013.167-1.887c36.923-7.84 63.547-41.518 63.769-81.183v-.738a117.43 117.43 0 00-.879-14.711c-2.946-26.545-14.347-51.422-32.503-70.924a73.024 73.024 0 0117.246 47.137v.009z" fill="#fff"/></mask><g mask="url(#prefix__b)"><path fill-rule="evenodd" clip-rule="evenodd" d="M226.636 83.129c0 31.601-19.806 58.554-47.556 68.641a70.12 70.12 0 01-24.338 4.298c-26.683 0-49.954-14.746-62.37-36.68-3.02-5.344-5.393-14.437-7.014-22.166-1.519-7.325-11.025-9.238-15.215-3.053a22.432 22.432 0 00-3.191 6.948c-.086.36-.188.72-.265 1.072a1.065 1.065 0 00-.043.326 75.209 75.209 0 00-1.664 25.623 73.669 73.669 0 002.048 11.383 81.772 81.772 0 004.898 14.317c15.164 34.209 49.152 55.243 93.91 51.588a110.31 110.31 0 0013.167-1.887c36.923-7.84 63.547-41.518 63.769-81.183v-.738a117.43 117.43 0 00-.879-14.711c-2.946-26.545-14.347-51.422-32.503-70.924a73.024 73.024 0 0117.246 47.137v.009z" fill="url(#prefix__paint1_linear_2147_4684)"/></g></g><defs><linearGradient id="prefix__paint0_linear_2147_4684" x1=".385" y1="244.73" x2="227.329" y2="244.73" gradientUnits="userSpaceOnUse"><stop stop-color="#2D2D4B"/><stop offset="1" stop-color="#1D1D3A"/></linearGradient><linearGradient id="prefix__paint1_linear_2147_4684" x1="64.554" y1="205.838" x2="242.772" y2="205.838" gradientUnits="userSpaceOnUse"><stop stop-color="#95A1D4"/><stop offset="1" stop-color="#594DA0"/></linearGradient><clipPath id="prefix__clip0_2147_4684"><path fill="#fff" d="M0 0h241v245H0z"/></clipPath></defs></svg>