<svg width="256" height="256" fill="none" xmlns="http://www.w3.org/2000/svg"><path d="M213.974 187.574l.067 23.449-35.818 20.718-.067-23.382 35.818-20.785z" fill="#3C1A26"/><path d="M178.222 231.742l-63.329-36.906-.067-23.449 63.396 36.906v23.449z" fill="#29121A"/><path d="M178.156 208.36l-63.396-36.906 35.818-20.718 63.396 36.906-35.818 20.718z" fill="#421D2A"/><path d="M172.908 211.157l.066 23.449-35.818 20.718-.066-23.449 35.818-20.718z" fill="#3C1A26"/><path d="M137.156 255.325L73.76 218.419l-.067-23.383 63.397 36.906.066 23.383z" fill="#29121A"/><path d="M137.09 231.941l-63.397-36.906 35.819-20.718 63.329 36.906-35.751 20.718z" fill="#421D2A"/><path d="M212.844 147.138l.067 33.375-86.921 50.362-.066-33.375 86.92-50.362z" fill="#DB5B54"/><path d="M125.991 230.875l-86.39-50.362-.066-33.375 86.389 50.362.067 33.375z" fill="#A24741"/><path d="M125.858 197.434l-86.39-50.362 86.988-50.363 86.389 50.363-86.987 50.362z" fill="#DB5B54"/><path d="M212.38 80.321l.199 66.817-86.987 50.363-.199-66.817 86.987-50.363z" fill="#BD967F"/><path d="M125.592 197.434l-86.389-50.362-.2-66.75 86.39 50.362.199 66.75z" fill="#886B59"/><path d="M125.393 130.618l-86.39-50.363 86.988-50.362 86.389 50.362-86.987 50.363z" fill="#B88D73"/><path d="M168.985 122.689l.067 13.324-11.63 6.728v13.324l11.63-6.729-23.193 13.457-.066-26.714 23.192-13.39z" fill="#fff"/><path d="M169.051 136.013l.067 13.39-11.63 6.728v-13.323l11.563-6.795z" fill="#493239"/><path d="M203.143 102.904l.067 13.39-11.63 6.729v13.323l11.63-6.728-23.192 13.39-.067-26.714 23.192-13.39z" fill="#fff"/><path d="M203.143 116.295v13.323l-11.629 6.729v-13.324l11.629-6.728z" fill="#493239"/><path d="M73.56 213.888l-.067 20.052-28.973-16.788.066-20.051 28.974 16.787z" fill="#886B59"/><path d="M73.559 213.888l28.774-16.787-.067 20.051-28.774 16.788.067-20.052z" fill="#BD967F"/><path d="M44.52 197.101l28.774-16.788 28.973 16.788-28.774 16.787-28.973-16.787z" fill="#CAA390"/><path d="M82.265 205.561v13.39l-8.705-5.063L44.586 197.1l-8.705-5.062.066-13.391 46.318 26.914z" fill="#A24741"/><path d="M82.266 205.561l28.774-16.788v13.39l-28.774 16.721v-13.323z" fill="#C4524C"/><path d="M35.88 178.715l28.775-16.787 46.384 26.846-28.774 16.788-46.384-26.847zM212.446 50.41l.066 33.375-86.987 50.363-.066-33.375 86.987-50.363z" fill="#DB5B54"/><path d="M125.592 134.148L39.203 83.785l-.066-33.375 86.389 50.363.066 33.375z" fill="#A24741"/><path d="M125.459 100.773L39.07 50.41 126.057.048l86.389 50.362-86.987 50.363z" fill="#F2716A"/><path d="M196.632 109.167a88.215 88.215 0 0123.192-9.526v13.323a83.954 83.954 0 00-23.192 9.526c-8.374 4.93-16.082 10.726-23.193 17.321v-13.324a131.534 131.534 0 0123.193-17.32z" fill="#DB5B54"/><path d="M173.436 139.877l-28.774-16.788-.066-13.39 28.774 16.788.066 13.39z" fill="#A24741"/><path d="M173.438 126.487l-28.774-16.788c7.044-6.595 14.819-12.457 23.192-17.32 8.307-4.93 22.993-9.86 22.993-9.86l29.04 17.188s-14.886 4.463-23.259 9.393c-8.373 4.996-16.148 10.792-23.192 17.387z" fill="#F2716A"/><path d="M200.751 173.851l-5.781-3.331-1.529-1.066 5.782 3.331 1.528 1.066zM189.586 186.176l-5.781-3.331-2.991-2.664 5.782 3.331 2.99 2.664z" fill="#898989"/><path d="M131.307 200.897l-5.782-3.331v-2.131l5.782 3.33v2.132z" fill="#888"/><path d="M218.825 138.545v11.658l-18.141 23.649-1.529-1.132-9.569 13.456-2.99-2.665-11.43 17.721-11.497-4.464-2.99 6.196-9.636-2.332-1.528 2.865-18.208-2.665v-11.658l87.518-50.629z" fill="#D6D6D6"/><path d="M131.307 198.766l-5.782-3.331v-9.526l5.782 3.331v9.526z" fill="#888"/><path d="M131.24 189.173l-5.781-3.331 87.585-50.696 5.781 3.331-87.585 50.696z" fill="#FDFDFD"/><path d="M82.465 143.208l5.781-3.331 37.28 45.966-5.781 3.331-37.28-45.966zM119.811 189.174l5.781-3.331 5.781 3.331-5.781 3.33-5.781-3.33z" fill="#FDFDFD"/><path d="M125.594 192.505l5.781-3.331v11.724l-5.781 3.331v-11.724z" fill="#D6D6D6"/><path d="M82.597 115.828l-.066 27.446 37.28 45.899 5.781 3.331v11.725l-43.194-26.381-10.3-5.929-5.117-2.997v-11.858l5.183-19.852.066-27.446 10.367 6.062z" fill="#898989"/><path d="M82.596 115.828l5.781-3.331-.066 27.446-5.782 3.331.067-27.446z" fill="#FDFDFD"/><path d="M72.297 109.833l5.781-3.331 10.3 5.929-5.78 3.331-10.301-5.929z" fill="#DCDCDC"/></svg>