<svg width="256" height="256" fill="none" xmlns="http://www.w3.org/2000/svg"><path d="M99.366 61.206c-2.729-.39-2.859-.52-1.56-.65 2.47-.39 8.187.13 12.216 1.04 9.356 2.209 17.803 7.926 26.769 17.932l2.339 2.73 3.379-.52c14.425-2.34 29.239-.52 41.584 5.198 3.379 1.559 8.706 4.678 9.356 5.457.26.26.65 1.95.91 3.639.91 6.108.52 10.656-1.43 14.164-1.039 1.95-1.039 2.469-.389 4.159.519 1.299 2.079 2.209 3.508 2.209 3.119 0 6.368-4.938 7.927-11.825l.65-2.729 1.169 1.299c6.628 7.407 11.826 17.673 12.606 24.95l.259 1.95-1.169-1.69c-1.949-2.989-3.769-4.938-6.238-6.627-4.418-2.989-9.096-3.899-21.441-4.548-11.176-.65-17.543-1.56-23.781-3.639-10.656-3.509-16.114-8.057-28.719-24.82-5.588-7.407-9.096-11.436-12.605-14.815-7.667-7.407-15.334-11.305-25.34-12.864z" fill="#FF007A"/><path d="M196.178 77.71c.26-4.938.909-8.187 2.339-11.176.52-1.17 1.039-2.209 1.169-2.209.13 0-.13.91-.52 1.95-1.039 2.858-1.169 6.887-.519 11.435.909 5.848 1.299 6.627 7.537 12.995 2.859 2.989 6.237 6.757 7.537 8.317l2.209 2.859-2.209-2.08c-2.729-2.599-8.967-7.537-10.396-8.186-.91-.52-1.04-.52-1.689.13-.52.52-.65 1.299-.65 5.067-.13 5.848-.91 9.487-2.859 13.255-1.04 1.95-1.17 1.56-.26-.649.65-1.69.78-2.469.78-8.057 0-11.306-1.3-14.035-9.227-18.583-1.949-1.17-5.328-2.859-7.277-3.769-2.079-.91-3.638-1.689-3.508-1.689.259-.26 7.926 1.95 10.915 3.249 4.548 1.82 5.328 1.95 5.848 1.82.39-.39.65-1.43.78-4.679zM104.693 97.071c-5.457-7.537-8.966-19.232-8.186-27.939l.26-2.729 1.299.26c2.339.39 6.367 1.95 8.317 3.119 5.198 3.119 7.537 7.407 9.746 18.063.65 3.119 1.559 6.757 1.949 7.927.65 1.95 3.119 6.497 5.198 9.356 1.43 2.079.52 3.119-2.729 2.859-4.938-.52-11.565-5.068-15.854-10.916zM189.549 153.6c-25.73-10.396-34.826-19.363-34.826-34.567 0-2.209.13-4.028.13-4.028.13 0 1.039.78 2.209 1.689 5.198 4.159 11.045 5.978 27.289 8.317 9.486 1.429 14.944 2.469 19.882 4.158 15.724 5.198 25.47 15.854 27.809 30.279.65 4.158.26 12.085-.779 16.243-.91 3.249-3.509 9.227-4.159 9.357-.13 0-.389-.65-.389-1.69-.26-5.458-2.989-10.656-7.538-14.684-5.457-4.678-12.475-8.187-29.628-15.074zM171.358 157.888c-.26-1.95-.91-4.419-1.3-5.458l-.65-1.95 1.17 1.43c1.689 1.949 2.989 4.288 4.158 7.537.91 2.469.91 3.249.91 7.277 0 3.899-.13 4.808-.91 7.017-1.299 3.509-2.859 5.978-5.458 8.707-4.678 4.808-10.785 7.407-19.492 8.577-1.559.13-5.978.519-9.876.779-9.746.52-16.244 1.56-22.092 3.639-.779.26-1.559.52-1.689.39-.26-.26 3.769-2.599 7.017-4.159 4.549-2.209 9.227-3.378 19.493-5.198 5.068-.779 10.266-1.819 11.565-2.339 12.865-4.028 19.233-14.034 17.154-26.249z" fill="#FF007A"/><path d="M183.183 178.81c-3.379-7.407-4.158-14.424-2.339-21.052.26-.649.52-1.299.78-1.299.259 0 1.039.39 1.819.91 1.559 1.039 4.808 2.859 13.125 7.407 10.526 5.718 16.503 10.136 20.662 15.204 3.638 4.418 5.847 9.486 6.887 15.724.65 3.508.26 11.955-.65 15.464-2.859 11.045-9.356 19.882-18.842 24.95-1.43.78-2.599 1.299-2.729 1.299-.13 0 .389-1.299 1.169-2.859 3.119-6.627 3.509-12.994 1.17-20.142-1.43-4.418-4.419-9.746-10.396-18.712-7.147-10.396-8.837-13.125-10.656-16.894zM86.371 218.575c9.617-8.057 21.442-13.775 32.358-15.594 4.678-.78 12.475-.52 16.763.65 6.888 1.819 13.125 5.717 16.374 10.525 3.119 4.679 4.548 8.707 5.978 17.674.519 3.508 1.169 7.147 1.299 7.926 1.04 4.679 3.119 8.317 5.718 10.266 4.028 2.989 11.046 3.119 17.933.52 1.169-.39 2.209-.779 2.209-.649.26.259-3.249 2.599-5.588 3.768-3.249 1.689-5.848 2.209-9.356 2.209-6.238 0-11.566-3.249-15.854-9.746-.91-1.3-2.729-5.068-4.288-8.577-4.549-10.526-6.888-13.644-12.216-17.153-4.678-2.989-10.655-3.639-15.204-1.429-5.977 2.858-7.537 10.525-3.378 15.204 1.689 1.949 4.808 3.508 7.407 3.898 4.808.65 8.966-3.119 8.966-7.927 0-3.119-1.169-4.938-4.288-6.367-4.158-1.82-8.707.26-8.577 4.288 0 1.689.78 2.729 2.469 3.509 1.04.519 1.04.519.26.39-3.768-.78-4.678-5.458-1.689-8.447 3.639-3.639 11.306-2.079 13.905 2.989 1.039 2.079 1.169 6.237.259 8.836-2.209 5.718-8.446 8.707-14.814 7.017-4.288-1.169-6.107-2.339-11.305-7.667-9.097-9.356-12.605-11.175-25.6-13.124l-2.47-.39 2.73-2.599z" fill="#FF007A"/><path fill-rule="evenodd" clip-rule="evenodd" d="M18.018 9.486c30.278 36.776 76.93 93.954 79.269 97.072 1.95 2.599 1.17 5.068-2.08 6.888-1.819 1.039-5.587 2.079-7.406 2.079-2.08 0-4.549-1.04-6.238-2.729-1.17-1.17-6.238-8.577-17.673-26.38-8.707-13.644-16.114-24.95-16.244-25.08-.52-.26-.52-.26 15.334 28.069 10.006 17.803 13.255 24.171 13.255 24.95 0 1.69-.52 2.599-2.599 4.938-3.509 3.899-5.068 8.317-6.237 17.544-1.3 10.265-4.809 17.543-14.815 29.888-5.847 7.277-6.757 8.576-8.187 11.565-1.819 3.639-2.339 5.718-2.599 10.396-.26 4.938.26 8.057 1.69 12.735 1.3 4.159 2.729 6.888 6.237 12.215 2.99 4.679 4.808 8.187 4.808 9.487 0 1.039.26 1.039 4.939 0 11.175-2.599 20.402-7.017 25.47-12.475 3.118-3.379 3.898-5.198 3.898-9.876 0-2.989-.13-3.639-.91-5.458-1.299-2.859-3.768-5.198-9.096-8.837-7.017-4.808-10.006-8.706-10.786-13.904-.65-4.419.13-7.408 4.029-15.594 4.028-8.447 5.068-11.956 5.717-20.532.39-5.458 1.04-7.667 2.6-9.357 1.689-1.819 3.118-2.469 7.147-2.989 6.627-.909 10.915-2.599 14.294-5.847 2.989-2.729 4.288-5.458 4.418-9.487l.13-2.988-1.689-1.82C98.586 96.942 13.989 3.899 13.6 3.899c-.13 0 1.949 2.468 4.418 5.587zm39.894 184.788c1.43-2.469.65-5.588-1.69-7.147-2.208-1.43-5.587-.78-5.587 1.169 0 .52.26 1.04 1.04 1.3 1.17.65 1.3 1.299.39 2.729-.91 1.429-.91 2.729.26 3.638 1.819 1.43 4.288.65 5.587-1.689zM110.542 125.92c-3.119.91-6.108 4.289-7.017 7.667-.52 2.079-.26 5.848.649 7.017 1.43 1.82 2.729 2.34 6.368 2.34 7.147 0 13.255-3.119 13.905-6.888.649-3.119-2.08-7.407-5.848-9.356-1.949-1.04-5.978-1.43-8.057-.78zm8.317 6.498c1.039-1.56.649-3.249-1.3-4.419-3.508-2.209-8.836-.389-8.836 2.989 0 1.69 2.729 3.509 5.328 3.509 1.689 0 4.028-1.04 4.808-2.079z" fill="#FF007A"/></svg>