<svg width="256" height="256" fill="none" xmlns="http://www.w3.org/2000/svg"><g clip-path="url(#prefix__clip0_1432_794)"><path d="M128 256c70.692 0 128-57.308 128-128C256 57.308 198.692 0 128 0 57.308 0 0 57.308 0 128c0 70.692 57.308 128 128 128z" fill="#093687"/><path d="M120.187 173.876l22.833-69.374 10.997 3.579-7.858-25.967h67.963c12.331 0 18.748 11.018 14.315 24.566l-4.305 13.109c-.056.169-.117.333-.184.512l-.184.48a36.203 36.203 0 01-4.872 9.029c-6.468 8.794-16.315 14.499-25.083 14.551h-34.122l-9.683 29.5-29.817.015zm44.536-44.833h18.104c4.53 0 9.54-4.049 11.166-9.024l4.448-13.533c1.636-4.98-.721-9.024-5.24-9.024h-18.109l-10.369 31.581zM41.815 173.871a20.8 20.8 0 01-2.31-.21 15.764 15.764 0 01-3.748-.925c-2.398-.905-4.525-2.127-6.135-4.177a15.167 15.167 0 01-2.286-4.126 17.439 17.439 0 01-.68-2.316c-.874-3.973-.51-7.961.583-11.846.092-.338.542-1.795.542-1.795l21.81-66.346h30.063l-22.138 67.389c-1.206 3.686-.27 6.964 2.373 8.349.85.465 1.807.696 2.776.67h14.862L102.62 82.13h33.999l-24.914 25.967 13.452-3.579-22.844 69.358-60.498-.005z" fill="#fff"/></g><defs><clipPath id="prefix__clip0_1432_794"><path fill="#fff" d="M0 0h256v256H0z"/></clipPath></defs></svg>