<svg width="258" height="250" fill="none" xmlns="http://www.w3.org/2000/svg"><path d="M235.065 193.094c-.162.123-.324.255-.494.37-.162.124-.331.24-.501.363-.316.224-.641.44-.972.648a.896.896 0 00-.116.077c-.27.17-.54.34-.818.502-.409.247-.81.478-1.227.71-2.824 1.574-5.795 2.839-8.827 3.958a116.342 116.342 0 01-8.688 2.786c-4.19 1.172-8.434 2.145-12.716 2.993a237.258 237.258 0 01-12.523 2.145 313.7 313.7 0 01-12.609 1.559c-1.381.147-2.762.278-4.143.409-2.77.255-5.54.471-8.31.656a377.85 377.85 0 01-13.488.663c-.563.016-1.126.039-1.697.054l-1.559.047c1.273-1.574 2.546-3.141 3.711-4.8.17-.208.34-.416.502-.632a216.945 216.945 0 007.554-10.826c.247-.015.494-.023.733-.039 1.528-.084 3.056-.185 4.583-.285 1.158-.077 2.315-.162 3.473-.255 8.094-.625 16.157-1.52 24.182-2.777 2.338-.363 4.66-.764 6.975-1.189 5.417-1.003 10.787-2.206 16.08-3.719a137.5 137.5 0 003.48-1.042c.579-.185 1.158-.37 1.736-.563.872.155 1.667.517 2.485.818.717.262 1.435.54 2.153.826 2.029.802 4.02 1.69 5.949 2.716.764.401 1.512.825 2.253 1.273.98.594 1.936 1.219 2.832 1.937.262.208.339.293.239.416a1.273 1.273 0 01-.247.216l.015-.015z" fill="#F1ECE2"/><path d="M160.05 230.371c-.162.1-.339.1-.509.038.046-.031.085-.046.123-.062.07-.023.132-.023.201-.023.062 0 .131.016.193.047h-.008zM159.363 230.409a.915.915 0 01-.64.038c.208-.123.424-.108.64-.038zM158.545 230.448a.918.918 0 01-.641.038c.209-.131.417-.115.641-.038zM157.726 230.486a.82.82 0 01-.632.031s.015 0 .023-.008c.201-.1.409-.1.609-.023zM156.478 230.479a.762.762 0 01.432.038.875.875 0 01-.64.039.721.721 0 01.208-.077zM155.76 230.494c.108 0 .216.023.332.054a.856.856 0 01-.633.031.65.65 0 01.301-.093v.008zM155.119 230.548c.054.007.1.023.147.038a.89.89 0 01-.633.039.597.597 0 01.455-.077h.031zM154.448 230.625c-.247.108-.502.1-.757.03.247-.115.502-.108.757-.03zM153.506 230.656c-.209.108-.417.093-.633.031a.702.702 0 01.633-.031zM207.643 181.404c.101.015.216.015.324.031a.585.585 0 01.386.17 1.969 1.969 0 01-.81-.224c.015 0 .039 0 .054.008.015 0 .031 0 .054.007l-.008.008z" fill="#5E93FF"/><path d="M90.127 249.46c.023.046.046.093.061.131l-4.305.016.07-.139h4.166l.008-.008z" fill="#3180F4"/><path d="M219.41 184.899c-.578.193-1.149.378-1.736.564a141.72 141.72 0 01-3.48 1.041c-5.301 1.513-10.663 2.716-16.08 3.719-2.315.432-4.645.826-6.975 1.189-8.025 1.257-16.088 2.152-24.182 2.777-1.158.093-2.315.178-3.473.255-1.527.1-3.055.201-4.583.286-.247.015-.486.023-.733.038a225.045 225.045 0 004.83-7.716 246.097 246.097 0 006.451-11.458c3.904.339 7.801.733 11.697 1.211.286.031.571.093.865.139 1.743.124 3.472.386 5.192.64 2.215.325 4.429.679 6.636 1.05 2.979.501 5.957 1.057 8.912 1.697 1.598.348 3.187.703 4.784 1.05.255.139.525.193.81.224 3.411.871 6.814 1.79 10.155 2.893.308.1.663.131.903.394l.007.007z" fill="#FDBF41"/><path d="M105.953 210.023c1.374.108 2.755.216 4.128.309-1.381-.093-2.754-.201-4.128-.309z" fill="#F1ECE2"/><path d="M61.9 240.772a.326.326 0 01-.27-.116h.07c.016 0 .023.008.039.008.008 0 .023 0 .03.008.016 0 .032.015.047.023 0 0 .015 0 .023.008l.047.046h.007l.008.023z" fill="#404A5A"/><path d="M61.631 240.656c-.108 0-.208-.023-.27-.124h.085c.07.016.131.047.178.116v.008h.007zM61.362 240.532c-.116 0-.224-.007-.27-.131v-.007h.008c.108 0 .208.023.262.131v.007z" fill="#404A5A"/><path d="M61.092 240.385v.016c-.108 0-.223.015-.262-.131v-.016c.116-.015.216.008.27.131h-.008zM60.035 239.715c.077.054.17.092.255.131.061.031.123.054.185.085a.71.71 0 01.278.224.899.899 0 01.069.123 1.695 1.695 0 01-.957-.409l.17-.154z" fill="#404A5A"/><path d="M84.78 228.086l-.894.139a32.99 32.99 0 01-3.48.278c-.386.007-.78.015-1.166.007-.393 0-.779-.015-1.172-.031-.17-.007-.332-.03-.502-.046-.162-.015-.332-.038-.502-.054-.216-.015-.378-.108-.54-.247a26.412 26.412 0 01-1.335-1.296c3.195.463 6.39.88 9.592 1.258v-.008z" fill="#F1ECE2"/><path d="M135.042 174.144c-2.3 0-4.599.03-6.898.069-3.828 5.934-7.956 11.659-12.462 17.099a150.612 150.612 0 01-2.886 3.379 130.054 130.054 0 01-7.747 8.125 107.916 107.916 0 01-7.368 6.474 83.171 83.171 0 01-6.189 4.529c-3.935 2.608-8.063 4.854-12.507 6.49-2.253.825-4.553 1.497-6.93 1.89-.13.023-.254.077-.385.116.008.038.023.085.03.123.008.023.016.047.032.07a30.697 30.697 0 001.62 2.245c.571.718 1.18 1.412 1.821 2.076 3.194.463 6.389.879 9.59 1.257.857-.131 1.706-.3 2.547-.501a44.245 44.245 0 005.71-1.79 51.342 51.342 0 005.432-2.492c.386-.201.764-.409 1.15-.618a73.978 73.978 0 007.639-4.853 97.44 97.44 0 007.068-5.656c.324-.286.648-.571.972-.864.239-.216.471-.432.717-.656a126.054 126.054 0 004.291-4.113 154.068 154.068 0 006.72-7.291c.996-1.15 1.968-2.323 2.925-3.504a212.836 212.836 0 002.299-2.908 180.793 180.793 0 005.864-8.033 213.778 213.778 0 002.994-4.475 207.787 207.787 0 003.781-6.073 418.407 418.407 0 00-9.83-.115z" fill="#F1ECE2"/><path d="M47.51 234.352c-.107.023-.192-.008-.23-.123.115-.023.2 0 .23.123z" fill="#C18B00"/><path d="M115.552 174.622c-1.644.077-3.287.17-4.923.27a165.239 165.239 0 01-5.602 7.5c-1.906 2.407-3.858 4.769-5.91 7.06a187.582 187.582 0 01-3.542 3.851 93.276 93.276 0 01-2.6 2.646c-3.527 3.449-7.223 6.705-11.197 9.645a92.3 92.3 0 01-2.006 1.435 70.96 70.96 0 01-6.936 4.275 60.412 60.412 0 01-5.34 2.539c.016.085 0 .177.039.262.254.702.524 1.389.818 2.076.285.686.594 1.358.918 2.021a43.541 43.541 0 002.16 3.889l.016.016c.054.077.146.146.216.216.13-.039.254-.093.386-.116 2.368-.394 4.668-1.065 6.929-1.891 4.444-1.628 8.572-3.881 12.507-6.489a83.171 83.171 0 006.189-4.529c2.554-2.045 5-4.213 7.368-6.474a128.036 128.036 0 007.747-8.125c.98-1.111 1.937-2.238 2.886-3.38 4.506-5.439 8.634-11.165 12.462-17.098-4.198.077-8.403.2-12.593.409l.008-.008z" fill="#FDBF41"/><path d="M198.539 111.281s-.055-.008-.078-.008c.023 0 .047 0 .078.008z" fill="#E7AA24"/><path d="M198.081 111.458c.132 0 .278 0 .193-.208.062 0 .124.015.193.023a.167.167 0 00-.092.023c-.054.039-.054.124-.039.224-.085 0-.17-.008-.255-.015a.906.906 0 01-.146-.016c-.101-.008-.209-.023-.309-.031a6.908 6.908 0 01-.694-.131c.393-.023.771.116 1.157.139l-.008-.008z" fill="#E7AA24"/><path d="M78.367 190.996c.17.031.332.054.494.085-3.218 3.109-6.598 6.026-10.201 8.696-1.312.972-2.624 1.944-4.043 2.77-.263-1.135-.378-2.292-.51-3.449-.447-3.689-.617-7.392-.625-11.096a186.484 186.484 0 0010.61 2.253c1.427.262 2.855.509 4.283.748l-.008-.007z" fill="#F1ECE2"/><path d="M93.097 176.389c-.378.046-.764.077-1.15.115-3.796 4.831-7.847 9.437-12.245 13.75-.278.278-.563.548-.841.818l.386.07c-.131-.023-.255-.046-.386-.062-3.218 3.11-6.597 6.026-10.2 8.696-1.312.972-2.624 1.945-4.044 2.77.016.154.023.316.039.471 0 .046 0 .085.015.131.031.177.07.355.1.532.024.147.047.286.078.432.07.355.139.718.208 1.081a62.132 62.132 0 001.505 6.034c.277.887.501 1.798.949 2.631a60.13 60.13 0 005.34-2.539 73.975 73.975 0 006.936-4.274 59.278 59.278 0 002.006-1.436c3.974-2.932 7.67-6.196 11.196-9.645.887-.864 1.744-1.751 2.6-2.646a184.732 184.732 0 003.542-3.851 154.909 154.909 0 005.91-7.06 173.475 173.475 0 005.602-7.5c-5.848.355-11.69.849-17.523 1.497l-.023-.015z" fill="#F10"/><path d="M79.247 191.142c-.131-.023-.254-.046-.386-.062.132.023.263.046.386.062z" fill="#F1ECE2"/><path d="M78.861 191.072a10.616 10.616 0 01-.494-.085l.494.077v.008zM74.086 190.247z" fill="#F10"/><path d="M89.441 176.868c.826-.178 1.667-.27 2.508-.355-3.797 4.83-7.847 9.436-12.246 13.75-.277.277-.563.548-.84.818l-.495-.078a278.253 278.253 0 01-4.282-.748 185.552 185.552 0 01-7.916-1.62c-.896-.209-1.798-.417-2.693-.633 0-1.397.015-2.801.054-4.205.023-.834.061-1.659.108-2.485a206.985 206.985 0 019.197-1.952 251.19 251.19 0 0115.864-2.462c.085-.007.17-.023.255-.03.1-.016.2-.024.3-.016.063 0 .124.016.186.031v-.015z" fill="#FDBF41"/><path d="M183.307 109.429c3.071.378 6.149.748 9.22 1.126a.349.349 0 01-.069.093c-1.906-.232-3.82-.455-5.725-.702-.556-.07-1.112-.116-1.667-.178-.556-.062-1.111-.123-1.659-.231a.637.637 0 00-.1-.101v-.007z" fill="#007FFF"/><path d="M168.26 118.974c.116-.432.224-.88.339-1.312-.108.44-.223.88-.339 1.312zM256.532 180.694v-12.677c-.27-1.181-.64-2.33-1.296-3.364-1.057-1.667-2.315-3.156-3.889-4.375-1.644-1.273-3.326-2.469-5.139-3.488-2.492-1.396-5.085-2.577-7.685-3.742-.463-.208-.941-.309-1.404-.494-5.88-2.299-11.929-4.028-18.056-5.517-3.92-.957-7.87-1.775-11.836-2.515a282.217 282.217 0 00-13.411-2.169 377.467 377.467 0 00-13.434-1.597 460.45 460.45 0 00-11.728-1.011 423.788 423.788 0 00-6.929-.447c-1.96-.108-3.927-.208-5.895-.301a410.372 410.372 0 00-9.275-.316c-.223 0-.447-.016-.671-.016a462.24 462.24 0 00-14.66-.092h-.24c-5.031.046-10.061.162-15.085.37-.3.008-.601.031-.902.039-5.949.254-11.883.625-17.817 1.126-8.711.733-17.392 1.728-26.026 3.087-.208.03-.409.069-.617.1-.332 1.173-.633 2.361-1.05 3.511-.293 1.172-.586 2.345-.887 3.51a177.545 177.545 0 00-2.137 9.383c.44-.077.88-.146 1.32-.224.578-.1 1.157-.193 1.728-.293l2.57-.417c3.093-.478 6.203-.91 9.305-1.304 3.11-.393 6.219-.74 9.336-1.049 2.076-.208 4.159-.401 6.242-.579a429.053 429.053 0 0118.372-1.142c.764-.03 1.528-.069 2.292-.1 1.134-.046 2.276-.077 3.41-.116.733-.023 1.466-.038 2.207-.054 2.678-.069 5.355-.108 8.033-.131 1.01 0 2.013-.015 3.024-.015 1.729 0 3.457 0 5.178.015.625 0 1.25.008 1.875.023l2.014.023c1.828.031 3.649.078 5.478.132 1.829.054 3.65.123 5.478.193.301.007.602.03.903.038 1.96.085 3.92.185 5.872.286 1.505.085 3.009.177 4.514.27 2.253.146 4.514.308 6.767.494 2.076.169 4.151.362 6.235.571.069 0 .146.015.216.023 1.489.146 2.978.293 4.467.447 2.384.239 4.769.525 7.153.841 2.376.317 4.753.656 7.13 1.011.987.147 1.975.301 2.955.455 2.955.479 5.903 1.003 8.835 1.582 1.728.34 3.449.695 5.169 1.065 1.721.37 3.434.771 5.147 1.188 2.6.641 5.185 1.327 7.739 2.076 3.411 1.003 6.79 2.129 10.101 3.449.833.324 1.651.671 2.476 1.018a81.28 81.28 0 013.696 1.736c.301.147.602.294.903.448.232.116.471.231.702.347.309.155.618.309.919.479.385.208.763.432 1.118.679 1.374.949 2.786 1.844 4.059 2.924.293.255.579.509.856.779.332.278.649.579.95.88.501.502.964 1.042 1.373 1.605a12.372 12.372 0 01.988 1.628c.131.262.254.532.362.818.116.278.216.563.309.849.062.2.131.409.193.609 0 0 0 .016.008.023v-.023c.162-.856.061-1.72.069-2.585l.023.023z" fill="#F1ECE2"/><path d="M256.586 166.343c.008-3.202.008-6.397 0-9.599 0-1.474-.015-2.955-.023-4.429-.254-.833-.432-1.69-.81-2.484-.965-1.999-2.407-3.604-4.074-5.039-1.821-1.574-3.835-2.878-5.949-4.028a70.418 70.418 0 00-9.522-4.328 137.496 137.496 0 00-11.551-3.712 227.28 227.28 0 00-8.997-2.245 214.652 214.652 0 00-10.347-2.076c-3.596-.625-7.207-1.227-10.825-1.728a377.888 377.888 0 00-5.155-.679 290.738 290.738 0 00-11.551-1.266c-.717-.069-1.427-.169-2.145-.223-2.916-.224-5.833-.44-8.742-.649l-1.25-.092a292.644 292.644 0 00-5.833-.378c-2.531-.124-5.062-.216-7.593-.309h-.069c-2.647-.093-5.286-.193-7.933-.239a525.31 525.31 0 00-6.998-.07c-1.026 0-2.052-.007-3.086-.007-4.09 0-8.172.061-12.253.177h-.178c-4.792.139-9.591.332-14.375.641-3.681.231-7.361.439-11.034.748-1.49.124-2.97.309-4.452.455a385.767 385.767 0 00-15.486 1.844l-.178.024a213.408 213.408 0 00-5.54 16.219c-.038.139-.077.27-.115.409.2-.031.408-.07.617-.101 8.634-1.358 17.315-2.361 26.026-3.086a443.635 443.635 0 0118.719-1.165 468.112 468.112 0 0115.085-.371h.239a519.08 519.08 0 0114.661.093c.223 0 .447.015.671.015 3.094.07 6.181.178 9.275.317 1.967.092 3.927.193 5.895.301 2.307.131 4.622.278 6.929.447 3.912.286 7.824.633 11.728 1.011a377.467 377.467 0 0113.434 1.597 281.97 281.97 0 0113.41 2.169c3.966.74 7.917 1.558 11.837 2.515 6.126 1.489 12.176 3.218 18.055 5.517.463.185.942.285 1.405.494 2.6 1.173 5.193 2.345 7.685 3.742 1.813 1.019 3.495 2.215 5.139 3.488 1.574 1.219 2.831 2.708 3.889 4.375.655 1.034 1.018 2.183 1.296 3.364.108-.556.046-1.119.046-1.674l.023.015z" fill="#FDBF41"/><path d="M165.869 45.379c2.129 3.325 3.672 6.92 4.838 10.686.362 1.165.686 2.338.979 3.519a65.019 65.019 0 011.166 5.972c.084.587.169 1.173.246 1.767.147 1.18.278 2.361.386 3.542l.139 1.774c.216 3.226.309 6.45.224 9.684-.093 3.38-.293 6.76-.633 10.131a153.925 153.925 0 01-1.358 9.992 169.015 169.015 0 01-1.103 5.942 304.17 304.17 0 00-9.591-.625c-1.536-.07-3.079-.155-4.622-.232a174.388 174.388 0 002.608-13.534c.756-5.038 1.296-10.092 1.497-15.177.162-4.321.139-8.65-.209-12.97-.293-3.604-.779-7.169-1.55-10.703-.872-3.974-2.099-7.832-3.858-11.512-.695-1.459-1.513-2.855-2.331-4.244.672-.216 1.374-.24 2.06-.309.363-.038.726-.07 1.081-.092.308-.016.617-.031.926-.039a48.964 48.964 0 011.504 0c.347.008.702.023 1.05.039.27.015.54.03.81.054a1.216 1.216 0 01.586.2c.101.062.201.147.293.232.24.216.471.44.695.663.455.448.895.919 1.312 1.397a31.214 31.214 0 012.878 3.827l-.023.016z" fill="#F1ECE2"/><path d="M158.862 55.147c.772 3.526 1.258 7.098 1.551 10.702.355 4.32.378 8.65.208 12.97-.193 5.085-.733 10.14-1.497 15.178a173.3 173.3 0 01-2.608 13.534c-1.165-.054-2.338-.116-3.503-.162-2.67-.1-5.332-.162-8.001-.216a376.78 376.78 0 00-2.979-.054 175.983 175.983 0 002.562-11.08 181.937 181.937 0 001.458-8.395c.278-1.883.525-3.766.741-5.656.224-1.976.401-3.959.525-5.95.131-2.121.216-4.251.262-6.373a92.577 92.577 0 00-.247-8.526 105.636 105.636 0 00-.555-5.61 68.27 68.27 0 00-1.397-7.577c-.486-1.998-1.042-3.99-1.782-5.918.509-.324 1.095-.486 1.659-.695a42.012 42.012 0 013.464-1.118 36.991 36.991 0 013.557-.787c.085-.016.162-.039.247-.039.054 0 .1 0 .147.015.818 1.39 1.635 2.778 2.33 4.244 1.759 3.68 2.986 7.539 3.858 11.513z" fill="#FDBF41"/><path d="M192.404 48.604s-.031-.023-.031-.039v-.03l.039.023-.016.038.008.008z" fill="#3180F4"/><path d="M256.517 198.487c.008-.2.023-.401.023-.602 0-3.302.008-6.612.008-9.915 0-1.427-.023-2.855-.031-4.282 0-.085.038-.178.031-.262-.023-.054-.054-.093-.077-.139v.015c0-.008 0-.015-.008-.023-.062-.208-.131-.409-.193-.617a12.201 12.201 0 00-.309-.849 10.994 10.994 0 00-.362-.818 12.186 12.186 0 00-.988-1.628 12.328 12.328 0 00-1.373-1.605 17.788 17.788 0 00-.949-.88 13.852 13.852 0 00-.857-.779c-1.273-1.08-2.685-1.975-4.059-2.924-.362-.247-.74-.471-1.118-.679-.301-.162-.61-.324-.919-.479-.231-.115-.47-.231-.702-.347a47.2 47.2 0 00-.903-.447 81.296 81.296 0 00-3.696-1.737c-.825-.347-1.643-.694-2.476-1.018a117.822 117.822 0 00-10.101-3.449 168.412 168.412 0 00-7.739-2.076 199.512 199.512 0 00-5.147-1.188c-1.72-.37-3.441-.725-5.169-1.065a249.718 249.718 0 00-8.835-1.582c-.988-.154-1.968-.308-2.955-.455a447.766 447.766 0 00-7.13-1.011 221.056 221.056 0 00-7.153-.841c-1.489-.146-2.978-.301-4.467-.447-.07 0-.147-.016-.216-.023a322.877 322.877 0 00-6.235-.571c-2.253-.186-4.514-.34-6.767-.494a284.527 284.527 0 00-4.514-.27c-1.96-.108-3.92-.209-5.872-.286-.301-.015-.602-.031-.903-.038a416.953 416.953 0 00-5.478-.193c-1.829-.054-3.65-.101-5.478-.131l-2.014-.024-1.875-.023a388.976 388.976 0 00-5.178-.015c-1.011 0-2.021.008-3.024.015-2.678.023-5.355.062-8.033.131-.733.016-1.466.039-2.207.054-1.134.031-2.276.07-3.41.116-.764.031-1.528.07-2.292.1-2.97.124-5.941.278-8.912.456-3.156.2-6.312.416-9.46.686-2.083.178-4.166.371-6.242.579a344.8 344.8 0 00-18.642 2.354c-.856.131-1.713.27-2.57.416-.578.093-1.149.193-1.728.293-.44.078-.88.147-1.32.224a177.445 177.445 0 012.138-9.383c.301-1.172.594-2.338.888-3.51.416-1.15.717-2.338 1.049-3.511.038-.139.077-.27.116-.409a212.363 212.363 0 015.54-16.219 218.498 218.498 0 014.166-10.047 224.872 224.872 0 013.071-6.62 210.725 210.725 0 0111.682-21.057c4.02-6.373 8.395-12.485 13.187-18.302.1-.116.178-.255.27-.379 1.443-1.65 2.863-3.317 4.337-4.945 4.799-5.317 9.969-10.24 15.694-14.553 1.412-1.065 2.87-2.068 4.313-3.094.132-.093.294-.108.448-.116.069-.208.262-.3.424-.401 2.956-1.89 6.027-3.573 9.26-4.93.115-.047.223-.109.347-.147.031-.008.069-.016.108-.023.038 0 .077-.016.116-.016.509-.324 1.095-.486 1.658-.694a42.081 42.081 0 013.465-1.12 36.992 36.992 0 013.557-.786c.085-.016.162-.039.247-.039.054 0 .1 0 .147.016.671-.216 1.373-.24 2.06-.309.362-.038.725-.07 1.08-.092.309-.016.617-.031.926-.04a49.03 49.03 0 011.505 0c.347.009.702.024 1.049.04.27.015.54.03.81.053a1.246 1.246 0 01.371.085c.077.031.146.07.216.116.1.062.2.147.293.232.239.216.47.44.694.663.455.448.895.918 1.312 1.397a31.215 31.215 0 012.878 3.827c2.13 3.325 3.673 6.921 4.838 10.687.363 1.165.687 2.338.98 3.518a65.339 65.339 0 011.165 5.972c.085.587.17 1.173.247 1.767.147 1.18.278 2.362.386 3.542l.139 1.775c.216 3.225.308 6.45.223 9.683a139.1 139.1 0 01-.632 10.132c-.34 3.348-.803 6.682-1.358 9.992a166.275 166.275 0 01-1.104 5.941c.517.039 1.034.077 1.551.124 3.712.308 7.415.679 11.119 1.018a.675.675 0 00-.1-.1c3.071.378 6.149.748 9.22 1.126a.349.349 0 01-.069.093c.185.023.37.054.556.077a194.69 194.69 0 001.643-9.143c.417-2.747.787-5.502 1.073-8.264.27-2.585.509-5.17.632-7.77.062-1.25.131-2.508.209-3.758.007-.162-.078-.378.177-.448 0-2.33-.015-4.668-.023-6.998-.124-.054-.131-.162-.147-.278-.031-.47-.085-.933-.1-1.404-.093-3.388-.401-6.752-.856-10.1a78.313 78.313 0 00-2.269-10.973c-.255-.902-.471-1.813-.872-2.67l-.085-.308s-.031-.023-.031-.039v-.03c-.023-.108-.038-.217-.077-.325-1.489-4.297-3.433-8.372-6.111-12.075-2.577-3.573-5.687-6.559-9.522-8.781-1.435-.833-2.993-1.42-4.467-2.168-.131-.07-.301-.054-.455-.085-.132-.17-.34-.216-.517-.301-3.48-1.543-6.952-3.086-10.44-4.614-.448-.2-.857-.494-1.358-.556-.085-.03-.17-.054-.255-.085-.594-.193-1.203-.331-1.774-.602a1.22 1.22 0 01-.155-.054c-.023-.007-.054-.015-.077-.023h-.015c-.062.039-.101.008-.139-.046a29.903 29.903 0 00-3.372-.656 29.23 29.23 0 00-2.462-.247 29.77 29.77 0 00-.825-.03 35.254 35.254 0 00-5.71.316c-1.883.262-3.75.656-5.602 1.165-.262.077-.532.146-.795.231-3.48 1.034-6.798 2.43-10 4.082a70.4 70.4 0 00-3.171 1.736 70.586 70.586 0 00-2.832 1.706c-.308.192-.617.393-.926.594-.308.2-.617.4-.918.61a57.25 57.25 0 00-1.805 1.257c-.294.216-.595.432-.888.648v.062c0 .015-.015.03-.023.046-.023.023-.054.03-.1.03h-.008v.04c0 .03-.015.046-.031.053-.015.008-.031.008-.062 0-.007 0-.023 0-.03-.015a74.047 74.047 0 00-3.828 2.87c-.555.44-1.103.895-1.643 1.35-.085.07-.17.147-.255.217-.555.47-1.111.949-1.659 1.435v.039a.11.11 0 01-.038.084s-.016.008-.023.016a.15.15 0 01-.062.015.363.363 0 01-.062.085c-.031.031-.054.062-.093.085a.381.381 0 01-.162.07c0 .069-.015.108-.046.123-.046.03-.131.008-.193.015-.208.216-.424.433-.632.64-.016.016-.024.032-.039.04v.03c0 .031-.015.047-.031.07h-.008s-.046.023-.092.023c-.185.154-.386.293-.563.455-.016.016-.031.023-.047.039-.679.64-1.366 1.28-2.037 1.936-.046.047-.092.085-.131.124-.208.208-.424.401-.64.602-.541.501-1.096.987-1.613 1.512-.278.286-.563.571-.841.849-1.605 1.628-3.195 3.271-4.73 4.969a186.136 186.136 0 00-5.718 6.628c-.262.324-.532.64-.794.965-.039.046-.085.1-.116.154a6.241 6.241 0 00-.162.24c-.07.107-.14.215-.209.315a4.234 4.234 0 01-.17.224c-.022.023-.038.046-.053.062-.085.093-.17.177-.27.247 0 .023-.008.03-.016.046 0 .016 0 .031-.015.046 0 .008-.016.016-.023.024-.016.007-.039.015-.054.023-.047.216-.224.324-.37.463-.008 0-.016.015-.024.023-.046.038-.077.085-.108.131-.015.023-.03.046-.038.077s-.024.054-.031.085v.039c0 .038-.016.061-.047.084 0 0-.015 0-.015.008h-.062c-.34.425-.687.849-1.026 1.273-.015.023-.039.047-.054.07.008.054.008.1 0 .146 0 .039-.023.062-.039.093 0 .008-.015.023-.015.03a.371.371 0 01-.085.07c-.038.023-.085.039-.131.054-.054.062-.108.116-.162.178-.023.023-.039.046-.054.062-.047.046-.085.1-.124.146-.872 1.173-1.743 2.354-2.615 3.526 0 .039-.016.062-.039.085l-.015.016a.088.088 0 01-.062.023c-.602.849-1.22 1.69-1.813 2.546l-.348.51c-.887 1.303-1.72 2.646-2.615 3.942-.448.648-.872 1.312-1.297 1.968-.432.656-.864 1.312-1.334 1.952-.749 1.026-1.39 2.145-2.045 3.233-.286.47-.571.941-.849 1.412-3.171 5.263-6.25 10.579-8.873 16.142-.155.324-.332.625-.51.934-.177.3-.362.61-.517.918a234.048 234.048 0 00-2.615 5.424c-.317.679-.625 1.358-.942 2.045-.409.887-.81 1.782-1.203 2.678a354.038 354.038 0 00-1.497 3.425c-.209.479-.41.965-.61 1.451-.255.602-.51 1.204-.756 1.813a274.076 274.076 0 00-2.554 6.459c-.24.632-.478 1.265-.71 1.906a467.624 467.624 0 00-1.659 4.637l-.393 1.111c-.1.286-.201.579-.294.872a74.981 74.981 0 00-.725 2.214c-.285.903-.563 1.806-.841 2.709-.2.648-.401 1.288-.61 1.936-.47 1.443-1.018 2.871-1.203 4.391-.008.077-.1.147-.147.216-.231.633-.37 1.281-.525 1.929-.077.309-.17.617-.262.926-.093.309-.185.617-.27.926a177.844 177.844 0 00-1.026 3.997 189.694 189.694 0 00-.864 3.634 258.343 258.343 0 00-.888 4.097c-.247 1.196-.486 2.4-.71 3.604-.177.956-.355 1.905-.517 2.862-.146.841-.277 1.682-.416 2.523a154 154 0 00-.479 3.21 376.29 376.29 0 00-.378 2.886 182.553 182.553 0 00-.795 7.955c-.054.764-.108 1.52-.146 2.284-.046.764-.085 1.52-.116 2.284-.062 1.52-.108 3.048-.154 4.568-.008.347-.008.695-.016 1.042v.316c-.007 1.952.07 3.897.132 5.834 0 .084.015.177.015.262.016.347.03.694.054 1.042a77.33 77.33 0 00.332 4.212c.1.95.208 1.906.332 2.855.015.139.038.27.054.409.262 1.929.563 3.851.941 5.757.702 3.564 1.636 7.067 2.917 10.47.023.054.046.116.069.178.957 2.515 2.068 4.961 3.434 7.291 2.245 3.835 4.984 7.23 8.48 9.939.416.324.84.632 1.273.941.416.285.864.548 1.296.81.077.054.17.093.255.131.061.031.123.054.185.085a.719.719 0 01.278.224.899.899 0 01.07.123v-.015c.115-.015.215.008.27.131h.007c.108 0 .208.031.262.131.031 0 .054 0 .077.008h.008a.27.27 0 01.178.116v.008h.069c.016 0 .023.007.046.007.008 0 .023 0 .031.008.016 0 .031.015.047.023 0 0 .015 0 .023.008l.046.046h.008c.146.154.347.193.532.278 3.85 1.705 7.708 3.41 11.559 5.116 1.906.841 3.796 1.728 5.81 2.284 2.014.555 4.058.933 6.15 1.018h4.166c1.011-.031 2.014-.162 3.01-.316 4.05-.61 7.939-1.806 11.697-3.418 6.883-2.956 13.094-6.991 18.92-11.659a135.473 135.473 0 003.773-3.156c4.329.077 8.65.1 12.978.054 4.121-.047 8.249-.116 12.369-.278a.702.702 0 01.633-.031h.185c.247-.116.502-.108.756-.031h.185a.604.604 0 01.456-.077h.023l.146.046h.186c.1-.061.2-.085.3-.092.108 0 .216.023.332.054h.185a.762.762 0 01.641-.039h.177s.016 0 .023-.008c.201-.1.409-.1.61-.023h.177c.209-.131.417-.115.641-.038h.177c.209-.124.425-.108.641-.039h.177c.047-.031.085-.046.124-.062.069-.023.131-.023.2-.023.062 0 .132.016.193.047.942-.047 1.875-.078 2.817-.132 7.206-.424 14.39-.995 21.566-1.79 10.895-1.211 21.721-2.839 32.415-5.277 7.284-1.659 14.468-3.65 21.412-6.451 3.727-1.505 7.346-3.225 10.695-5.478 2.014-1.359 3.881-2.886 5.378-4.838.941-1.243 1.705-2.578 1.998-4.136a.646.646 0 00.17-.425c.069-1.118.108-2.23.008-3.348l-.062.007zm-96.721-23.603a301.96 301.96 0 00-6.011-.316c2.007.092 4.005.2 6.011.316zm-44.498 36.427c-.324.286-.648.579-.972.865a95.565 95.565 0 01-7.068 5.655c-2.446 1.76-4.985 3.396-7.64 4.854-.377.208-.763.417-1.149.617-.887.463-1.782.903-2.685 1.327-.903.417-1.821.803-2.747 1.165a42.191 42.191 0 01-5.71 1.791c-.849.2-1.698.37-2.546.501l-.895.139a32.99 32.99 0 01-3.48.278c-.386.007-.78.015-1.165.007-.394 0-.78-.015-1.173-.03-.17-.008-.332-.031-.502-.047-.162-.015-.331-.038-.501-.054-.216-.015-.378-.108-.54-.247a28.758 28.758 0 01-4.26-4.853 44.482 44.482 0 01-.517-.764c-.015-.023-.023-.046-.03-.069-.008-.039-.024-.085-.031-.124-.07-.069-.162-.139-.216-.216l-.016-.015a39.904 39.904 0 01-2.16-3.889 39.457 39.457 0 01-.919-2.022 37.48 37.48 0 01-.817-2.075c-.031-.085-.023-.17-.039-.263-.447-.833-.671-1.744-.949-2.631a57.94 57.94 0 01-1.505-6.034l-.208-1.08c-.03-.147-.046-.286-.077-.432-.031-.178-.07-.355-.1-.533 0-.046 0-.084-.016-.131-.015-.154-.023-.316-.038-.47-.263-1.135-.379-2.292-.51-3.45-.447-3.688-.617-7.392-.625-11.095 0-1.397.016-2.801.054-4.205.023-.834.062-1.659.108-2.485a206.985 206.985 0 019.198-1.952 250.466 250.466 0 0115.864-2.462c.085-.007.17-.023.255-.03.1-.016.2-.024.3-.016.062 0 .124.016.186.031.825-.178 1.666-.27 2.507-.355l1.15-.116a351.597 351.597 0 0117.523-1.497c1.644-.1 3.287-.193 4.923-.27 4.198-.2 8.395-.331 12.593-.409 2.299-.046 4.598-.069 6.898-.069 3.279 0 6.558.038 9.83.116a207.649 207.649 0 01-3.781 6.072 211.18 211.18 0 01-2.994 4.475 179.996 179.996 0 01-5.864 8.033c-.64.833-1.288 1.659-1.952 2.477-.116.146-.231.293-.347.432a127.879 127.879 0 01-2.925 3.503 154.93 154.93 0 01-5.115 5.633c-.533.555-1.065 1.111-1.605 1.659a114.195 114.195 0 01-4.29 4.112c-.24.216-.479.44-.718.656l.008-.008zm7.808-.37zm112.207-18.071a1.213 1.213 0 01-.247.216c-.162.124-.324.255-.494.37-.162.124-.331.24-.501.363-.316.224-.641.44-.972.648a1.109 1.109 0 00-.116.077c-.27.17-.54.34-.818.502-.409.247-.81.478-1.227.71-2.824 1.574-5.795 2.839-8.827 3.958a115.88 115.88 0 01-8.688 2.786c-4.19 1.173-8.434 2.145-12.716 2.994a239.337 239.337 0 01-12.523 2.145c-4.19.609-8.396 1.118-12.608 1.558-1.382.147-2.763.278-4.144.409-2.77.255-5.54.471-8.31.656a382.827 382.827 0 01-13.488.664c-.563.015-1.126.038-1.697.054l-1.559.046c1.273-1.574 2.546-3.141 3.711-4.799.17-.209.34-.417.502-.633a229.422 229.422 0 007.184-10.255c.123-.193.763-1.165.956-1.466a226.892 226.892 0 004.252-6.813 246.613 246.613 0 006.451-11.458c3.904.339 7.8.733 11.697 1.211.286.031.571.093.864.139 1.744.123 3.473.386 5.193.64 2.215.324 4.429.679 6.636 1.05 2.978.501 5.957 1.057 8.912 1.697 1.597.347 3.187.702 4.784 1.05.015 0 .039 0 .054.007.015 0 .031 0 .054.008.1.015.216.015.324.031a.585.585 0 01.386.17c3.41.872 6.813 1.79 10.154 2.893.309.1.664.131.903.394.872.154 1.667.517 2.485.818.717.262 1.435.54 2.145.825 2.029.803 4.02 1.69 5.949 2.716.764.401 1.512.826 2.253 1.273.98.594 1.937 1.219 2.832 1.937.262.208.339.293.239.417l.015-.008z" fill="#007FFF"/><path d="M256.585 137.261c-.093-1.845-.795-3.473-1.867-4.954-1.513-2.107-3.465-3.75-5.579-5.201-3.603-2.469-7.546-4.282-11.582-5.902a101.795 101.795 0 00-6.821-2.446c-3.503-1.127-7.06-2.092-10.632-2.971a230.2 230.2 0 00-13.48-2.871c-2.755-.501-5.517-.987-8.287-1.388-.085 0-.17-.008-.255-.016-.046 0-.1-.008-.147-.015-.1-.008-.208-.023-.308-.031a6.927 6.927 0 01-.695-.131c-.825-.131-1.643-.263-2.469-.402a100.93 100.93 0 00-1.435-.2c-.185-.031-.37-.054-.556-.077-1.905-.232-3.819-.456-5.725-.702-.555-.07-1.111-.116-1.667-.178a17.186 17.186 0 01-1.659-.231c-3.703-.348-7.407-.718-11.118-1.019-.517-.039-1.034-.085-1.551-.123a304.17 304.17 0 00-9.591-.625c-1.536-.07-3.079-.155-4.622-.232-1.165-.054-2.338-.116-3.503-.162-2.67-.1-5.332-.162-8.002-.216a376.53 376.53 0 00-2.978-.054s1.828-7.361 2.561-11.08a181.944 181.944 0 001.459-8.395c.278-1.883.524-3.766.741-5.656.223-1.976.401-3.959.524-5.95.131-2.121.216-4.25.263-6.373a92.577 92.577 0 00-.247-8.526 105.64 105.64 0 00-.556-5.61 68.045 68.045 0 00-1.397-7.577c-.486-1.998-1.041-3.989-1.782-5.918-.038 0-.077 0-.116.016-.038 0-.077.015-.108.023-.123.038-.231.1-.347.147-3.241 1.357-6.304 3.047-9.259 4.93-.17.108-.355.193-.425.401.71 4.483 1.042 8.99 1.081 13.526.061 6.49-.417 12.94-1.304 19.368a172.843 172.843 0 01-2.639 14.406 191.622 191.622 0 01-3.218 12.291c-2.909.031-5.825.124-8.734.216a387.61 387.61 0 00-11.613.556c-3.411.216-6.829.44-10.24.733-4.428.386-8.85.818-13.255 1.358a218.927 218.927 0 00-7.238 16.666c.062-.007.116-.015.178-.023a387.418 387.418 0 0115.486-1.844c1.481-.146 2.963-.324 4.452-.455 3.673-.309 7.353-.517 11.034-.749 4.784-.308 9.575-.501 14.375-.64h.177a458.87 458.87 0 0115.34-.17c2.33.008 4.668.031 6.998.07 2.647.046 5.286.146 7.932.239h.07c2.53.093 5.061.185 7.592.309 1.945.092 3.889.231 5.834.378l1.25.092c2.916.209 5.825.425 8.742.648.717.054 1.427.155 2.145.224 3.858.34 7.708.772 11.551 1.266 1.721.216 3.433.447 5.154.679 3.619.501 7.23 1.103 10.826 1.728a213.197 213.197 0 0119.344 4.321 137.033 137.033 0 0111.551 3.711 73.111 73.111 0 019.521 4.329c2.115 1.158 4.121 2.454 5.95 4.028 1.658 1.427 3.109 3.032 4.074 5.038.385.795.563 1.652.81 2.485.007-1.659.023-3.318.031-4.977v-7.392c0-.895.03-1.798-.016-2.685l-.023-.015z" fill="#F10"/><path d="M159.185 19.552c-.594-.193-1.204-.332-1.775-.602 0-.077.008-.154.016-.231a8.013 8.013 0 012.006.918c-.085-.03-.17-.054-.255-.085h.008zM157.11 18.827s.054.023.07.047h-.016c-.061.038-.1.007-.139-.047.031-.007.054-.015.085 0zM85.374 63.712s-.015.062-.038.085l-.016.016a.088.088 0 01-.062.023v-.046s.047-.047.07-.063c.015 0 .03-.015.046-.015zM88.552 59.66s-.054.055-.085.07a.517.517 0 01-.131.054v-.077c0-.023 0-.046.008-.062.015-.038.03-.077.054-.108.023-.03.061-.054.092-.085l.116-.07c.008.055.008.101 0 .147 0 .039-.023.062-.039.093 0 .008-.015.023-.015.03v.009z" fill="#404A5A"/><path d="M89.765 58.032s-.016 0-.016.008h-.061c.038-.046.077-.1.115-.146v.038c0 .039-.015.062-.046.085l.008.015zM90.389 57.084c0-.039.03-.07.061-.085a.11.11 0 00.047-.016c0 .024-.008.031-.016.047 0 .015 0 .03-.015.046 0 .008-.016.015-.023.023-.016.008-.039.016-.054.023v-.038z" fill="#215CB5"/><path d="M145.166 13.372c.147-.062.239 0 .324.116-.131.03-.27.062-.324-.108v-.008z" fill="#FEC35E"/><path d="M145.158 13.372h.007l-.007.007v-.007z" fill="#FDBF41"/><path d="M108.6 37.655c.046-.039.084-.078.131-.124v.031c0 .031-.016.046-.031.07h-.008s-.046.023-.092.023zM109.503 36.744a.265.265 0 01.139-.039c0 .07-.016.108-.047.123-.046.031-.131.008-.193.016a.309.309 0 01.101-.1zM110.08 36.358s-.015.062-.038.085c0 0-.016.008-.023.015a.15.15 0 01-.062.016c.039-.046.085-.1.123-.147v.039-.008zM117.727 30.293l-.023.047c-.023.023-.054.03-.1.03.038-.046.084-.084.131-.13v.061l-.008-.008zM117.588 30.378v.03c0 .032-.015.047-.031.055-.015.008-.03.008-.061 0-.008 0-.023 0-.031-.016.046-.023.085-.046.131-.07h-.008z" fill="#404A5A"/><path d="M157.372 18.681c-3.811-1.697-7.631-3.387-11.442-5.093-.155-.069-.309-.015-.448-.1-.131.031-.27.062-.324-.108-.154.07-.301 0-.448-.054-3.341-1.003-6.759-1.312-10.239-1.134-4.606.24-9.02 1.366-13.31 3.025a58.808 58.808 0 00-3.974 1.697c-.324.154-.648.309-.972.47-.378.186-.756.371-1.127.572-.501.254-.995.517-1.496.787a83.333 83.333 0 00-7.57 4.699c-.509.355-1.018.71-1.52 1.073l-.301.215c-1.204.88-2.384 1.775-3.542 2.701-2.9 2.307-5.686 4.76-8.38 7.33-7.476 7.138-14.12 15.016-20.2 23.365-.154.216-.308.44-.463.655 0 0-.015.054-.03.07-.016.015-.04.023-.07.03-.548.78-1.088 1.552-1.636 2.331a194.688 194.688 0 00-2.685 3.912 244.112 244.112 0 00-2.469 3.78 153.61 153.61 0 00-1.906 3.033c-.556.91-1.111 1.814-1.659 2.724a271.126 271.126 0 00-2.291 3.897c-.379.655-.749 1.303-1.12 1.967-.038.077-.092.147-.138.224 0 .085-.031.154-.062.224-.03.046-.062.1-.085.146-.347.618-.687 1.243-1.026 1.868a247.67 247.67 0 00-3.735 7.075 260.142 260.142 0 00-14.082 33.519c-1.01 2.993-1.936 6.01-2.839 9.035a206.32 206.32 0 00-1.08 3.742l-.023.093a174.583 174.583 0 00-1.536 5.903c-.44 1.775-.864 3.557-1.257 5.347a230.01 230.01 0 00-.957 4.599c-.07.362-.14.725-.209 1.095-.03.147-.054.294-.085.44-.007.054-.023.108-.03.17-.054.293-.116.579-.17.872-.44 2.4-.834 4.807-1.173 7.23a195.375 195.375 0 00-.872 7.014c-.054.524-.1 1.049-.154 1.574 0 .038-.008.077-.008.116-.038.401-.062.686-.092.972-.109 1.304-.201 2.616-.278 3.92a133.974 133.974 0 00-.178 3.935c0 .17 0 .339-.015.509a123.315 123.315 0 00-.016 7.554c.078 2.377.209 4.745.432 7.114.216 2.361.517 4.715.926 7.068.201 1.15.417 2.292.664 3.426.818 3.827 1.921 7.577 3.434 11.204.108.254.208.501.324.756.108.247.223.501.331.748.263.587.54 1.165.826 1.736a44.27 44.27 0 001.528 2.801c1.481 2.5 3.225 4.823 5.293 6.922.54.555 1.103 1.08 1.682 1.582a28.223 28.223 0 003.48 2.6c.232.146.502.231.671.455a.486.486 0 01.062.108c.116-.023.2 0 .232.124.478.115.864.439 1.304.632 2.345 1.042 4.683 2.084 7.029 3.125 1.335.594 2.677 1.173 4.02 1.76l.17-.155c-.432-.27-.88-.525-1.297-.81-.44-.301-.856-.617-1.273-.941-3.495-2.716-6.234-6.104-8.48-9.939-1.365-2.33-2.477-4.776-3.433-7.291-.023-.062-.047-.116-.07-.178-1.28-3.403-2.214-6.906-2.916-10.47a96.155 96.155 0 01-.942-5.757c-.015-.139-.038-.27-.054-.409-.123-.949-.231-1.905-.332-2.854a85.259 85.259 0 01-.331-4.213c-.016-.348-.039-.695-.054-1.042 0-.085-.008-.178-.016-.262-.07-1.945-.139-3.889-.131-5.834v-.316c0-.347 0-.695.016-1.042.046-1.528.092-3.048.154-4.568.03-.764.07-1.52.115-2.284.047-.764.093-1.52.147-2.284.2-2.662.47-5.308.795-7.955.116-.964.24-1.921.378-2.886.147-1.072.309-2.145.478-3.21.132-.841.27-1.682.417-2.523.162-.956.34-1.906.517-2.862.224-1.204.463-2.4.71-3.604.285-1.365.579-2.739.887-4.097.278-1.211.563-2.423.864-3.634.332-1.335.672-2.67 1.027-3.997.085-.309.177-.617.27-.926.092-.309.185-.617.262-.926.162-.648.293-1.296.525-1.929.054-.069.139-.139.146-.216.186-1.528.733-2.955 1.204-4.39.208-.641.409-1.289.61-1.937.277-.903.555-1.806.84-2.709.232-.74.471-1.481.726-2.214.1-.286.193-.579.293-.872l.394-1.111c.555-1.543 1.095-3.094 1.659-4.637.231-.633.47-1.274.71-1.906a262.16 262.16 0 012.554-6.459c.246-.609.501-1.211.756-1.813.208-.486.409-.964.61-1.451.493-1.141.995-2.283 1.496-3.425.394-.895.795-1.783 1.204-2.678.309-.687.625-1.358.941-2.045a206.342 206.342 0 012.616-5.424c.154-.316.34-.617.517-.918.178-.301.355-.61.51-.934 2.623-5.563 5.701-10.88 8.873-16.142.285-.47.563-.941.849-1.412.663-1.095 1.296-2.207 2.044-3.233a41.6 41.6 0 001.335-1.952c.432-.656.856-1.32 1.296-1.968.895-1.296 1.729-2.638 2.616-3.942l.347-.51c.594-.856 1.212-1.697 1.814-2.546v-.046s.046-.047.069-.062c.015 0 .03-.015.046-.015.872-1.173 1.744-2.354 2.616-3.527.038-.054.085-.1.123-.146.024-.023.039-.047.054-.062.054-.062.108-.116.162-.178v-.077c0-.023 0-.046.008-.061a.354.354 0 01.054-.108c.023-.031.062-.054.093-.085l.115-.07c.024-.023.04-.046.055-.07.34-.424.686-.848 1.026-1.272l.115-.147c0-.03.016-.054.031-.085a.36.36 0 01.039-.077.883.883 0 01.108-.131c0-.008.015-.016.023-.023.147-.14.332-.255.37-.463v-.039c0-.038.031-.07.062-.085.016 0 .031-.007.046-.015.1-.077.193-.154.27-.247.024-.023.04-.046.055-.062.061-.07.115-.146.17-.224.069-.1.138-.208.208-.316.054-.077.108-.162.162-.24.038-.053.077-.107.115-.153.263-.325.533-.649.795-.965a173.43 173.43 0 015.718-6.628c1.535-1.697 3.125-3.341 4.73-4.97.278-.285.563-.57.841-.848.525-.525 1.072-1.01 1.612-1.512.217-.2.433-.394.641-.602.046-.039.085-.085.131-.124.671-.648 1.358-1.296 2.037-1.936.016-.016.031-.023.046-.039.178-.162.378-.309.564-.455.046-.039.085-.077.131-.124l.038-.038c.209-.216.425-.425.633-.64a.317.317 0 01.1-.1.269.269 0 01.139-.04.381.381 0 00.162-.069.93.93 0 00.093-.085c.023-.023.039-.054.062-.085l.123-.146a74.747 74.747 0 011.914-1.652c.54-.455 1.088-.902 1.643-1.35a73.004 73.004 0 013.827-2.87c.047-.023.085-.046.132-.07h.007a.778.778 0 01.131-.139c.294-.216.595-.44.888-.648a70.285 70.285 0 011.805-1.257c.301-.201.61-.41.919-.602.308-.2.617-.401.926-.594a84.24 84.24 0 016.003-3.441c3.209-1.652 6.527-3.049 10-4.083l.794-.231a41.288 41.288 0 015.602-1.165 35.057 35.057 0 013.249-.293 32.696 32.696 0 012.461-.023c.278.007.548.015.826.03.825.047 1.643.132 2.461.247 1.134.155 2.253.37 3.372.656.031-.008.054-.015.085 0 .031 0 .054.023.069.047l.078.023c.054.015.1.03.154.054 0-.077.008-.155.015-.232a.136.136 0 00-.054-.038l.023-.016z" fill="#F1ECE2"/><path d="M145.165 13.372c-.054-.24-.286-.263-.456-.34-3.287-1.458-6.574-2.924-9.876-4.367-.88-.386-1.728-.834-2.639-1.142-.1.062-.208.054-.316.015-2.261-.74-4.607-1.11-6.968-1.257-2.168-.132-4.344 0-6.497.285a41.93 41.93 0 00-5.247 1.073 52.815 52.815 0 00-9.691 3.665c-1.196.594-2.353 1.265-3.534 1.89-.394.208-.803.394-1.18.617-3.38 2.014-6.66 4.183-9.77 6.598-.778.602-1.573 1.188-2.299 1.844-.47.424-.925.856-1.435 1.227-.092.07-.193.139-.308.208a6.4 6.4 0 01-.255.216v.015c-.038.1-.077.193-.139.247a.254.254 0 01-.123.054h-.093s-.046-.015-.077-.023a.434.434 0 00-.062.047c-.27.192-.416.524-.663.717-.039.031-.078.054-.116.077-.648.34-1.042.95-1.62 1.366-.556.401-1.019.934-1.528 1.404-2.524 2.323-4.908 4.784-7.269 7.269-.725.764-1.373 1.582-2.068 2.376-.401.456-.849.857-1.242 1.304-1.073 1.227-2.114 2.485-3.171 3.72a41.564 41.564 0 00-2.23 2.847c-.556.78-1.22 1.474-1.814 2.222-1.797 2.307-3.503 4.684-5.208 7.052-1.682 2.338-3.225 4.769-4.822 7.169-1.436 2.152-2.755 4.382-4.12 6.59-.502.817-.95 1.666-1.46 2.484a65.94 65.94 0 00-2.445 4.313c-.479.57-.764 1.265-1.127 1.906a62.52 62.52 0 00-2.137 4.097c-.208.448-.51.826-.725 1.273a185.81 185.81 0 01-1.868 3.72c-1.597 3.101-3.001 6.288-4.46 9.46-1.581 3.425-2.986 6.936-4.374 10.447-.942 2.384-1.891 4.768-2.64 7.222-.123.401-.354.764-.493 1.157-.726 2.115-1.45 4.221-2.138 6.343a199.73 199.73 0 00-1.82 5.887 252.116 252.116 0 00-1.598 5.703 198.79 198.79 0 00-2.685 11.157c-.2.995-.401 1.991-.594 2.986a189.55 189.55 0 00-1.729 10.224c-.447 3.256-.817 6.52-1.11 9.792l-.07.902a138.41 138.41 0 00-.316 5.394c-.085 2.06-.1 4.12-.116 6.18 0 .98.1 1.968.092 2.956-.015 1.504.116 3.001.201 4.498.03.548.054 1.103.108 1.659.008.093.023.193.03.286.178 1.442.294 2.893.495 4.328.193 1.397.386 2.793.64 4.175.37 1.929.718 3.858 1.312 5.733.185.586.285 1.203.455 1.805.355 1.312.78 2.608 1.242 3.881a64.419 64.419 0 002.277 5.378 38.379 38.379 0 004.76 7.547c1.775 2.214 3.804 4.166 6.127 5.802.093.07.193.131.293.193l.51.324c.092.062.192.124.293.185.324.201.64.409.949.633a6.536 6.536 0 01.293.224c0 .015.015.031.023.046.054.077.162.085.247.124 4.012 1.774 8.017 3.549 12.03 5.324.161.069.316.177.509.131-.024-.039-.039-.07-.062-.108-.17-.224-.44-.309-.671-.455a29.64 29.64 0 01-5.162-4.182c-2.068-2.099-3.812-4.429-5.294-6.922a44.22 44.22 0 01-1.527-2.801 44.277 44.277 0 01-1.158-2.492c-.108-.255-.216-.502-.324-.756-1.512-3.627-2.608-7.377-3.434-11.204a83.54 83.54 0 01-.663-3.426 94.547 94.547 0 01-.926-7.068 114.898 114.898 0 01-.432-7.114c-.077-2.515-.062-5.038.015-7.554.008-.17.008-.339.016-.509.046-1.312.108-2.624.177-3.935.077-1.304.17-2.616.278-3.92.023-.286.054-.571.093-.972 0-.039.007-.077.007-.116.047-.525.093-1.049.155-1.574.239-2.346.54-4.684.872-7.014.347-2.423.74-4.83 1.172-7.23.054-.293.116-.579.17-.872.008-.054.023-.108.031-.17.03-.146.054-.293.085-.439l.208-1.096c.301-1.536.617-3.071.957-4.599.393-1.79.818-3.572 1.258-5.347.486-1.975.995-3.943 1.535-5.903 0-.031.016-.062.023-.092a285.372 285.372 0 013.92-12.778 254.329 254.329 0 011.698-4.838 243.55 243.55 0 013.456-9.02 255.911 255.911 0 018.928-19.66 247.67 247.67 0 013.734-7.076c.34-.625.687-1.25 1.027-1.868.03-.046.061-.1.084-.146a.378.378 0 00.062-.224c.047-.077.1-.154.14-.224.37-.656.74-1.312 1.118-1.967a285.01 285.01 0 012.292-3.897c.547-.91 1.103-1.821 1.659-2.724a153.61 153.61 0 011.906-3.032 244.84 244.84 0 012.469-3.781 194.41 194.41 0 012.685-3.912c.54-.78 1.088-1.551 1.636-2.33v-.047c0-.008.007-.023.015-.03.016-.024.046-.031.077-.031.154-.217.301-.44.463-.656 6.08-8.35 12.724-16.22 20.2-23.364 2.694-2.57 5.472-5.024 8.381-7.33 1.157-.927 2.338-1.822 3.541-2.701l.301-.216c.502-.363 1.011-.718 1.52-1.073 2.454-1.697 4.969-3.28 7.57-4.699.493-.27.995-.532 1.497-.787.378-.193.748-.386 1.126-.571a60.322 60.322 0 014.946-2.168c4.29-1.652 8.704-2.778 13.31-3.025 3.473-.185 6.891.123 10.239 1.134.147.047.294.116.448.054l.008-.007z" fill="#FDBF41"/><path d="M71.539 58.804s.047-.03.078-.03a.098.098 0 01-.031.07c-.016.015-.04.023-.07.03v-.046c0-.008.007-.024.015-.031l.008.008zM84.333 23.981a.252.252 0 01.177-.092c.047 0 .108 0 .17.015v.015c-.038.1-.077.193-.139.247a.255.255 0 01-.123.055h-.093s-.046-.016-.077-.024a.4.4 0 01.093-.216h-.008z" fill="#C18B00"/><path d="M131.47 7.207c-2.986-1.335-5.98-2.631-8.95-3.982-3.403-1.55-6.937-2.507-10.68-2.685-.941 0-1.89 0-2.831.008h-1.104c-1.882.1-3.742.378-5.586.771-5.44 1.158-10.502 3.287-15.355 5.957-4.884 2.685-9.421 5.895-13.734 9.414-.548.447-1.142.856-1.62 1.396a.213.213 0 00-.101.085v.047h-.046c-.124.1-.247.192-.37.293-4.777 4.09-9.214 8.526-13.411 13.21-4.985 5.57-9.584 11.45-13.882 17.561-6.404 9.105-12.075 18.658-17.13 28.573a248.14 248.14 0 00-9.305 20.478c-2.909 7.269-5.578 14.63-7.723 22.168-.24.834-.533 1.659-.772 2.493-1.76 6.211-3.28 12.476-4.475 18.819-1.019 5.378-1.829 10.779-2.361 16.227-.394 3.951-.664 7.909-.649 11.883 0 1.805.008 3.611.016 5.416.023.247.03.494.038.741.008.386 0 .764-.015 1.15.015 2.199.2 4.382.409 6.574.347 3.572.887 7.106 1.682 10.602.988 4.382 2.338 8.634 4.26 12.7 2.06 4.352 4.675 8.31 8.21 11.621 2.06 1.929 4.328 3.557 6.882 4.753 2.268 1.065 4.568 2.06 6.867 3.071 1.574.694 3.133 1.443 4.738 2.06-.093-.07-.185-.147-.278-.216 0 0-.008 0-.015-.008a15.647 15.647 0 00-.95-.633c-.1-.061-.192-.123-.293-.185-.17-.108-.34-.208-.509-.324-.1-.062-.193-.131-.293-.193-2.323-1.643-4.344-3.588-6.127-5.802a38.408 38.408 0 01-4.76-7.547 59.662 59.662 0 01-2.277-5.378 48.219 48.219 0 01-1.242-3.881c-.162-.594-.27-1.211-.455-1.805-.594-1.875-.95-3.804-1.312-5.733-.262-1.382-.447-2.778-.64-4.175-.201-1.435-.325-2.886-.494-4.328-.008-.093-.023-.193-.031-.286-.054-.548-.077-1.103-.108-1.659-.077-1.497-.209-2.994-.2-4.498 0-.98-.101-1.968-.093-2.956.015-2.06.038-4.12.115-6.18.07-1.798.178-3.596.317-5.394l.07-.902c.292-3.272.663-6.536 1.11-9.792a189.55 189.55 0 011.729-10.224c.193-.995.393-1.991.594-2.986.772-3.75 1.69-7.461 2.685-11.157.51-1.906 1.042-3.812 1.597-5.703.579-1.975 1.18-3.935 1.821-5.887.695-2.122 1.42-4.236 2.138-6.343.13-.401.37-.763.493-1.157.757-2.454 1.698-4.838 2.64-7.222 1.388-3.511 2.792-7.014 4.374-10.448 1.459-3.163 2.863-6.358 4.46-9.46a239.56 239.56 0 001.868-3.719c.215-.44.524-.825.725-1.273a62.415 62.415 0 012.137-4.097c.363-.64.648-1.335 1.127-1.906a65.912 65.912 0 012.446-4.313c.509-.81.956-1.667 1.458-2.485 1.358-2.206 2.678-4.429 4.12-6.59 1.598-2.399 3.14-4.83 4.823-7.167 1.705-2.37 3.41-4.746 5.208-7.053.587-.756 1.25-1.443 1.813-2.222a41.586 41.586 0 012.23-2.847c1.058-1.242 2.1-2.5 3.172-3.72.393-.447.84-.848 1.242-1.303.694-.787 1.343-1.613 2.068-2.377 2.361-2.484 4.745-4.946 7.268-7.268.51-.471.973-1.004 1.528-1.405.579-.416.965-1.026 1.62-1.366.039-.023.085-.046.116-.077.247-.193.394-.524.664-.717a.423.423 0 00.061-.047.4.4 0 01.093-.216.252.252 0 01.177-.092c.047 0 .109 0 .17.015.085-.07.17-.146.255-.216l.309-.208c.509-.37.964-.795 1.435-1.227.725-.664 1.527-1.242 2.3-1.844 3.109-2.415 6.388-4.583 9.768-6.597.385-.224.787-.41 1.18-.618 1.181-.632 2.338-1.304 3.534-1.89a53.044 53.044 0 019.692-3.665 43.306 43.306 0 015.246-1.073c2.153-.293 4.329-.416 6.497-.285 2.369.146 4.707.517 6.968 1.258.116.038.216.046.316-.016-.193-.208-.486-.208-.725-.316h.023z" fill="#F10"/><path d="M84.418 23.118s-.04-.031-.055-.039c.024.016.04.023.055.039z" fill="#F10"/><path d="M111.841.532h-2.832c-.37.016-.741.016-1.103.016-.016-.046-.039-.093-.054-.139 1.342 0 2.692 0 4.035-.015l-.046.138z" fill="#FEC35E"/><path d="M71.486 18.225h-.023v-.046h.054v.054h-.023l-.008-.008z" fill="#C18B00"/><path opacity=".48" d="M235.197 192.978c.385-.301.385-.332 0-.633-.896-.717-1.852-1.342-2.832-1.936-3.272-1.984-6.767-3.496-10.347-4.808-.818-.301-1.613-.663-2.485-.817-.239-.271-.594-.294-.903-.394-3.341-1.111-6.744-2.022-10.154-2.894a1.948 1.948 0 01-.81-.223c-1.598-.348-3.195-.702-4.784-1.05a194.512 194.512 0 00-8.905-1.697 378.22 378.22 0 00-6.635-1.05c-1.729-.254-3.457-.517-5.201-.64-.286-.046-.571-.1-.864-.139a348.058 348.058 0 00-18.349-1.736c-4.005-.27-8.009-.486-12.022-.64a410.44 410.44 0 00-15.733-.294c-6.504 0-13.001.162-19.49.479-7.5.362-14.985.933-22.446 1.767-1.22.139-2.454.216-3.658.478-.247-.069-.486 0-.733.023a249.838 249.838 0 00-15.871 2.462 197.4 197.4 0 00-9.275 1.967l-.062.101s-.795 11.435.965 22.6c3.032.717 6.08 1.358 9.135 1.929 2.732.509 5.47.995 8.225 1.389 3.859.555 7.724 1.119 11.605 1.52 3.774.393 7.539.802 11.32 1.08 2.238.162 4.467.355 6.705.486 3.31.193 6.628.355 9.938.471 3.025.108 6.05.193 9.074.231 4.838.062 9.684.039 14.522-.061a404.45 404.45 0 0013.974-.54 353.098 353.098 0 0016.62-1.32c8.434-.872 16.821-2.045 25.131-3.704 7.261-1.45 14.437-3.225 21.397-5.787 3.032-1.111 6.003-2.384 8.827-3.958 1.435-.795 2.824-1.659 4.121-2.67v.008z" fill="url(#prefix__paint0_linear_2147_5216)"/><defs><linearGradient id="prefix__paint0_linear_2147_5216" x1="149.852" y1="178.278" x2="148.78" y2="205.957" gradientUnits="userSpaceOnUse"><stop offset=".16" stop-color="#191919"/><stop offset=".97" stop-color="#191919" stop-opacity="0"/></linearGradient></defs></svg>