<svg width="256" height="48" fill="none" xmlns="http://www.w3.org/2000/svg"><g clip-path="url(#prefix__clip0_1433_928)"><path d="M0 13.832h8.397l6.881 19.64 7.393-19.64h5.14l7.271 19.415 6.882-19.415h8.458L37.96 48.32h-5.438L25.211 28.7l-7.496 19.62H12.35L0 13.832zM55.307-.32h8.52v18.514c1.68-1.454 3.359-2.54 5.058-3.267 1.7-.727 3.41-1.085 5.151-1.085 3.4 0 6.206 1.136 8.581 3.543 1.987 2.048 2.99 5.048 2.99 9V48.33H77.15V34.025c0-3.984-.184-6.677-.563-8.09-.379-1.413-1.024-2.468-1.936-3.154-.91-.696-2.037-1.044-3.379-1.044-1.74 0-3.236.583-4.485 1.74-1.25 1.158-2.11 2.745-2.59 4.742-.257 1.034-.38 3.389-.38 7.075V48.33h-8.52l.011-48.65zM97.25 13.832c-2.417 0-4.291 1.997-4.291 4.332V48.32h8.581V18.153c0-2.324-1.874-4.321-4.29-4.321zM118.958 13.831V-.32h-8.581v48.64h8.581V21.337h5.089v-7.506h-5.089z" fill="#fff"/><path fill-rule="evenodd" clip-rule="evenodd" d="M161.976 33.451H135.71c.379 2.335 1.393 4.188 3.042 5.56 1.648 1.373 3.748 2.07 6.308 2.07 3.051 0 5.683-1.076 7.874-3.226l6.892 3.256c-1.721 2.447-3.779 4.27-6.175 5.448-2.396 1.177-5.243 1.76-8.54 1.76-5.11 0-9.278-1.617-12.493-4.873-3.215-3.246-4.823-7.312-4.823-12.196 0-5.008 1.608-9.165 4.813-12.473 3.205-3.307 7.219-4.956 12.052-4.956 5.13 0 9.308 1.66 12.524 4.957 3.215 3.307 4.823 7.67 4.823 13.096l-.031 1.577zm-8.171-6.482c-.543-1.832-1.608-3.317-3.195-4.464-1.588-1.147-3.441-1.72-5.54-1.72-2.284 0-4.281.645-6.001 1.925-1.075.809-2.079 2.222-3 4.25h17.736v.01z" fill="#fff"/><path d="M97.168-.32c1.556 0 2.887.553 3.993 1.669 1.116 1.116 1.669 2.457 1.669 4.045 0 1.556-.553 2.887-1.648 3.993-1.096 1.106-2.417 1.649-3.953 1.649-1.577 0-2.918-.563-4.034-1.68-1.117-1.126-1.67-2.488-1.67-4.096 0-1.536.553-2.856 1.649-3.942C94.28.222 95.611-.32 97.168-.32zM215.225-.32h8.99v48.64h-8.99V-.32zm14.479 0H256v9.124h-8.663V48.32h-9.185V8.804h-8.438l-.01-9.124zM186.778 17.64l-.932 1.741c-.113.215-.195.38-.225.492a1.088 1.088 0 00.286 1.126c.226.226.523.349.861.349.327 0 .614-.113.839-.328.236-.215.348-.492.348-.81 0-.327-.112-.603-.338-.829a1.12 1.12 0 00-.604-.317l.553-1.044-.788-.38zm.276 2.55c0 .093-.03.164-.082.226-.123.112-.286.123-.409 0a.299.299 0 01-.092-.226c0-.092.03-.163.081-.225a.264.264 0 01.195-.082.31.31 0 01.215.082.3.3 0 01.092.225zm4.127-15.974l-1.495 2.13-.021.03v.738h1.475v.666h.901v-.666h.297v-.83h-.297V4.206l-.86.01zm-.42 2.079l.369-.523v.523h-.369zm-19.2 28.19l1.229-2.406h-1.331v-.84h2.488l-.01.512-1.577 3.103-.799-.368zm15.442 8.356a.384.384 0 00.113-.286.37.37 0 00-.103-.277c-.102-.102-.225-.133-.379-.061a.854.854 0 00-.163.123l-.052.05-.727-.153.461-2.027h1.823v.829h-1.127l-.071.287h.041c.338 0 .635.112.86.338.225.225.338.512.338.86s-.123.645-.379.89a1.277 1.277 0 01-.911.36c-.318 0-.594-.093-.83-.267a1.163 1.163 0 01-.45-.717l-.041-.164h.931l.041.072a.434.434 0 00.154.174.358.358 0 00.471-.03zm-.42-17.346c.236-.215.348-.492.348-.81 0-.327-.112-.603-.338-.829a1.118 1.118 0 00-.604-.317l.553-1.045-.788-.378-.932 1.74c-.113.215-.195.38-.225.492a1.087 1.087 0 00.286 1.126c.226.226.523.348.861.348a1.2 1.2 0 00.839-.327zm-1.136-.82c0-.092.03-.163.081-.225.052-.061.113-.082.195-.082a.31.31 0 01.215.082c.062.062.082.123.082.215a.339.339 0 01-.082.226.282.282 0 01-.41 0 .294.294 0 01-.081-.215zm19.701 10.046v-.666h.297v-.83h-.297v-2.078h-.85l-1.495 2.13-.02.03v.738h1.474v.666l.891.01zm-1.269-1.495l.368-.522v.522h-.368zm-20.05-7.537a1.08 1.08 0 00.45-.41 1.103 1.103 0 00.021-1.126 1.168 1.168 0 00-.277-.317.898.898 0 00.256-.635c0-.184-.051-.369-.143-.522a.98.98 0 00-.41-.38 1.392 1.392 0 00-1.177 0 1.027 1.027 0 00-.41.37.96.96 0 00-.143.522c0 .143.03.276.082.4.041.081.092.163.153.245a1.38 1.38 0 00-.276.328 1.161 1.161 0 00-.133.522 1.086 1.086 0 00.604.993c.174.082.42.123.706.123.287.02.512-.02.697-.113zm-.533-2.263a.251.251 0 01-.338 0c-.051-.04-.071-.102-.071-.174s.02-.123.061-.164a.216.216 0 01.164-.061c.082 0 .133.02.184.061a.209.209 0 01.062.154.267.267 0 01-.062.184zm-.45 1.004a.42.42 0 01.297-.103.41.41 0 01.286.103c.072.071.113.143.113.235s-.031.174-.102.226c-.134.122-.451.122-.594-.01a.296.296 0 01-.103-.236c-.01-.082.021-.154.103-.215zm8.837 19.272v-2.653h-.799l.543-.84h1.167v3.492h-.911zm-11.203-2.427a.9.9 0 00-.287.686c0 .194.041.358.123.512a.879.879 0 00.359.338c.286.153.686.163.983.04a1.87 1.87 0 00.471-.337l.102-.093.625.625-.092.092c-.267.246-.512.42-.748.512a2.23 2.23 0 01-.809.144c-.563 0-1.024-.174-1.382-.512-.359-.338-.543-.789-.543-1.321 0-.349.082-.656.246-.922.164-.266.399-.492.706-.655a2.115 2.115 0 011.844-.062c.276.123.512.287.716.512l.082.092-.645.584-.092-.092c-.276-.287-.584-.42-.932-.42a.928.928 0 00-.727.277zm3.666 2.508c.328 0 .614-.112.84-.327.235-.215.348-.492.348-.81 0-.327-.113-.603-.338-.829a1.123 1.123 0 00-.604-.317l.553-1.045-.789-.378-.932 1.74c-.112.215-.194.38-.225.492a1.276 1.276 0 00-.051.338c0 .297.113.563.338.788.225.236.522.348.86.348zm-.297-1.147c0-.092.031-.163.082-.225.051-.061.113-.082.195-.082s.153.031.215.082a.273.273 0 01.082.215.338.338 0 01-.082.226c-.123.112-.287.122-.41 0a.294.294 0 01-.082-.215zm9.749.83l1.228-2.407h-1.331v-.84h2.489l-.011.513-1.577 3.103-.798-.37zm-4.27-19.333c.112-.215.194-.38.225-.482.03-.112.051-.225.051-.337 0-.297-.113-.564-.338-.789a1.189 1.189 0 00-.86-.348c-.328 0-.604.113-.84.328a1.056 1.056 0 00-.348.809c0 .327.113.604.338.819.174.174.379.276.614.317l-.563 1.045.789.379.932-1.741zm-.625-.81a.294.294 0 01-.082.216c-.113.112-.297.102-.41 0a.296.296 0 01-.092-.215c0-.092.031-.164.092-.225a.264.264 0 01.205-.082c.072 0 .133.03.195.082a.302.302 0 01.092.225zm-4.321-2.928a.387.387 0 00.112-.287.373.373 0 00-.102-.276c-.103-.102-.225-.133-.379-.061a.854.854 0 00-.164.122l-.051.052-.727-.154.461-2.027h1.822v.829h-1.126l-.072.287h.041c.348 0 .635.112.86.338.226.225.338.512.338.86s-.123.645-.379.89c-.245.246-.552.359-.911.359-.317 0-.594-.082-.829-.266a1.164 1.164 0 01-.451-.717l-.041-.164h.932l.041.072a.426.426 0 00.154.174.358.358 0 00.471-.03zm19.742 8.13c0 .451.052.779.154 1.035.102.256.256.45.45.573.195.123.441.195.717.195.287 0 .522-.061.707-.195.184-.122.338-.327.44-.583.113-.256.154-.604.154-1.045 0-.44-.051-.788-.154-1.044a1.241 1.241 0 00-.461-.594 1.272 1.272 0 00-.716-.195c-.42 0-.758.164-1.004.492-.184.287-.287.737-.287 1.362zm.922.011c0-.297.02-.533.061-.676a.499.499 0 01.144-.276.348.348 0 01.194-.072c.072 0 .174.02.267.174.061.092.133.317.133.809 0 .39-.052.676-.144.83-.082.143-.184.153-.256.153-.071 0-.174-.02-.276-.174-.051-.082-.123-.297-.123-.768zM172.616 8.66l-.932 1.741c-.113.215-.195.379-.225.492a1.276 1.276 0 00-.051.337c0 .297.112.564.337.789.226.225.523.348.861.348.327 0 .614-.113.839-.328.236-.215.348-.491.348-.809 0-.327-.112-.604-.337-.829a1.125 1.125 0 00-.605-.317l.553-1.045-.788-.379zm.276 2.55c0 .092-.03.164-.082.225-.122.113-.286.123-.409 0a.299.299 0 01-.092-.225c0-.092.03-.164.082-.225a.26.26 0 01.194-.082.31.31 0 01.215.082c.072.061.092.133.092.225zm.011 9.195a.32.32 0 00.102-.245.336.336 0 00-.143-.267c-.113-.082-.277-.122-.492-.122h-.133v-.779l.123-.01a.755.755 0 00.297-.061.282.282 0 00.123-.093.201.201 0 00.041-.122.17.17 0 00-.052-.123c-.02-.02-.061-.051-.153-.051a.308.308 0 00-.164.05.247.247 0 00-.102.144l-.031.092h-.871l.021-.143c.031-.266.143-.481.307-.645.236-.226.522-.338.871-.338.307 0 .573.092.788.287.215.194.328.43.328.696a.788.788 0 01-.328.645.95.95 0 01.502.84c0 .327-.123.604-.379.83-.246.224-.563.337-.942.337-.369 0-.666-.102-.901-.317-.236-.215-.359-.502-.379-.86l-.01-.144h.901l.02.113a.481.481 0 00.144.297c.112.123.368.123.512-.01zm7.813-14.714c.071-.134.112-.246.112-.338a.263.263 0 00-.092-.215.35.35 0 00-.481.02c-.072.072-.103.184-.113.318v.122h-.901l.01-.133c.021-.379.144-.686.379-.911.236-.225.543-.338.912-.338a1.173 1.173 0 011.034.553c.102.174.164.358.164.543 0 .204-.062.44-.185.676-.123.235-.327.501-.645.819l-.153.164h1.013V7.8h-2.611v-.481l1.086-1.055c.235-.246.399-.44.471-.573zm.809 11.95l-.932 1.74c-.113.215-.195.38-.225.492a1.088 1.088 0 00.286 1.126c.225.226.522.349.86.349.328 0 .615-.113.84-.328.236-.215.348-.492.348-.81 0-.327-.112-.603-.338-.829a1.123 1.123 0 00-.604-.317l.553-1.044-.788-.38zm.276 2.55a.339.339 0 01-.082.225.28.28 0 01-.409 0 .3.3 0 01-.093-.226c0-.092.031-.163.082-.225a.264.264 0 01.195-.082.31.31 0 01.215.082c.072.062.092.133.092.225zM180.49 35.6l-.931 1.741c-.113.215-.195.38-.226.492-.03.113-.051.225-.051.338 0 .297.113.563.338.788.225.226.522.349.86.349.328 0 .615-.113.84-.328.235-.215.348-.492.348-.81 0-.327-.113-.603-.338-.829a1.122 1.122 0 00-.604-.317l.553-1.044-.789-.38zm.287 2.55a.338.338 0 01-.082.226.28.28 0 01-.409 0 .3.3 0 01-.093-.226c0-.092.031-.164.082-.225a.264.264 0 01.195-.082.31.31 0 01.215.082.303.303 0 01.092.225zm-9.308-8.601c.113.256.256.45.451.573.194.123.44.195.716.195.287 0 .523-.062.707-.195.184-.123.338-.328.44-.584a1.97 1.97 0 00.113-.389v.42h1.474v.666h.902v-.666h.296v-.83h-.296v-2.078h-.85l-1.475 2.11c.01-.093.01-.185.01-.277 0-.44-.051-.788-.153-1.044a1.254 1.254 0 00-.461-.594 1.275 1.275 0 00-.717-.195c-.42 0-.758.164-1.003.492-.205.297-.308.737-.308 1.361-.01.451.041.789.154 1.035zm3.533-.81l.368-.521v.522h-.368zm-2.775-.204c0-.297.02-.533.061-.676a.499.499 0 01.144-.276.345.345 0 01.194-.072c.072 0 .174.02.266.174.062.092.133.317.133.809 0 .39-.051.676-.143.83-.082.143-.184.153-.256.153-.072 0-.174-.02-.276-.174-.052-.082-.123-.297-.123-.768zm8.263-6.41l-.931 1.74c-.113.216-.195.38-.226.492-.03.113-.051.225-.051.338 0 .297.113.563.338.788.225.226.522.349.86.349.328 0 .615-.113.84-.328.235-.215.348-.491.348-.809 0-.328-.113-.604-.338-.83a1.123 1.123 0 00-.604-.317l.553-1.044-.789-.38zm.287 2.55a.338.338 0 01-.082.225.28.28 0 01-.409 0 .3.3 0 01-.093-.226c0-.092.031-.163.082-.225.052-.061.113-.082.195-.082a.31.31 0 01.215.082.32.32 0 01.092.226zm-2.877-7.783l.932-1.74c.122-.216.194-.38.225-.482.031-.113.051-.225.051-.338 0-.297-.113-.563-.338-.788a1.189 1.189 0 00-.86-.348c-.328 0-.604.112-.84.327a1.056 1.056 0 00-.348.81c0 .327.113.603.338.818.174.174.379.277.614.318l-.563 1.044.789.38zm-.287-2.55c0-.092.031-.163.092-.225a.264.264 0 01.205-.082.297.297 0 01.287.307.294.294 0 01-.082.215c-.113.113-.297.103-.41 0a.28.28 0 01-.092-.215zm16.292 1.577a.32.32 0 00.102-.245.336.336 0 00-.143-.267c-.113-.082-.277-.123-.492-.123h-.133v-.778l.123-.01a.755.755 0 00.297-.062.283.283 0 00.123-.092.19.19 0 00.041-.112.172.172 0 00-.051-.123c-.021-.02-.062-.051-.154-.051a.31.31 0 00-.164.05.247.247 0 00-.102.144l-.031.092h-.87l.02-.143a1.13 1.13 0 01.307-.645c.236-.225.523-.338.871-.338.307 0 .573.092.788.287a.92.92 0 01.328.696.852.852 0 01-.143.471.801.801 0 01-.185.184.95.95 0 01.502.84c0 .328-.123.604-.379.83-.246.225-.563.337-.942.337-.358 0-.666-.112-.891-.317-.225-.205-.358-.502-.379-.86l-.01-.144h.901l.021.113c.02.133.071.236.133.297.112.102.368.102.512-.03zm-19.958-4.69c0 .215.051.42.164.594.113.174.256.318.44.4.185.082.42.123.707.123.276 0 .501-.041.686-.134a.999.999 0 00.44-.41 1.103 1.103 0 00.021-1.126 1.168 1.168 0 00-.277-.317.898.898 0 00.256-.635c0-.184-.051-.369-.143-.522a.98.98 0 00-.41-.379 1.392 1.392 0 00-1.177 0 1.026 1.026 0 00-.41.369.961.961 0 00-.143.522c0 .143.03.276.082.4.041.081.092.163.153.245a1.38 1.38 0 00-.276.328 1.425 1.425 0 00-.113.542zm1.464-1.28c-.092.082-.245.093-.338 0a.225.225 0 01-.071-.174c0-.071.02-.123.061-.164a.216.216 0 01.164-.061c.082 0 .133.02.184.061a.209.209 0 01.062.154c.01.092-.01.143-.062.184zm-.153.902a.41.41 0 01.286.102c.072.072.113.143.113.235 0 .093-.031.175-.102.226-.144.123-.451.123-.594-.01a.31.31 0 01-.103-.236c0-.082.041-.154.113-.225a.438.438 0 01.287-.093zm-.021 2.293l-.932 1.741c-.112.215-.194.379-.225.492a1.276 1.276 0 00-.051.338c0 .296.113.563.338.788.225.225.522.348.86.348.328 0 .604-.113.84-.328.235-.215.348-.491.348-.809 0-.327-.113-.604-.338-.829a1.123 1.123 0 00-.604-.317l.553-1.045-.789-.379zm.287 2.55a.338.338 0 01-.082.225c-.123.113-.287.123-.41 0a.303.303 0 01-.092-.225c0-.092.031-.164.082-.225a.28.28 0 01.195-.082c.082 0 .153.03.215.082a.32.32 0 01.092.225zm2.57 12.442c.072-.134.113-.246.113-.338a.266.266 0 00-.092-.215.352.352 0 00-.482.02.446.446 0 00-.112.318v.122h-.901l.01-.133c.02-.379.143-.686.379-.911.235-.225.543-.338.911-.338.225 0 .43.051.604.143.174.093.318.236.43.41.103.174.164.358.164.543 0 .205-.061.44-.184.676-.123.235-.328.501-.645.819l-.154.164h1.014v.83h-2.611v-.482l1.085-1.055c.236-.246.389-.43.471-.573zm-.225-19.477l-.932 1.741a2.957 2.957 0 00-.225.492 1.276 1.276 0 00-.051.337c0 .297.112.564.338.789.225.225.522.348.86.348a1.2 1.2 0 00.839-.328c.236-.215.349-.491.349-.809 0-.327-.113-.604-.338-.829a1.122 1.122 0 00-.605-.317l.553-1.045-.788-.379zm.276 2.55c0 .092-.03.164-.092.225a.28.28 0 01-.409 0 .299.299 0 01-.092-.225c0-.092.03-.164.081-.225a.282.282 0 01.195-.082.31.31 0 01.215.082c.082.061.102.133.102.225zm-3.952 14.295l1.229-2.406h-1.332v-.84h2.489l-.011.512-1.576 3.103-.799-.369zm2.457-6c0-.349.082-.656.246-.922.164-.266.4-.492.707-.656a2.113 2.113 0 011.843-.061c.276.123.512.297.717.512l.082.092-.645.584-.093-.092c-.276-.287-.583-.42-.931-.42a.996.996 0 00-.717.276.896.896 0 00-.287.686c0 .195.041.359.123.512a.98.98 0 00.358.349c.287.153.686.163.983.04a1.87 1.87 0 00.471-.338l.103-.092.624.625-.092.092c-.266.246-.512.42-.747.512a2.236 2.236 0 01-.809.143c-.563 0-1.024-.174-1.383-.512a1.78 1.78 0 01-.553-1.33zm3.974 10.73h.901v-.665h.297v-.83h-.297v-2.078h-.85l-1.495 2.13-.021.03v.738h1.475v.676h-.01zm-.369-1.494l.369-.522v.522h-.369zm-5.878-7.752c.225.225.522.348.86.348.328 0 .604-.112.84-.327.235-.215.348-.492.348-.81 0-.327-.113-.604-.338-.829a1.122 1.122 0 00-.604-.317l.553-1.045-.788-.379-.932 1.741c-.113.215-.195.38-.226.492-.03.112-.051.225-.051.338 0 .297.113.563.338.788zm.563-.799c0-.092.031-.163.082-.225a.28.28 0 01.195-.082c.082 0 .153.03.215.082a.273.273 0 01.082.215.338.338 0 01-.082.225c-.123.113-.287.123-.41 0a.294.294 0 01-.082-.215zm4.864 14.49c.185.082.42.123.707.123.276 0 .502-.041.686-.133a1 1 0 00.44-.41c.113-.184.164-.379.164-.584 0-.194-.051-.378-.143-.542a1.168 1.168 0 00-.277-.318c.082-.092.133-.174.174-.256a.883.883 0 00.082-.379c0-.184-.051-.368-.143-.522a.973.973 0 00-.41-.379 1.391 1.391 0 00-1.177 0 1.027 1.027 0 00-.41.369.96.96 0 00-.143.522c0 .144.03.277.092.4.041.082.092.163.154.245a1.144 1.144 0 00-.267.328 1.045 1.045 0 00-.133.522c0 .215.051.42.164.594.113.195.256.328.44.42zm.86-2.283c-.092.081-.245.092-.337 0-.052-.041-.072-.103-.072-.175 0-.071.02-.123.061-.163a.216.216 0 01.164-.062c.082 0 .133.02.184.062.041.04.062.092.062.153.01.092-.01.143-.062.184zm-.153.9c.113 0 .205.031.287.103.071.072.112.143.112.236 0 .092-.031.174-.102.225-.133.123-.451.123-.594-.01a.295.295 0 01-.102-.236c0-.082.04-.154.112-.225a.504.504 0 01.287-.092zm-3.338 5.807c.194.123.43.194.716.194.287 0 .523-.061.707-.194.184-.123.338-.328.44-.584.103-.256.154-.604.154-1.045 0-.44-.051-.788-.154-1.044a1.246 1.246 0 00-.46-.594 1.277 1.277 0 00-.717-.194c-.42 0-.758.163-1.004.491-.205.297-.307.737-.307 1.362 0 .45.051.778.154 1.034.122.256.276.45.471.574zm.307-1.587c0-.298.02-.533.061-.676.041-.133.082-.226.144-.277a.348.348 0 01.194-.072c.072 0 .174.021.266.175.062.092.134.317.134.808 0 .39-.052.676-.144.83-.082.143-.184.154-.256.154-.071 0-.174-.02-.276-.175-.051-.081-.123-.297-.123-.767zm-6.011-21.433c.113.256.256.44.451.574.194.122.44.194.716.194.287 0 .523-.061.707-.194.184-.123.338-.328.44-.584.103-.256.154-.604.154-1.045 0-.44-.051-.788-.154-1.044a1.242 1.242 0 00-.461-.594 1.272 1.272 0 00-.716-.194c-.42 0-.758.163-1.004.491-.205.297-.307.737-.307 1.362.01.45.061.788.174 1.034zm.758-1.024c0-.297.02-.532.061-.676a.498.498 0 01.144-.276.345.345 0 01.194-.072c.072 0 .174.02.266.174.062.092.133.318.133.81 0 .388-.051.675-.143.829-.082.143-.184.153-.256.153-.072 0-.174-.02-.276-.174-.052-.082-.123-.287-.123-.768zm-.758 10.005c.113.256.256.44.451.573.194.123.44.195.716.195.287 0 .523-.062.707-.195.184-.123.338-.328.44-.584.103-.256.154-.604.154-1.054 0-.44-.051-.789-.154-1.045a1.241 1.241 0 00-.461-.594 1.272 1.272 0 00-.716-.194c-.42 0-.758.164-1.004.491-.205.297-.307.737-.307 1.362.01.461.061.799.174 1.045zm.758-1.024c0-.297.02-.533.061-.676a.499.499 0 01.144-.277.346.346 0 01.194-.071c.072 0 .174.02.266.174.062.092.133.317.133.809 0 .389-.051.675-.143.83-.082.143-.184.153-.256.153-.072 0-.174-.02-.276-.174-.052-.082-.123-.287-.123-.768zm8.294-11.643l.932-1.741c.113-.215.194-.379.225-.481.031-.113.051-.226.051-.338 0-.297-.112-.563-.337-.789a1.193 1.193 0 00-.861-.348 1.2 1.2 0 00-.839.328 1.068 1.068 0 00-.348.809c0 .327.112.604.337.819.174.174.379.277.615.317l-.563 1.045.788.379zm-.276-2.55c0-.092.03-.164.092-.225a.263.263 0 01.205-.082.299.299 0 01.286.307.29.29 0 01-.082.215c-.112.113-.297.102-.409 0a.263.263 0 01-.092-.215zm-3.431 15.657l1.229-2.406h-1.331v-.84h2.488l-.01.512-1.577 3.103-.799-.369zm2.53-12.227h2.488l-.01.512-1.577 3.103-.789-.369 1.229-2.406h-1.331l-.01-.84zm-2.827 25.938h-2.611v-.48l1.086-1.056c.245-.235.399-.42.481-.553.071-.133.112-.245.112-.338a.263.263 0 00-.092-.215.35.35 0 00-.481.02c-.072.073-.102.185-.113.318v.123h-.901l.01-.133c.021-.379.144-.686.379-.911.236-.226.543-.338.912-.338.225 0 .43.051.604.143s.317.236.43.41c.102.174.154.358.154.542 0 .205-.062.44-.185.676-.123.236-.327.502-.645.82l-.153.163h1.013v.81zm.041-7.465l-1.577 3.103-.788-.368 1.229-2.407h-1.332v-.84h2.489l-.021.512zm1.311-.645l-.932 1.741a2.961 2.961 0 00-.225.492 1.275 1.275 0 00-.051.337c0 .297.112.564.338.789.225.225.522.348.86.348a1.2 1.2 0 00.839-.328c.236-.215.349-.491.349-.809 0-.327-.113-.604-.338-.829a1.123 1.123 0 00-.605-.317l.553-1.045-.788-.379zm.276 2.55c0 .092-.03.164-.092.225a.28.28 0 01-.409 0 .299.299 0 01-.092-.225c0-.092.03-.164.081-.225a.244.244 0 01.195-.082.31.31 0 01.215.082.26.26 0 01.102.225zM173.886 7.79h-2.612v-.482l1.086-1.054c.246-.236.399-.42.481-.553.072-.133.113-.246.113-.338a.266.266 0 00-.092-.215.351.351 0 00-.482.02c-.071.072-.102.185-.112.318v.123h-.901l.01-.133c.02-.38.143-.687.379-.912.235-.225.542-.338.911-.338.225 0 .43.041.604.144.174.092.328.225.43.41.103.173.164.358.164.542 0 .205-.061.44-.184.676-.123.235-.328.502-.645.819l-.154.164h1.014l-.01.809zm1.536-7.148h-1.332v-.84h2.489l-.011.513-1.576 3.102-.789-.368 1.219-2.407zm-2.632 0h-1.331v-.84h2.488l-.01.513-1.577 3.102-.789-.368L172.79.642zm1.536 42.824c-.236-.215-.359-.502-.379-.86l-.01-.144h.901l.02.113a.48.48 0 00.144.297c.133.123.389.123.542-.01a.317.317 0 00.103-.246.336.336 0 00-.143-.266c-.113-.082-.277-.123-.492-.123h-.133v-.778l.123-.01a.756.756 0 00.297-.062c.051-.02.092-.062.123-.092a.196.196 0 00.041-.113.17.17 0 00-.052-.123c-.02-.02-.071-.05-.153-.05a.308.308 0 00-.164.05.247.247 0 00-.102.144l-.031.092h-.871l.021-.144c.041-.266.143-.48.307-.645.236-.225.522-.338.87-.338.308 0 .574.093.789.287a.92.92 0 01.328.696.852.852 0 01-.144.471.776.776 0 01-.184.185.95.95 0 01.502.84c0 .327-.123.604-.379.829-.246.225-.563.338-.942.338-.4-.02-.697-.123-.932-.338zm-1.72.317c.327 0 .614-.112.839-.327.236-.215.348-.492.348-.81 0-.327-.112-.603-.337-.829a1.125 1.125 0 00-.605-.317l.553-1.045-.788-.378-.932 1.74c-.113.215-.195.38-.225.492a1.276 1.276 0 00-.051.338c0 .297.112.563.337.788.236.236.523.348.861.348zm-.287-1.147c0-.092.031-.163.082-.225.051-.061.112-.082.194-.082.093 0 .154.031.215.082.062.062.082.123.082.215s-.03.164-.082.226c-.122.112-.286.122-.409 0-.062-.052-.082-.123-.082-.215zm-.86 2.069h2.488l-.01.512-1.577 3.103-.789-.369 1.229-2.406h-1.331l-.01-.84zm6.4-41.329a1.2 1.2 0 00.839-.327c.236-.215.349-.492.349-.81a1.09 1.09 0 00-.338-.819 1.122 1.122 0 00-.605-.317l.553-1.044-.788-.38-.932 1.741a2.961 2.961 0 00-.225.492 1.276 1.276 0 00-.051.338c0 .297.112.563.338.788.235.226.522.338.86.338zm-.297-1.147c0-.092.03-.163.082-.225a.28.28 0 01.194-.082.31.31 0 01.215.082.277.277 0 01.092.215c0 .092-.03.164-.092.225a.28.28 0 01-.409 0 .29.29 0 01-.082-.215zm-5.817 36.803a1.162 1.162 0 01-.45-.717l-.041-.164h.932l.041.072a.431.431 0 00.153.174.372.372 0 00.461-.051.384.384 0 00.113-.287.37.37 0 00-.103-.276c-.102-.103-.225-.133-.379-.072a.854.854 0 00-.163.123l-.052.051-.727-.154.461-2.027h1.823v.83h-1.126l-.072.286h.041c.348 0 .635.113.86.338.225.225.338.512.338.86s-.123.645-.379.891a1.277 1.277 0 01-.911.358 1.16 1.16 0 01-.82-.235zm4.68-34.028a1.241 1.241 0 00-.461-.593 1.272 1.272 0 00-.716-.195c-.42 0-.758.164-1.004.492-.205.296-.307.737-.307 1.361 0 .44.051.779.153 1.035.103.256.256.44.451.573.195.123.44.195.717.195.286 0 .522-.062.706-.195.185-.123.338-.328.451-.584.041-.112.082-.245.113-.389v.42h1.474v.666h.901v-.666h.297v-.83h-.297V4.217h-.85l-1.474 2.11c.01-.093.01-.185.01-.287-.01-.44-.061-.789-.164-1.035zm-.768 1.045c0 .39-.051.676-.143.83-.082.143-.185.153-.256.153-.072 0-.174-.02-.277-.174-.061-.092-.133-.297-.133-.778 0-.297.021-.533.062-.676.041-.133.082-.225.143-.277a.348.348 0 01.195-.071c.071 0 .174.02.266.174.071.102.143.327.143.819zm1.966.246l.369-.523v.523h-.369zm9.431.594l-.041-.164h.932l.041.071a.427.427 0 00.154.175.387.387 0 00.471-.052.388.388 0 00.112-.286.37.37 0 00-.102-.277c-.102-.102-.225-.133-.379-.061a.856.856 0 00-.164.123l-.051.05-.727-.153.461-2.027h1.823v.83h-1.127l-.072.286h.041c.338 0 .635.112.861.338.225.225.337.512.337.86s-.122.645-.378.89c-.246.247-.553.36-.912.36-.317 0-.594-.083-.829-.267a1.066 1.066 0 01-.451-.696zm1.495-6.247h-1.331v-.84h2.488l-.01.513-1.587 3.102-.789-.368 1.229-2.407zm-3.01 1.362l-.563 1.045.788.379.932-1.741c.123-.215.194-.38.225-.482.031-.112.051-.225.051-.337 0-.297-.112-.564-.338-.789a1.189 1.189 0 00-.86-.348 1.2 1.2 0 00-.839.328 1.054 1.054 0 00-.349.809c0 .327.113.604.338.819.185.174.389.276.615.317zm-.041-1.136c0-.093.03-.164.092-.226a.263.263 0 01.205-.082.299.299 0 01.286.308c0 .092-.03.163-.081.215-.113.112-.297.102-.41 0-.072-.052-.092-.123-.092-.215zm4.157 1.024v.737h1.475v.665h.901V2.63h.297v-.83h-.297V-.279h-.85l-1.495 2.13-.031.04zm1.106-.093l.369-.522V1.8h-.369zm-7.649 1.577c.327 0 .614-.112.84-.327.235-.215.348-.492.348-.81a1.09 1.09 0 00-.338-.819 1.122 1.122 0 00-.604-.317l.553-1.044-.789-.38-.932 1.741c-.112.216-.194.38-.225.492a1.276 1.276 0 00-.051.338c0 .297.112.563.338.788.235.226.522.338.86.338zm-.297-1.147c0-.092.031-.163.082-.225a.28.28 0 01.194-.082.33.33 0 01.215.082.278.278 0 01.093.215.3.3 0 01-.093.225.28.28 0 01-.409 0 .294.294 0 01-.082-.215zm-3.011 1.024c.185.082.42.123.707.123.276 0 .502-.04.686-.133a1 1 0 00.44-.41 1.103 1.103 0 00.021-1.126 1.168 1.168 0 00-.277-.317c.082-.092.133-.174.174-.256a.883.883 0 00.082-.38c0-.183-.051-.358-.143-.521a.973.973 0 00-.41-.38 1.392 1.392 0 00-1.177 0 1.026 1.026 0 00-.41.37.938.938 0 00-.143.522c0 .143.03.276.092.399.041.082.092.164.154.246a1.144 1.144 0 00-.267.327 1.045 1.045 0 00-.133.523c0 .215.051.42.164.594.113.194.256.327.44.42zm.86-2.283c-.092.082-.245.092-.337 0a.222.222 0 01-.072-.174c0-.072.02-.123.061-.164a.216.216 0 01.164-.061c.082 0 .133.02.184.061a.209.209 0 01.062.154c.01.092-.01.143-.062.184zm-.153.901c.113 0 .205.03.287.102.071.072.112.144.112.236s-.031.174-.102.225c-.133.123-.451.123-.594-.01a.31.31 0 01-.102-.236c0-.081.04-.153.112-.225a.504.504 0 01.287-.092zm3.645 2.345h-.85l-1.495 2.13-.02.03v.738h1.474v.666h.902v-.666h.297v-.83h-.297V4.216h-.011zm-1.28 2.079l.369-.523v.523h-.369zm2.663.194l-.563 1.045.788.379.932-1.741c.123-.215.194-.379.225-.481.031-.113.051-.226.051-.338 0-.297-.112-.564-.338-.789a1.189 1.189 0 00-.86-.348 1.2 1.2 0 00-.839.328 1.054 1.054 0 00-.349.809c0 .327.113.604.338.819.185.174.389.276.615.317zm-.041-1.126c0-.092.03-.164.092-.225a.263.263 0 01.205-.082.299.299 0 01.286.307c0 .092-.03.164-.081.215a.291.291 0 01-.41 0c-.072-.051-.092-.123-.092-.215zm17.756 34.97a1.275 1.275 0 00-.717-.195c-.42 0-.758.164-1.003.491-.205.297-.308.738-.308 1.362 0 .45.052.779.154 1.035.102.256.256.45.451.573.194.123.44.195.716.195.287 0 .523-.062.707-.195.184-.123.338-.328.44-.584.103-.256.154-.604.154-1.044 0-.44-.051-.789-.154-1.045a1.117 1.117 0 00-.44-.593zm-.297 1.638c0 .389-.051.676-.143.83-.082.143-.185.153-.256.153-.072 0-.174-.02-.277-.174-.061-.092-.133-.297-.133-.778 0-.297.02-.533.061-.676.041-.133.082-.226.144-.277a.348.348 0 01.194-.071c.072 0 .174.02.267.174.071.102.143.317.143.819zm-3.82 5.396h1.014v.83h-2.611v-.482l1.085-1.054c.246-.236.4-.42.482-.553a.734.734 0 00.112-.338.263.263 0 00-.092-.215.35.35 0 00-.481.02c-.072.072-.102.185-.113.318v.123h-.901l.01-.133c.021-.38.144-.687.379-.912.236-.225.543-.338.912-.338.225 0 .43.051.604.144.174.092.317.235.43.41.102.173.164.358.164.542 0 .205-.062.44-.185.676-.123.235-.327.502-.645.819l-.164.143zm1.024-4.495h1.014v.83h-2.611v-.482l1.075-1.055c.246-.235.4-.42.481-.553.072-.133.113-.245.113-.337a.266.266 0 00-.092-.215.35.35 0 00-.481.02c-.072.072-.103.184-.113.317v.123h-.901l.01-.133c.021-.379.143-.686.379-.911.236-.225.543-.338.911-.338.226 0 .43.051.605.143.174.092.317.236.43.41.102.174.163.358.163.543 0 .204-.061.44-.184.675-.123.236-.328.502-.645.82l-.154.143zm-6.297 3.123l.553-1.044-.789-.38-.932 1.742c-.112.215-.194.378-.225.491a1.275 1.275 0 00-.051.338c0 .297.113.563.338.789.225.225.522.348.86.348.328 0 .614-.113.84-.328.235-.215.348-.492.348-.809 0-.328-.113-.604-.338-.83a1.196 1.196 0 00-.604-.317zm.041 1.137a.338.338 0 01-.082.225c-.123.113-.287.123-.41 0a.303.303 0 01-.092-.225c0-.092.031-.164.082-.225a.263.263 0 01.195-.082c.082 0 .153.03.215.082a.302.302 0 01.092.225zm-19.815-2.427h2.489l-.011.512-1.576 3.103-.789-.369 1.229-2.406h-1.331l-.011-.84zm19.19-39.107h-.901l.01-.133c.021-.379.144-.686.379-.911.236-.225.543-.338.912-.338.225 0 .43.041.604.143.174.093.327.226.43.41.102.174.164.358.164.543 0 .204-.062.44-.185.676-.123.235-.327.501-.645.819l-.153.164h1.013V7.8h-2.611v-.481l1.086-1.055c.245-.236.399-.42.481-.553.071-.133.112-.246.112-.338a.263.263 0 00-.092-.215.35.35 0 00-.481.02c-.072.072-.102.185-.113.318l-.01.102zm14.305 27.249a1.12 1.12 0 00-.604-.317l.553-1.045-.788-.379-.932 1.741c-.113.215-.195.379-.225.492a1.088 1.088 0 00.286 1.126c.226.225.523.348.861.348a1.2 1.2 0 00.839-.328c.236-.215.348-.491.348-.809 0-.337-.112-.614-.338-.829zm-.563.809c0 .092-.03.164-.092.225a.282.282 0 01-.41 0 .303.303 0 01-.092-.225c0-.092.031-.164.082-.225a.242.242 0 01.195-.082c.092 0 .164.03.215.082.071.071.102.133.102.225zm-3.963 4.73h1.014v.83h-2.611v-.48l1.085-1.056c.246-.235.4-.42.482-.553.071-.133.112-.245.112-.338a.263.263 0 00-.092-.215.35.35 0 00-.481.02c-.072.073-.103.185-.113.318v.123h-.901l.01-.133c.021-.379.144-.686.379-.911.236-.226.543-.338.912-.338.225 0 .43.051.604.143s.317.236.43.41c.102.174.164.358.164.542 0 .205-.062.44-.185.676-.123.236-.327.502-.645.82l-.164.143zm3.093-2.549a1.277 1.277 0 00-.717-.194c-.42 0-.758.163-1.003.491-.205.297-.308.737-.308 1.362 0 .45.052.778.154 1.034.102.256.256.45.45.574.195.123.441.194.717.194.287 0 .522-.061.707-.194.184-.123.338-.328.44-.584.113-.256.154-.604.154-1.045 0-.44-.051-.788-.154-1.044a1.158 1.158 0 00-.44-.594zm-.297 1.638c0 .39-.051.676-.143.83-.082.143-.185.154-.256.154-.072 0-.175-.02-.277-.175-.061-.092-.133-.297-.133-.778 0-.297.02-.532.061-.676a.499.499 0 01.144-.276.348.348 0 01.194-.072c.072 0 .174.02.267.174.071.113.143.328.143.82zm-8.704 8.694c.225.226.338.512.338.86 0 .349-.123.646-.379.891a1.277 1.277 0 01-.911.359c-.318 0-.594-.092-.83-.267a1.163 1.163 0 01-.45-.716l-.041-.164h.931l.041.072a.434.434 0 00.154.174.387.387 0 00.471-.052.384.384 0 00.113-.286.37.37 0 00-.103-.277c-.102-.102-.225-.133-.379-.072a.85.85 0 00-.163.123l-.052.052-.727-.154.461-2.028h1.823v.83h-1.127l-.071.287h.041c.348.03.635.143.86.368zm-19.047-4.659l.553-1.044-.788-.38-.932 1.742a2.965 2.965 0 00-.225.491 1.276 1.276 0 00-.051.338c0 .297.112.563.338.788.225.226.522.349.86.349a1.2 1.2 0 00.839-.328c.236-.215.349-.492.349-.809 0-.328-.113-.604-.338-.83a1.121 1.121 0 00-.605-.317zm.041 1.127a.3.3 0 01-.092.225.28.28 0 01-.409 0 .3.3 0 01-.092-.226c0-.092.03-.163.081-.225a.244.244 0 01.195-.082.31.31 0 01.215.082c.082.062.102.133.102.225zm3.257 3.655a.899.899 0 00.256-.635c0-.184-.051-.368-.144-.522a1.04 1.04 0 00-.409-.379 1.394 1.394 0 00-1.178 0 .954.954 0 00-.409.369.954.954 0 00-.144.522c0 .143.031.276.092.4.041.081.093.163.154.245a1.123 1.123 0 00-.236 1.444c.113.174.256.317.441.4.184.081.42.122.706.122.277 0 .502-.04.686-.133.185-.092.338-.225.441-.41.112-.184.164-.378.164-.583a.999.999 0 00-.144-.543 1.484 1.484 0 00-.276-.297zm-.738-.42a.24.24 0 01-.337 0c-.052-.04-.072-.102-.072-.174 0-.071.02-.123.061-.164a.216.216 0 01.164-.061c.082 0 .133.02.184.061a.209.209 0 01.062.154c.01.082-.01.143-.062.184zm-.45 1.004a.42.42 0 01.297-.103c.113 0 .205.031.287.103.071.072.112.143.112.235a.278.278 0 01-.102.226c-.133.122-.451.122-.594-.01a.295.295 0 01-.102-.236c-.011-.082.03-.154.102-.215zm-2.11-.88l.553-1.045-.788-.38-.932 1.742a2.961 2.961 0 00-.225.491 1.275 1.275 0 00-.051.338c0 .297.112.563.338.789.225.225.522.348.86.348a1.2 1.2 0 00.839-.328c.236-.215.349-.492.349-.809 0-.328-.113-.604-.338-.83a1.195 1.195 0 00-.605-.317zm.041 1.136c0 .092-.03.164-.092.225a.28.28 0 01-.409 0 .299.299 0 01-.092-.225c0-.092.03-.164.081-.225a.282.282 0 01.195-.082.31.31 0 01.215.082c.082.061.102.133.102.225zm5.213-1.137l.553-1.044-.789-.38-.932 1.742c-.112.215-.194.378-.225.491a1.275 1.275 0 00-.051.338c0 .297.112.563.338.789.225.225.522.348.86.348.327 0 .614-.113.84-.328.235-.215.348-.492.348-.809 0-.328-.113-.604-.338-.83a1.196 1.196 0 00-.604-.317zm.041 1.137a.3.3 0 01-.093.225.28.28 0 01-.409 0 .299.299 0 01-.092-.225c0-.092.03-.164.082-.225a.278.278 0 01.194-.082.33.33 0 01.215.082.276.276 0 01.103.225zm6.287-1.915l-1.577 3.103-.789-.369 1.229-2.406h-1.331v-.84h2.488l-.02.512zm2.345-.594h-.85l-1.495 2.13-.021.03v.738h1.475v.666h.901v-.666h.297v-.83h-.297v-2.068h-.01zm-1.27 2.079l.369-.523v.523h-.369zm-4.987-2.079a1.2 1.2 0 00-.839.328 1.054 1.054 0 00-.349.809c0 .327.113.604.338.819.174.174.379.276.615.317l-.563 1.045.788.379.932-1.741c.123-.215.194-.379.225-.481.031-.113.051-.226.051-.338 0-.297-.112-.563-.338-.789-.225-.235-.512-.348-.86-.348zm.297 1.147a.294.294 0 01-.082.215c-.112.113-.297.102-.409 0a.283.283 0 01-.082-.215.3.3 0 01.092-.225.263.263 0 01.205-.082.3.3 0 01.194.082c.062.061.082.133.082.225zm15.841-21.013l-.153.164h1.014v.83h-2.612v-.482l1.086-1.054c.246-.236.399-.42.481-.553.072-.133.113-.246.113-.338a.266.266 0 00-.092-.215.351.351 0 00-.482.02c-.071.072-.102.185-.112.318v.123h-.901l.01-.134c.02-.378.143-.686.379-.91.235-.226.542-.339.911-.339a1.173 1.173 0 011.034.553c.103.174.164.359.164.543 0 .205-.061.44-.184.676-.123.215-.338.481-.656.799zm-3-6.574c-.205.297-.307.738-.307 1.362 0 .44.051.778.154 1.034.102.256.256.44.45.574.195.123.44.195.717.195.287 0 .522-.062.706-.195.185-.123.338-.328.451-.584.102-.256.154-.604.154-1.044 0-.44-.052-.789-.154-1.045a1.241 1.241 0 00-.461-.594 1.275 1.275 0 00-.717-.194c-.419-.01-.757.153-.993.491zm1.28.523c.062.092.133.317.133.809 0 .389-.051.675-.143.829-.082.143-.184.154-.246.154-.072 0-.174-.02-.276-.175-.062-.092-.133-.296-.133-.778 0-.297.02-.532.061-.676.041-.133.082-.225.143-.276a.35.35 0 01.195-.072c.072.01.174.031.266.185zm-6.574-15.33c.328 0 .614-.112.84-.327.235-.215.348-.492.348-.81a1.09 1.09 0 00-.338-.819 1.122 1.122 0 00-.604-.317l.553-1.044-.789-.38-.932 1.741c-.112.216-.194.38-.225.492a1.276 1.276 0 00-.051.338c0 .297.113.563.338.788.235.226.522.338.86.338zm-.297-1.147c0-.092.031-.163.082-.225a.263.263 0 01.195-.082c.082 0 .153.031.215.082a.272.272 0 01.082.215.338.338 0 01-.082.225c-.123.113-.287.123-.41 0a.294.294 0 01-.082-.215zm2.929 19.897l-.932 1.74c-.113.216-.195.38-.225.492a1.087 1.087 0 00.286 1.126c.226.226.523.349.861.349.327 0 .614-.113.839-.328.236-.215.348-.491.348-.809 0-.328-.112-.604-.338-.83a1.12 1.12 0 00-.604-.317l.553-1.044-.788-.38zm.276 2.55c0 .092-.03.163-.092.225a.282.282 0 01-.41 0 .303.303 0 01-.092-.226c0-.092.031-.163.082-.225.051-.061.113-.082.195-.082s.153.031.215.082a.26.26 0 01.102.226zm4.967-11.53l-.932 1.74c-.113.215-.195.379-.225.492a1.087 1.087 0 00.286 1.126c.225.225.522.348.86.348.328 0 .615-.113.84-.328.236-.215.348-.491.348-.809 0-.327-.112-.604-.338-.829a1.123 1.123 0 00-.604-.317l.553-1.045-.788-.379zm.276 2.549a.338.338 0 01-.082.225.28.28 0 01-.409 0 .3.3 0 01-.093-.225c0-.092.031-.164.082-.225a.282.282 0 01.195-.082.33.33 0 01.215.082.279.279 0 01.092.225zm-4.075 4.567l-.154.164h1.014v.83h-2.611v-.482l1.085-1.055c.246-.235.399-.42.481-.553.072-.133.113-.245.113-.338a.266.266 0 00-.092-.215.352.352 0 00-.482.02c-.071.073-.102.185-.112.318v.123h-.901l.01-.133c.02-.379.143-.686.379-.911.235-.226.543-.338.911-.338.225 0 .43.04.604.143.174.092.328.226.43.41.103.174.164.358.164.543 0 .204-.061.44-.184.675-.123.215-.338.482-.655.8zm-3.922 7.547c0 .328.112.604.338.82.174.173.378.276.614.317l-.563 1.044.788.379.932-1.74c.123-.216.195-.38.225-.482a1.087 1.087 0 00-.286-1.126 1.192 1.192 0 00-.86-.349c-.328 0-.605.113-.84.328a1.053 1.053 0 00-.348.809zm.901 0c0-.092.031-.164.092-.225a.262.262 0 01.205-.082.299.299 0 01.286.307c0 .092-.03.164-.081.215a.29.29 0 01-.41 0 .266.266 0 01-.092-.215zm2.836 2.509a1.36 1.36 0 01-.829-.267 1.164 1.164 0 01-.451-.716l-.041-.164h.932l.041.072a.426.426 0 00.154.174.404.404 0 00.471-.052.387.387 0 00.112-.286.37.37 0 00-.102-.277c-.102-.102-.225-.133-.379-.061a.855.855 0 00-.164.123l-.051.05-.727-.153.461-2.027h1.823v.83h-1.127l-.072.286h.041c.338 0 .635.113.861.338.225.225.338.512.338.86s-.123.645-.379.89a1.214 1.214 0 01-.912.38zm2.079-16.927a1.275 1.275 0 00-.717-.194c-.42 0-.758.163-1.003.491-.205.297-.308.737-.308 1.362 0 .44.052.778.154 1.034.102.256.256.44.451.574.194.122.44.194.716.194.287 0 .523-.061.707-.194.184-.123.338-.328.44-.584.103-.256.154-.604.154-1.045 0-.44-.051-.788-.154-1.044a1.153 1.153 0 00-.44-.594zm-.307 1.638c0 .39-.051.676-.144.83-.082.143-.184.153-.256.153-.071 0-.174-.02-.276-.174-.061-.092-.133-.297-.133-.778 0-.297.02-.532.061-.676.041-.133.082-.225.144-.276a.348.348 0 01.194-.072c.072 0 .174.02.266.174.072.103.144.318.144.82zm-2.212 19.446c.235-.215.348-.491.348-.809 0-.327-.113-.604-.338-.83a1.122 1.122 0 00-.604-.317l.553-1.044-.788-.379-.932 1.74c-.113.216-.195.38-.226.492-.03.113-.051.226-.051.338 0 .297.113.563.338.789.225.225.522.348.86.348.328 0 .615-.113.84-.328zm-1.137-.819c0-.092.031-.164.082-.225.051-.062.113-.082.195-.082s.153.03.215.082a.273.273 0 01.082.215.338.338 0 01-.082.225c-.123.113-.287.123-.41 0a.294.294 0 01-.082-.215zm7.281-4.413l-.154.163h1.014v.83h-2.611v-.481l1.085-1.055c.246-.236.4-.42.482-.553.071-.133.112-.246.112-.338a.263.263 0 00-.092-.215.35.35 0 00-.481.02c-.072.072-.103.185-.113.318v.123h-.901l.01-.133c.021-.38.144-.687.379-.912.236-.225.543-.338.912-.338.225 0 .43.052.604.144s.317.235.43.41c.102.173.164.358.164.542 0 .205-.062.44-.185.676-.123.215-.338.481-.655.799zM196.424 8.7l-1.495 2.13-.021.03v.738h1.475v.666h.901v-.666h.297v-.83h-.297V8.692l-.86.01zm-.42 2.079l.369-.522v.522h-.369zm5.724.635a.384.384 0 00.113-.287.37.37 0 00-.103-.277c-.102-.102-.225-.133-.378-.06a.825.825 0 00-.164.122l-.052.051-.727-.153.461-2.028h1.823v.83h-1.126l-.072.286h.041c.348 0 .635.113.86.338.225.225.338.512.338.86s-.123.645-.379.891c-.246.246-.553.359-.911.359a1.3 1.3 0 01-.83-.267 1.162 1.162 0 01-.45-.716l-.041-.164h.932l.041.071c.04.082.092.133.153.174a.36.36 0 00.471-.03zm-.512 18.82v-.665h.297v-.83h-.297v-2.078h-.85l-1.495 2.13-.02.03v.738h1.474v.666l.891.01zm-1.28-1.494l.369-.522v.522h-.369zm-1.044 6.113l.932-1.74c.112-.216.194-.38.225-.482.031-.113.051-.225.051-.338 0-.297-.113-.563-.338-.788a1.189 1.189 0 00-.86-.349c-.328 0-.604.113-.84.328a1.057 1.057 0 00-.348.81c0 .327.113.603.338.818.174.174.379.277.614.318l-.563 1.044.789.38zm-.277-2.55c0-.092.031-.163.092-.225a.264.264 0 01.205-.082c.072 0 .133.03.195.082a.303.303 0 01.092.225.294.294 0 01-.082.215c-.113.113-.307.113-.41 0a.262.262 0 01-.092-.215zm-3.737-13.148c.071-.133.112-.246.112-.338a.263.263 0 00-.092-.215.35.35 0 00-.481.02c-.072.072-.103.185-.113.318v.123h-.901l.01-.133c.021-.379.144-.686.379-.912.236-.225.543-.337.912-.337a1.173 1.173 0 011.034.553c.102.174.164.358.164.542 0 .205-.062.44-.185.676-.123.236-.327.502-.645.82l-.164.163h1.014v.83h-2.611v-.482l1.085-1.054c.246-.246.41-.43.482-.574zm1.587-4.485c.071-.133.112-.246.112-.338a.263.263 0 00-.092-.215.35.35 0 00-.481.02c-.072.072-.102.185-.113.318l-.01.123h-.901l.01-.133c.021-.38.144-.686.379-.912.236-.225.543-.338.911-.338.226 0 .431.041.605.144.174.092.317.235.43.41.102.174.164.358.164.542 0 .205-.062.44-.185.676-.123.236-.327.502-.645.82l-.153.163h1.013v.83h-2.611v-.482l1.086-1.054c.245-.246.409-.44.481-.574zm-1.516 24.668l.932-1.74c.123-.216.195-.38.225-.482a1.088 1.088 0 00-.286-1.126 1.192 1.192 0 00-.86-.348c-.328 0-.605.112-.84.327a1.053 1.053 0 00-.348.81c0 .327.112.603.338.818.174.175.378.277.614.318l-.563 1.044.788.38zm-.276-2.55c0-.092.031-.163.092-.225a.262.262 0 01.205-.082.299.299 0 01.286.307c0 .093-.03.164-.081.215a.291.291 0 01-.41 0 .266.266 0 01-.092-.215zm3.574-14.53h1.822v.83h-1.126l-.072.286h.041c.338 0 .635.113.86.338.226.225.338.512.338.86s-.123.645-.379.891a1.275 1.275 0 01-.911.358c-.317 0-.594-.081-.829-.266-.236-.174-.379-.42-.451-.717l-.041-.163h.932l.041.071a.388.388 0 00.624.123.384.384 0 00.113-.287.373.373 0 00-.102-.276c-.103-.102-.226-.133-.379-.062a.859.859 0 00-.164.123l-.051.052-.737-.154.471-2.007zm3.43-17.121h-1.331v-.84h2.488l-.01.512-1.577 3.103-.789-.369 1.219-2.406zm-2.796 32.972l-.01-.143h.901l.021.113c.02.133.071.235.133.297.133.122.389.122.543-.01a.32.32 0 00.102-.246.336.336 0 00-.143-.267c-.113-.081-.277-.123-.492-.123h-.133v-.778l.123-.01a.755.755 0 00.297-.061.283.283 0 00.123-.093.196.196 0 00.041-.112.172.172 0 00-.051-.123c-.021-.02-.062-.051-.154-.051a.308.308 0 00-.164.05.247.247 0 00-.102.144l-.031.092h-.87l.02-.143c.041-.266.143-.481.307-.645.236-.225.522-.338.871-.338.307 0 .573.092.788.287.215.194.328.43.328.696a.844.844 0 01-.144.471.776.776 0 01-.184.184.95.95 0 01.502.84c0 .328-.123.604-.379.83-.246.225-.563.338-.942.338-.369 0-.666-.113-.901-.318a1.248 1.248 0 01-.4-.88zm3.922-6.359l-1.577 3.103-.788-.368 1.229-2.407h-1.331v-.84h2.488l-.021.512zm-3.747-26.613h-1.332v-.84h2.489l-.011.512-1.577 3.103-.788-.369 1.219-2.406zm4.72 4.946h-.901l.01-.134c.021-.378.144-.686.379-.91.236-.226.543-.339.912-.339a1.173 1.173 0 011.034.553c.102.174.164.358.164.543 0 .205-.062.44-.185.676-.123.235-.327.501-.645.819l-.153.164h1.013v.83h-2.611v-.482l1.075-1.055c.246-.235.4-.42.482-.553.071-.133.112-.246.112-.338a.292.292 0 00-.092-.215.35.35 0 00-.481.02c-.072.072-.103.185-.113.318v.103zm-7.291-7.65a.384.384 0 00.113-.286.373.373 0 00-.102-.277c-.103-.102-.226-.133-.379-.061a.826.826 0 00-.164.122l-.051.052-.727-.154.46-2.027h1.823v.829h-1.126l-.072.287h.041c.348 0 .635.112.86.338.225.225.338.512.338.86s-.123.645-.379.89c-.246.246-.553.36-.911.36a1.3 1.3 0 01-.83-.267 1.162 1.162 0 01-.45-.717l-.041-.164h.932l.041.072a.432.432 0 00.153.174.358.358 0 00.471-.03zm.482 1.977a1.277 1.277 0 00-.717-.195c-.42 0-.758.164-1.004.492-.205.296-.307.737-.307 1.361 0 .44.051.779.154 1.035.102.256.256.44.45.573.195.123.441.195.717.195.287 0 .522-.062.707-.195.184-.123.337-.328.45-.584.103-.256.154-.604.154-1.044 0-.44-.051-.789-.154-1.045a1.121 1.121 0 00-.45-.593zm-.297 1.638c0 .39-.052.676-.144.83-.082.143-.184.153-.256.153-.071 0-.174-.02-.276-.174-.062-.092-.133-.297-.133-.778 0-.297.02-.533.061-.676a.505.505 0 01.143-.277.351.351 0 01.195-.071c.072 0 .174.02.266.174.072.102.144.327.144.819zm2.191 6.308c.328 0 .614-.113.84-.328.235-.215.348-.491.348-.809 0-.328-.113-.604-.338-.83a1.122 1.122 0 00-.604-.317l.553-1.044-.789-.38-.932 1.742c-.112.215-.194.379-.225.491a1.276 1.276 0 00-.051.338c0 .297.113.563.338.789.235.235.522.348.86.348zm-.297-1.147c0-.092.031-.164.082-.225a.262.262 0 01.194-.082c.093 0 .154.03.216.082.061.061.081.123.081.215s-.03.164-.081.225a.282.282 0 01-.41 0 .294.294 0 01-.082-.215zm-9.165 32.573c.328 0 .615-.112.84-.327.235-.215.348-.492.348-.81 0-.327-.113-.603-.338-.829a1.123 1.123 0 00-.604-.317l.553-1.045-.789-.378-.931 1.74c-.113.215-.195.38-.226.492-.03.113-.051.225-.051.338 0 .297.113.563.338.788.225.236.512.348.86.348zm-.297-1.147c0-.092.031-.163.082-.225.051-.061.113-.082.195-.082s.153.031.215.082a.273.273 0 01.082.215.338.338 0 01-.082.226.282.282 0 01-.41 0 .294.294 0 01-.082-.215zm-.307-24.873h1.167v3.492h-.911v-2.652h-.799l.543-.84zm3.666-8.98h2.488l-.01.512-1.577 3.103-.788-.369 1.228-2.406h-1.331l-.01-.84zm6.41 27.453l-1.577 3.103-.788-.368 1.229-2.407h-1.332v-.84h2.489l-.021.513zm-7.997-18.472h2.488l-.01.512-1.577 3.102-.789-.368 1.229-2.407h-1.331l-.01-.84zm7.68 25.938h-2.611v-.482l1.085-1.055c.246-.235.399-.42.481-.553.072-.133.113-.245.113-.337a.266.266 0 00-.092-.215.352.352 0 00-.482.02c-.071.072-.102.184-.112.317v.123h-.901l.01-.133c.02-.379.143-.686.379-.911.235-.225.543-.338.911-.338.225 0 .43.051.604.143s.328.236.43.41c.103.174.164.358.164.543 0 .204-.061.44-.184.675-.123.236-.328.502-.645.82l-.154.163h1.014l-.01.81zm-7.824-17.828l-.788-.369 1.229-2.406h-1.331v-.84h2.488l-.01.512-1.588 3.103zm3.021-.133h.901v-.666h.297v-.83h-.297v-2.078h-.85l-1.495 2.14-.02.03v.738h1.474v.666h-.01zm-.368-1.485l.368-.523v.523h-.368z" fill="#F2D080"/></g><defs><clipPath id="prefix__clip0_1433_928"><path fill="#fff" d="M0 0h256v48H0z"/></clipPath></defs></svg>