<svg width="256" height="256" fill="none" xmlns="http://www.w3.org/2000/svg"><path d="M0 41.333h43.453l34.145 111.933L100.87 95.5c3.058-7.567 10.373-12.5 18.485-12.5h16.557a19.882 19.882 0 0118.485 12.5l23.273 57.766 12.8-41.933h43.453L206.728 200.5c-2.56 8.4-10.306 14.166-19.083 14.166h-15.227a19.881 19.881 0 01-18.486-12.5l-26.298-65.233-26.298 65.233c-3.059 7.567-10.373 12.5-18.485 12.5H67.624A19.936 19.936 0 0148.54 200.5L0 41.333zM211.817 41.333L199.117 83h43.454l12.733-41.667h-43.487z" fill="#fff"/></svg>