<svg width="256" height="256" fill="none" xmlns="http://www.w3.org/2000/svg"><g clip-path="url(#prefix__clip0_1433_832)"><path d="M128.974 256C58.226 256.481.493 199.557.001 128.973-.48 58.225 56.444.492 127.028 0 197.776-.48 255.51 56.28 256.001 127.027V128c.164 70.421-56.596 127.672-127.027 128zm0-236.964c-60.17-.327-109.292 47.975-109.62 108.309-.327 60.18 47.975 109.291 108.319 109.619 60.181.328 109.292-47.974 109.62-108.155V128c0-60.016-48.302-108.646-108.319-108.964zm4.557 91.403l24.555-30.086c2.601-3.092 2.12-7.802-.973-10.414-1.3-.972-2.928-1.628-4.556-1.628-2.12 0-4.23.973-5.53 2.601l-22.774 27.812-22.937-27.812c-1.301-1.628-3.41-2.6-5.53-2.6H76.934c-4.065 0-7.321 3.42-7.321 7.485 0 1.628.645 3.256 1.628 4.556l33.997 41.472-43.264 53.023c-2.601 3.093-2.438 7.649.645 10.25 3.092 2.601 7.649 2.437 10.25-.645l.164-.164 41.636-50.903 18.862-22.947zm56.924-42.128c-2.11 0-4.229.973-5.53 2.601l-41.472 50.903-18.862 23.091-24.566 30.096c-2.6 3.092-2.273 7.649.809 10.25 3.093 2.601 7.65 2.273 10.251-.809l22.773-27.812 22.774 27.812c1.301 1.628 3.41 2.601 5.53 2.601h18.862a7.294 7.294 0 007.321-7.322c0-1.792-.645-3.41-1.792-4.72L152.72 133.53l43.264-53.023c2.601-3.256 1.956-7.803-1.136-10.414-1.137-1.127-2.765-1.618-4.393-1.782z" fill="#FFBE40"/><g clip-path="url(#prefix__clip1_1433_832)"><path d="M1249.4-385.001l-.7 624.3-540.9-312.5-540.2-313.1 541.5-311.2L1250-1009.3l-.6 624.299z" fill="#fff"/><path d="M167 237.999l-.7 624.3-540.2-312.5-540.2-313.1 540.9-311.2 540.9-311.8-.7 624.3z" fill="#92BE8D"/><path d="M-913.499-387.6l.6-624.3 540.2 313.1 540.3 312.5-540.9 311.8-540.9 311.2.7-624.3z" fill="#119E5F"/><path d="M-915.4 860.999l1.3-624.3 540.3 313.1 540.2 312.5-540.9 311.901-541.5 311.1.6-624.301z" fill="#fff"/><path d="M707.901-73.2l-540.3-313.101-.6 624.3-.7 624.3 540.3 313.101 540.199 312.5.6-624.301 1.3-624.3-540.799-312.5z" fill="#119E5F"/></g></g><defs><clipPath id="prefix__clip0_1433_832"><path fill="#fff" d="M0 0h256v256H0z"/></clipPath><clipPath id="prefix__clip1_1433_832"><path fill="#fff" transform="translate(-916 -1012)" d="M0 0h2166v2500H0z"/></clipPath></defs></svg>