<svg width="256" height="210" fill="none" xmlns="http://www.w3.org/2000/svg"><g clip-path="url(#prefix__clip0_1433_918)" fill="#015EAC"><path d="M56.912.143h132.701L43.549 209.848H14.806a3.705 3.705 0 01-3.533-3.697c0-.655.174-1.29.502-1.854L137.696 23.326a1.074 1.074 0 00-.666-1.67H84.919a48.548 48.548 0 00-18.258 3.636c-17.183 7.004-48.6 28.078-65.444 90.593 0 0-14.377-63.437 55.695-115.742zM199.065 209.848h-132.7L212.398.143h28.928a3.705 3.705 0 012.888 5.519l-125.922 180.93a1.12 1.12 0 00.891 1.752l52.112-.226a48.67 48.67 0 0017.93-3.44c17.295-7.005 48.742-28.037 65.597-90.553-.051-.01 14.316 63.437-55.757 115.723z"/></g><defs><clipPath id="prefix__clip0_1433_918"><path fill="#fff" d="M0 0h256v210H0z"/></clipPath></defs></svg>